<?xml version="1.0" encoding="UTF-8" standalone="no"?>
<!-- Created with Inkscape (http://www.inkscape.org/) -->

<svg
   xmlns:dc="http://purl.org/dc/elements/1.1/"
   xmlns:cc="http://creativecommons.org/ns#"
   xmlns:rdf="http://www.w3.org/1999/02/22-rdf-syntax-ns#"
   xmlns:svg="http://www.w3.org/2000/svg"
   xmlns="http://www.w3.org/2000/svg"
   xmlns:sodipodi="http://sodipodi.sourceforge.net/DTD/sodipodi-0.dtd"
   xmlns:inkscape="http://www.inkscape.org/namespaces/inkscape"
   width="133.33"
   height="145.07"
   version="1.1"
   viewBox="0 0 125 136"
   id="svg4521"
   sodipodi:docname="menu_texture.svg"
   inkscape:version="0.92.0 r15299">
  <sodipodi:namedview
     pagecolor="#ffffff"
     bordercolor="#666666"
     borderopacity="1"
     objecttolerance="10"
     gridtolerance="10"
     guidetolerance="10"
     inkscape:pageopacity="0"
     inkscape:pageshadow="2"
     inkscape:window-width="1920"
     inkscape:window-height="1017"
     id="namedview4523"
     showgrid="false"
     inkscape:zoom="1.6268008"
     inkscape:cx="66.665001"
     inkscape:cy="72.535004"
     inkscape:window-x="-8"
     inkscape:window-y="-8"
     inkscape:window-maximized="1"
     inkscape:current-layer="g4519" />
  <defs
     id="defs4511">
    <linearGradient
       id="b"
       x1="59.645"
       x2="59.645"
       y1="911.52454"
       y2="1019.2584"
       gradientUnits="userSpaceOnUse"
       gradientTransform="translate(0.4042,0.05008035)">
      <stop
         stop-color="#2a4817"
         offset="0"
         id="stop4501" />
      <stop
         stop-color="#2a4817"
         stop-opacity="0"
         offset="1"
         id="stop4503" />
    </linearGradient>
    <linearGradient
       id="a"
       x1="67.652596"
       x2="67.652596"
       y1="912.33081"
       y2="1029.9341"
       gradientUnits="userSpaceOnUse">
      <stop
         stop-color="#e3e4d8"
         stop-opacity=".5"
         offset="0"
         id="stop4506"
         style="stop-color:#e3e4d8;stop-opacity:1" />
      <stop
         stop-color="#e3e4d8"
         stop-opacity="0"
         offset="1"
         id="stop4508" />
    </linearGradient>
  </defs>
  <metadata
     id="metadata4513">
    <rdf:RDF>
      <cc:Work
         rdf:about="">
        <dc:format>image/svg+xml</dc:format>
        <dc:type
           rdf:resource="http://purl.org/dc/dcmitype/StillImage" />
        <dc:title />
      </cc:Work>
    </rdf:RDF>
  </metadata>
  <g
     transform="translate(0 -916.36)"
     id="g4519">
    <rect
       x="-5"
       y="911.36"
       width="135"
       height="146"
       fill="url(#a)"
       id="rect4515"
       style="fill:url(#a)" />
    <path
       d="m 128.8942,1057.4501 1.5948,-1.5948 m -11.594,1.5947 11.594,-11.594 m -16.595,11.596 16.597,-16.597 m -21.596,16.596 21.596,-21.596 m -26.596,21.596 26.595,-26.595 m -36.594,26.595 36.594,-36.594 m -41.594,36.594 41.594,-41.594 m -46.595,41.595 46.596,-46.596 m -51.596,46.596 51.596,-51.596 m -61.595,51.595 61.594,-61.59401 M 63.896,1057.451 130.49,990.85699 M 58.897,1057.45 130.49,985.85699 M 53.897,1057.45 130.49,980.85699 M 43.896,1057.451 130.491,970.85599 M 38.897,1057.45 130.491,965.85599 M 33.897,1057.45 130.49,960.85699 M 28.9,1057.45 130.49,955.85999 M 18.9,1057.45 130.5,945.84999 M 13.91,1057.45 130.5,940.85999 M 8.91,1057.45 130.5,935.85999 M 3.91,1057.45 130.5,930.85999 M -4.59,1055.95 130.5,920.85999 M -4.59,1050.95 130.5,915.85999 M -4.59,1045.95 130,911.35999 M -4.59,1040.95 125,911.35999 M -4.59,1030.95 115,911.35999 M -4.59,1025.95 110,911.35999 M -4.59,1020.95 105,911.35999 M -4.59,1015.95 100,911.35999 M -4.59,1005.949 89.998,911.36099 M -4.59,1000.95 84.999,911.36099 m -89.589,84.589 84.59,-84.59 m -84.59,79.59 79.59,-79.59 m -79.589,69.589 69.588,-69.588 m -69.588,64.588 64.588,-64.588 m -64.589,59.589 59.589,-59.589 m -59.589,54.59 54.59,-54.59 m -54.59,44.591 44.591,-44.591 m -44.592,39.592 39.591,-39.591 m -39.589,34.589 34.589,-34.589 m -34.589,29.589 29.589,-29.589 m -29.59,19.59 19.591,-19.591 m -19.591,14.591 14.591,-14.591 m -14.591,9.5914 9.5901,-9.5901 m -9.5885,4.5886 4.5889,-4.5889 m 125.9,-3.9e-4 4.6006,4.6006 m -9.6002,-4.6004 9.5999,9.5999 m -19.6,-9.5998 19.599,19.599 m -24.599,-19.599 24.601,24.601 m -29.602,-24.602 29.601,29.601 m -34.601,-29.601 34.6,34.6 m -44.6,-34.6 44.599,44.599 m -49.599,-44.599 49.598,49.598 m -54.598,-49.598 54.6,54.6 m -59.602,-54.602 59.601,59.601 m -69.6,-59.6 69.599,69.6 m -74.599,-69.599 74.599,74.599 m -79.598,-74.599 79.598,79.598 m -84.598,-79.598 84.597,84.597 m -94.599,-84.599 94.6,94.6 m -99.6,-94.6 99.599,99.599 m -104.6,-99.599 104.6,104.6 m -109.6,-104.6 109.6,109.6 m -119.6,-109.6 119.6,119.6 m -124.6,-119.6 124.6,124.6 m -129.6,-124.6 129.6,129.6 m -134.6,-129.6 134.6,134.6 m -135.09,-125.09 135.09,135.09 m -135.09,-130.09 131.58,131.58 m -131.58,-126.58 126.58,126.58 m -126.58,-121.58 121.58,121.58 m -121.58,-111.58 111.58,111.58 m -111.58,-106.58 106.58,106.58 m -106.58,-101.58 101.58,101.59 m -101.58,-96.585 96.585,96.585 m -96.584,-86.584 86.583,86.583 m -86.583,-81.584 81.584,81.584 m -81.584,-76.584 76.584,76.584 m -76.585,-71.585 71.585,71.585 m -71.584,-61.585 61.583,61.583 m -61.583,-56.583 56.583,56.583 m -56.584,-51.584 51.584,51.584 m -51.584,-46.584 46.585,46.585 m -46.585,-36.586 36.586,36.586 m -36.586,-31.586 31.587,31.587 m -31.586,-26.586 26.584,26.584 m -26.584,-21.584 21.584,21.584 m -21.585,-11.585 11.586,11.586 m -11.586,-6.586 6.5863,6.5862 m -6.5866,-1.5866 1.5869,1.5869 m 126.91,-10e-4 6.5941,-6.5941 m -31.594,6.5946 31.595,-31.595 m -56.595,31.595 56.595,-56.595 m -81.595,56.596 81.595,-81.596 m -106.59,81.594 106.59,-106.59 m -131.59,106.59 131.59,-131.59 m -135.09,110.09 124.59,-124.59 m -124.59,99.588 99.587,-99.588 m -99.589,74.59 74.59,-74.59 m -74.589,49.589 49.59,-49.591 m -49.59,24.591 24.59,-24.59 m 95.897,4.9e-4 14.599,14.599 m -39.599,-14.6 39.6,39.6 m -64.6,-39.6 64.6,64.6 m -89.599,-64.599 89.599,89.59901 m -114.6,-89.60001 114.6,114.60001 m -135.09,-110.09001 135.09,135.09001 m -135.09,-110.09001 116.58,116.58001 m -116.58,-91.58301 91.583,91.58301 m -91.584,-66.58501 66.586,66.58601 m -66.585,-41.586 41.585,41.585 m -41.585,-16.585 16.585,16.585"
       id="path4517"
       style="fill:none;stroke:url(#b)"
       inkscape:connector-curvature="0" />
  </g>
</svg>
