<?xml version="1.0" encoding="UTF-8" standalone="no"?>
<!-- Created with Inkscape (http://www.inkscape.org/) -->

<svg
   xmlns:dc="http://purl.org/dc/elements/1.1/"
   xmlns:cc="http://creativecommons.org/ns#"
   xmlns:rdf="http://www.w3.org/1999/02/22-rdf-syntax-ns#"
   xmlns:svg="http://www.w3.org/2000/svg"
   xmlns="http://www.w3.org/2000/svg"
   xmlns:xlink="http://www.w3.org/1999/xlink"
   xmlns:sodipodi="http://sodipodi.sourceforge.net/DTD/sodipodi-0.dtd"
   xmlns:inkscape="http://www.inkscape.org/namespaces/inkscape"
   width="125"
   height="136"
   viewBox="0 0 125 136"
   id="svg8387"
   version="1.1"
   inkscape:version="0.91 r13725"
   sodipodi:docname="menu_texture.svg">
  <defs
     id="defs8389">
    <linearGradient
       inkscape:collect="always"
       id="linearGradient4148">
      <stop
         style="stop-color:#782121;stop-opacity:0.49079755"
         offset="0"
         id="stop4150" />
      <stop
         style="stop-color:#782121;stop-opacity:0"
         offset="1"
         id="stop4152" />
    </linearGradient>
    <linearGradient
       inkscape:collect="always"
       id="linearGradient4147">
      <stop
         style="stop-color:#683131;stop-opacity:1"
         offset="0"
         id="stop4149" />
      <stop
         style="stop-color:#683131;stop-opacity:0"
         offset="1"
         id="stop4151" />
    </linearGradient>
    <linearGradient
       inkscape:collect="always"
       xlink:href="#linearGradient4147"
       id="linearGradient4153"
       x1="59.645092"
       y1="887.31519"
       x2="59.645092"
       y2="1037.6731"
       gradientUnits="userSpaceOnUse" />
    <linearGradient
       inkscape:collect="always"
       xlink:href="#linearGradient4148"
       id="linearGradient4154"
       x1="66.5"
       y1="814.36218"
       x2="66.5"
       y2="1025.8622"
       gradientUnits="userSpaceOnUse" />
  </defs>
  <sodipodi:namedview
     id="base"
     pagecolor="#ffffff"
     bordercolor="#666666"
     borderopacity="1.0"
     inkscape:pageopacity="0.0"
     inkscape:pageshadow="2"
     inkscape:zoom="2"
     inkscape:cx="104.87883"
     inkscape:cy="50.247979"
     inkscape:document-units="px"
     inkscape:current-layer="layer1"
     showgrid="false"
     units="px"
     inkscape:window-width="1356"
     inkscape:window-height="882"
     inkscape:window-x="188"
     inkscape:window-y="358"
     inkscape:window-maximized="0" />
  <metadata
     id="metadata8392">
    <rdf:RDF>
      <cc:Work
         rdf:about="">
        <dc:format>image/svg+xml</dc:format>
        <dc:type
           rdf:resource="http://purl.org/dc/dcmitype/StillImage" />
        <dc:title></dc:title>
      </cc:Work>
    </rdf:RDF>
  </metadata>
  <g
     inkscape:label="Layer 1"
     inkscape:groupmode="layer"
     id="layer1"
     transform="translate(0,-916.36216)">
    <rect
       style="opacity:1;fill:url(#linearGradient4154);fill-opacity:1;stroke:none;stroke-width:0.49599999;stroke-linecap:round;stroke-linejoin:round;stroke-miterlimit:4;stroke-dasharray:none;stroke-opacity:1"
       id="rect4138"
       width="135"
       height="146"
       x="-5"
       y="911.36218" />
    <path
       id="path9022"
       style="fill:none;fill-opacity:1;stroke:url(#linearGradient4153);stroke-width:1;stroke-miterlimit:4;stroke-dasharray:none;stroke-opacity:1"
       d="m 128.49179,1057.3617 1.59475,-1.5948 m -11.59446,1.5947 11.59435,-11.5944 m -16.59541,11.5955 16.59661,-16.5966 m -21.59622,16.5963 21.59591,-21.5959 m -26.59552,21.5957 26.59523,-26.5953 m -36.594447,26.5947 36.593847,-36.5939 m -41.593878,36.594 41.594008,-41.5941 m -46.595144,41.5953 46.596364,-46.5964 m -51.595978,46.5962 51.595688,-51.5957 M 68.492593,1057.3621 130.0869,995.76772 M 63.492991,1057.3617 130.0866,990.76806 m -71.593221,66.59344 71.592921,-71.593 m -76.592899,71.593 76.592969,-76.59303 M 43.492614,1057.3626 130.08737,970.76775 M 38.493003,1057.3622 130.08707,965.76808 M 33.493397,1057.362 130.08678,960.76851 M 28.493794,1057.3616 130.08649,955.76883 M 18.492628,1057.363 130.08783,945.76767 M 13.493007,1057.3628 130.08753,940.7681 M 8.493415,1057.3624 130.08725,935.76849 M 3.4938078,1057.3621 130.08695,930.76887 M -5.0005337,1055.8567 130.08636,920.76963 M -5.0011213,1050.8574 130.08633,915.76981 M -4.9991671,1045.8555 129.58738,911.26879 M -4.99947,1040.8559 124.58779,911.26853 M -5.0000553,1030.8567 114.5886,911.26791 M -5.0003483,1025.8571 109.58898,911.26767 M -5.0009889,1020.8578 104.58771,911.26899 M -4.9999655,1015.8569 99.588793,911.26804 M -4.9995899,1005.8567 89.588596,911.26842 M -4.9998819,1000.8571 84.588987,911.26814 M -5.0001785,995.85749 79.589379,911.26783 M -5.0004821,990.85786 74.589774,911.26754 M -4.9991112,980.85673 64.588611,911.26893 M -4.99941,975.85707 59.589004,911.26859 M -4.999714,970.8575 54.589396,911.26833 M -5.0000185,965.85785 49.589787,911.26798 M -5.000607,955.85866 39.590564,911.26745 M -5.0013543,950.8595 34.589422,911.26868 M -4.9992309,945.85752 29.589422,911.26883 M -4.9995445,940.85787 24.589798,911.26849 M -5.0001336,930.85863 14.590584,911.26789 M -5.0004183,925.85906 9.5910014,911.26763 m -14.5912588,9.59135 9.5901277,-9.59014 m -9.5884617,4.58856 4.5888726,-4.58888 m 125.8959488,-3.9e-4 4.60063,4.60063 m -9.60022,-4.60038 9.59991,9.59993 m -19.59958,-9.59978 19.59947,19.59948 m -24.59907,-19.59917 24.60071,24.60073 m -29.60182,-24.60194 29.60106,29.6011 m -34.600676,-29.60085 34.600376,34.60041 m -44.599585,-34.59981 44.598995,44.59906 m -49.598607,-44.59871 49.598307,49.59836 m -54.598305,-49.5985 54.600375,54.60043 m -59.601549,-54.60169 59.600839,59.60089 m -69.600045,-59.60034 69.599465,69.59954 m -74.599059,-69.59918 74.598769,74.59884 m -79.598388,-74.5986 79.598078,79.59817 M 45.488632,911.26893 130.08601,995.86641 M 35.487467,911.26758 130.08737,1005.8676 M 30.487856,911.26783 130.08708,1010.8672 M 25.488242,911.26814 130.08678,1015.8668 M 20.488649,911.26843 130.08651,1020.8664 M 10.489133,911.26873 130.08815,1030.8679 M 5.4895274,911.26899 130.08784,1035.8674 M 0.48826246,911.26768 130.08725,1040.8668 M -4.5113448,911.26792 130.08694,1045.8664 M -5.0005308,920.77856 130.08636,1055.8656 M -5.0008296,925.77812 126.58381,1057.3629 M -4.9994783,930.77944 121.58253,1057.3616 M -4.9994668,935.77931 116.58266,1057.3616 M -5.0000553,945.77854 106.58344,1057.3622 M -5.0003549,950.77817 101.58385,1057.3625 M -5.0006339,955.77777 96.584249,1057.3628 M -5.000593,960.77769 91.584299,1057.3627 M -4.9995861,970.77852 81.583457,1057.3617 M -4.9998819,975.77819 76.583849,1057.362 M -5.0001845,980.77775 71.584235,1057.3622 M -5.0004781,985.77742 66.584622,1057.3626 m -71.584143,-61.58451 61.583363,61.58341 m -61.5832578,-56.5833 56.5832768,56.5833 m -56.5835707,-51.5838 51.5839537,51.584 m -51.5842625,-46.5843 46.5846455,46.5847 m -46.5852294,-36.5855 36.5860284,36.5861 m -36.586323,-31.5865 31.586724,31.5867 m -31.5855289,-26.5857 26.5844079,26.5845 m -26.5842505,-21.5843 21.5842025,21.5842 m -21.5847916,-11.585 11.5855776,11.5856 m -11.5858672,-6.586 6.5862605,6.5862 m -6.5865553,-1.5866 1.586943,1.5869 m 126.905955,-10e-4 6.59408,-6.5941 m -31.594077,6.5946 31.594537,-31.5946 m -56.594512,31.5948 56.595002,-56.5951 m -81.595003,56.5956 81.595453,-81.59559 M 23.493862,1057.3617 130.0865,950.76898 M -1.5057929,1057.3618 130.08665,925.76928 M -4.9997596,1035.8564 119.58819,911.26827 M -4.9992808,1010.8563 94.588206,911.26868 M -5.0011644,985.85864 69.588578,911.26882 M -5.0003072,960.85828 44.590177,911.26774 M -4.9998443,935.8583 19.590181,911.26824 m 95.896839,4.9e-4 14.59923,14.59925 m -39.599204,-14.59976 39.599694,39.59974 m -64.59968,-39.60023 64.60015,64.60022 M 40.488675,911.26884 130.08801,1000.8683 M 15.489038,911.26867 130.08619,1025.8659 M -5.0002412,915.77899 130.08665,1050.866 M -4.9997596,940.77894 111.58303,1057.3618 M -4.999654,965.77859 86.583375,1057.3617 M -5.0007729,990.77697 61.585023,1057.3628 m -66.5853357,-41.5858 41.5853467,41.5853 m -41.5848734,-16.5854 16.5848864,16.5849"
       inkscape:connector-curvature="0" />
  </g>
</svg>
