<?xml version="1.0" encoding="UTF-8" standalone="no"?>
<!-- Created with Inkscape (http://www.inkscape.org/) -->

<svg
   xmlns:dc="http://purl.org/dc/elements/1.1/"
   xmlns:cc="http://creativecommons.org/ns#"
   xmlns:rdf="http://www.w3.org/1999/02/22-rdf-syntax-ns#"
   xmlns:svg="http://www.w3.org/2000/svg"
   xmlns="http://www.w3.org/2000/svg"
   xmlns:sodipodi="http://sodipodi.sourceforge.net/DTD/sodipodi-0.dtd"
   xmlns:inkscape="http://www.inkscape.org/namespaces/inkscape"
   width="426.66666"
   height="136.53336"
   viewBox="0 0 400.00001 128.00001"
   id="svg2"
   version="1.1"
   inkscape:version="0.92.0 r15299"
   sodipodi:docname="perthparkour_swole.svg"
   inkscape:export-filename="C:\Users\Adon\SkyDrive\Development\perthpk.github.io\images\perthparkour.png"
   inkscape:export-xdpi="50.810253"
   inkscape:export-ydpi="50.810253">
  <defs
     id="defs4">
    <clipPath
       clipPathUnits="userSpaceOnUse"
       id="clipPath4201">
      <rect
         style="fill:#ffffff;fill-opacity:0.30635837;stroke:none;stroke-width:16.70000076;stroke-miterlimit:4;stroke-dasharray:none;stroke-opacity:1"
         id="rect4203"
         width="1745.7142"
         height="811.42859"
         x="-906.1189"
         y="79.35627" />
    </clipPath>
    <clipPath
       clipPathUnits="userSpaceOnUse"
       id="clipPath4201-1">
      <rect
         style="fill:#ffffff;fill-opacity:0.30635837;stroke:none;stroke-width:16.70000076;stroke-miterlimit:4;stroke-dasharray:none;stroke-opacity:1"
         id="rect4203-9"
         width="1745.7142"
         height="811.42859"
         x="-906.1189"
         y="79.35627" />
    </clipPath>
    <clipPath
       clipPathUnits="userSpaceOnUse"
       id="clipPath4201-8">
      <rect
         style="fill:#ffffff;fill-opacity:0.30635837;stroke:none;stroke-width:16.70000076;stroke-miterlimit:4;stroke-dasharray:none;stroke-opacity:1"
         id="rect4203-8"
         width="1745.7142"
         height="811.42859"
         x="-906.1189"
         y="79.35627" />
    </clipPath>
    <clipPath
       clipPathUnits="userSpaceOnUse"
       id="clipPath4201-1-5">
      <rect
         style="fill:#ffffff;fill-opacity:0.30635837;stroke:none;stroke-width:16.70000076;stroke-miterlimit:4;stroke-dasharray:none;stroke-opacity:1"
         id="rect4203-9-8"
         width="1745.7142"
         height="811.42859"
         x="-906.1189"
         y="79.35627" />
    </clipPath>
    <clipPath
       clipPathUnits="userSpaceOnUse"
       id="clipPath4201-7">
      <rect
         style="fill:#ffffff;fill-opacity:0.30635837;stroke:none;stroke-width:16.70000076;stroke-miterlimit:4;stroke-dasharray:none;stroke-opacity:1"
         id="rect4203-4"
         width="1745.7142"
         height="811.42859"
         x="-906.1189"
         y="79.35627" />
    </clipPath>
    <clipPath
       clipPathUnits="userSpaceOnUse"
       id="clipPath4201-11">
      <rect
         style="fill:#ffffff;fill-opacity:0.30635837;stroke:none;stroke-width:16.70000076;stroke-miterlimit:4;stroke-dasharray:none;stroke-opacity:1"
         id="rect4203-1"
         width="1745.7142"
         height="811.42859"
         x="-906.1189"
         y="79.35627" />
    </clipPath>
    <clipPath
       clipPathUnits="userSpaceOnUse"
       id="clipPath4201-7-7">
      <rect
         style="fill:#ffffff;fill-opacity:0.30635837;stroke:none;stroke-width:16.70000076;stroke-miterlimit:4;stroke-dasharray:none;stroke-opacity:1"
         id="rect4203-4-0"
         width="1745.7142"
         height="811.42859"
         x="-906.1189"
         y="79.35627" />
    </clipPath>
    <clipPath
       clipPathUnits="userSpaceOnUse"
       id="clipPath4201-3">
      <rect
         style="fill:#ffffff;fill-opacity:0.30635837;stroke:none;stroke-width:16.70000076;stroke-miterlimit:4;stroke-dasharray:none;stroke-opacity:1"
         id="rect4203-7"
         width="1745.7142"
         height="811.42859"
         x="-906.1189"
         y="79.35627" />
    </clipPath>
    <clipPath
       clipPathUnits="userSpaceOnUse"
       id="clipPath4201-7-9">
      <rect
         style="fill:#ffffff;fill-opacity:0.30635837;stroke:none;stroke-width:16.70000076;stroke-miterlimit:4;stroke-dasharray:none;stroke-opacity:1"
         id="rect4203-4-7"
         width="1745.7142"
         height="811.42859"
         x="-906.1189"
         y="79.35627" />
    </clipPath>
    <clipPath
       clipPathUnits="userSpaceOnUse"
       id="clipPath4201-3-3">
      <rect
         style="fill:#ffffff;fill-opacity:0.30635837;stroke:none;stroke-width:16.70000076;stroke-miterlimit:4;stroke-dasharray:none;stroke-opacity:1"
         id="rect4203-7-6"
         width="1745.7142"
         height="811.42859"
         x="-906.1189"
         y="79.35627" />
    </clipPath>
    <clipPath
       clipPathUnits="userSpaceOnUse"
       id="clipPath4201-7-9-7">
      <rect
         style="fill:#ffffff;fill-opacity:0.30635837;stroke:none;stroke-width:16.70000076;stroke-miterlimit:4;stroke-dasharray:none;stroke-opacity:1"
         id="rect4203-4-7-5"
         width="1745.7142"
         height="811.42859"
         x="-906.1189"
         y="79.35627" />
    </clipPath>
    <clipPath
       clipPathUnits="userSpaceOnUse"
       id="clipPath4201-3-3-0">
      <rect
         style="fill:#ffffff;fill-opacity:0.30635837;stroke:none;stroke-width:16.70000076;stroke-miterlimit:4;stroke-dasharray:none;stroke-opacity:1"
         id="rect4203-7-6-7"
         width="1745.7142"
         height="811.42859"
         x="-906.1189"
         y="79.35627" />
    </clipPath>
    <clipPath
       clipPathUnits="userSpaceOnUse"
       id="clipPath4201-7-9-7-3">
      <rect
         style="fill:#ffffff;fill-opacity:0.30635837;stroke:none;stroke-width:16.70000076;stroke-miterlimit:4;stroke-dasharray:none;stroke-opacity:1"
         id="rect4203-4-7-5-1"
         width="1745.7142"
         height="811.42859"
         x="-906.1189"
         y="79.35627" />
    </clipPath>
    <clipPath
       clipPathUnits="userSpaceOnUse"
       id="clipPath4201-3-3-0-4">
      <rect
         style="fill:#ffffff;fill-opacity:0.30635837;stroke:none;stroke-width:16.70000076;stroke-miterlimit:4;stroke-dasharray:none;stroke-opacity:1"
         id="rect4203-7-6-7-0"
         width="1745.7142"
         height="811.42859"
         x="-906.1189"
         y="79.35627" />
    </clipPath>
    <clipPath
       clipPathUnits="userSpaceOnUse"
       id="clipPath4201-7-9-7-3-6">
      <rect
         style="fill:#ffffff;fill-opacity:0.30635837;stroke:none;stroke-width:16.70000076;stroke-miterlimit:4;stroke-dasharray:none;stroke-opacity:1"
         id="rect4203-4-7-5-1-4"
         width="1745.7142"
         height="811.42859"
         x="-906.1189"
         y="79.35627" />
    </clipPath>
    <clipPath
       clipPathUnits="userSpaceOnUse"
       id="clipPath4201-3-3-0-4-8">
      <rect
         style="fill:#ffffff;fill-opacity:0.30635837;stroke:none;stroke-width:16.70000076;stroke-miterlimit:4;stroke-dasharray:none;stroke-opacity:1"
         id="rect4203-7-6-7-0-9"
         width="1745.7142"
         height="811.42859"
         x="-906.1189"
         y="79.35627" />
    </clipPath>
    <clipPath
       clipPathUnits="userSpaceOnUse"
       id="clipPath4201-7-9-7-3-6-6">
      <rect
         style="fill:#ffffff;fill-opacity:0.30635837;stroke:none;stroke-width:16.70000076;stroke-miterlimit:4;stroke-dasharray:none;stroke-opacity:1"
         id="rect4203-4-7-5-1-4-0"
         width="1745.7142"
         height="811.42859"
         x="-906.1189"
         y="79.35627" />
    </clipPath>
    <clipPath
       clipPathUnits="userSpaceOnUse"
       id="clipPath4201-3-3-0-4-5">
      <rect
         style="fill:#ffffff;fill-opacity:0.30635837;stroke:none;stroke-width:16.70000076;stroke-miterlimit:4;stroke-dasharray:none;stroke-opacity:1"
         id="rect4203-7-6-7-0-1"
         width="1745.7142"
         height="811.42859"
         x="-906.1189"
         y="79.35627" />
    </clipPath>
    <clipPath
       clipPathUnits="userSpaceOnUse"
       id="clipPath4201-7-9-7-3-6-0">
      <rect
         style="fill:#ffffff;fill-opacity:0.30635837;stroke:none;stroke-width:16.70000076;stroke-miterlimit:4;stroke-dasharray:none;stroke-opacity:1"
         id="rect4203-4-7-5-1-4-3"
         width="1745.7142"
         height="811.42859"
         x="-906.1189"
         y="79.35627" />
    </clipPath>
    <clipPath
       clipPathUnits="userSpaceOnUse"
       id="clipPath4201-3-3-0-8">
      <rect
         style="fill:#ffffff;fill-opacity:0.30635837;stroke:none;stroke-width:16.70000076;stroke-miterlimit:4;stroke-dasharray:none;stroke-opacity:1"
         id="rect4203-7-6-7-3"
         width="1745.7142"
         height="811.42859"
         x="-906.1189"
         y="79.35627" />
    </clipPath>
    <clipPath
       clipPathUnits="userSpaceOnUse"
       id="clipPath4201-7-9-7-3-7">
      <rect
         style="fill:#ffffff;fill-opacity:0.30635837;stroke:none;stroke-width:16.70000076;stroke-miterlimit:4;stroke-dasharray:none;stroke-opacity:1"
         id="rect4203-4-7-5-1-9"
         width="1745.7142"
         height="811.42859"
         x="-906.1189"
         y="79.35627" />
    </clipPath>
  </defs>
  <sodipodi:namedview
     id="base"
     pagecolor="#ffffff"
     bordercolor="#666666"
     borderopacity="1.0"
     inkscape:pageopacity="0.0"
     inkscape:pageshadow="2"
     inkscape:zoom="1"
     inkscape:cx="-145.81128"
     inkscape:cy="-108.56618"
     inkscape:document-units="px"
     inkscape:current-layer="layer1"
     showgrid="false"
     fit-margin-top="0"
     fit-margin-left="0"
     fit-margin-right="0"
     fit-margin-bottom="0"
     inkscape:window-width="1920"
     inkscape:window-height="1017"
     inkscape:window-x="-8"
     inkscape:window-y="-8"
     inkscape:window-maximized="1"
     units="px">
    <inkscape:grid
       type="xygrid"
       id="grid4334"
       originx="0"
       originy="0"
       spacingx="1"
       spacingy="1" />
  </sodipodi:namedview>
  <metadata
     id="metadata7">
    <rdf:RDF>
      <cc:Work
         rdf:about="">
        <dc:format>image/svg+xml</dc:format>
        <dc:type
           rdf:resource="http://purl.org/dc/dcmitype/StillImage" />
        <dc:title />
      </cc:Work>
    </rdf:RDF>
  </metadata>
  <g
     inkscape:label="Layer 1"
     inkscape:groupmode="layer"
     id="layer1"
     transform="translate(57.547477,-1071.3563)">
    <g
       style="font-style:normal;font-variant:normal;font-weight:300;font-stretch:normal;font-size:73.23943329px;line-height:125%;font-family:'Dharma Gothic E';-inkscape-font-specification:'Dharma Gothic E Light';letter-spacing:0px;word-spacing:0px;fill:#000000;fill-opacity:1;stroke:none;stroke-width:1px;stroke-linecap:butt;stroke-linejoin:miter;stroke-opacity:1"
       id="text4194-1-7-0-5-6">
      <path
         d="m 164.04142,1162.9901 h 4.83381 v -20.0676 h 6.00563 c 6.22535,0 7.90986,-1.9775 7.90986,-8.7887 v -13.6958 c 0,-6.738 -1.68451,-8.7155 -7.90986,-8.7155 h -10.83944 z m 4.83381,-24.5352 v -22.2648 h 5.2 c 3.51549,0 3.88169,1.2451 3.88169,5.2 v 11.8648 c 0,3.8817 -0.3662,5.2 -3.88169,5.2 z"
         style="fill:#000000"
         id="path4222"
         inkscape:connector-curvature="0" />
      <path
         d="m 199.69643,1162.9901 h 4.8338 l -7.10422,-51.2676 h -6.66479 l -7.17746,51.2676 h 4.32112 l 1.17183,-8.276 h 9.37465 z m -8.49577,-23.5831 c 1.31831,-9.3014 2.12394,-17.3577 2.56338,-23.2901 0.51267,5.9324 1.39155,13.9155 2.63662,23.2901 l 1.46478,10.8395 h -8.20281 z"
         style="fill:#000000"
         id="path4224"
         inkscape:connector-curvature="0" />
      <path
         d="m 228.28956,1145.2662 c 0,-5.0536 -0.95211,-7.3972 -4.1014,-8.2761 3.14929,-0.8789 4.1014,-3.2225 4.1014,-8.276 v -8.2761 c 0,-6.738 -1.6845,-8.7155 -7.98309,-8.7155 h -11.27888 v 51.2676 h 4.83381 v -23.8028 h 5.27324 c 3.66197,0 4.32112,1.6845 4.32112,5.7127 v 10.107 c 0,3.2225 0,6.2986 0.65916,7.9831 h 5.12676 c -0.7324,-2.5634 -0.95212,-5.7127 -0.95212,-9.0084 z m -4.8338,-15.7465 c 0,3.8817 -0.3662,5.2 -3.88169,5.2 h -5.71267 v -18.5296 h 5.71267 c 3.58873,0 3.88169,1.2451 3.88169,5.2 z"
         style="fill:#000000"
         id="path4226"
         inkscape:connector-curvature="0" />
      <path
         d="m 234.56299,1162.9901 h 4.8338 v -25.3408 c 0.43944,1.4648 0.95212,2.7098 1.46479,3.8084 l 9.74085,21.5324 h 5.12676 l -12.52395,-27.1718 12.08451,-24.0958 h -4.76056 l -9.59437,19.7747 c -0.58591,1.1718 -1.02535,2.1239 -1.53803,3.5154 v -23.2901 h -4.8338 z"
         style="fill:#000000"
         id="path4228"
         inkscape:connector-curvature="0" />
      <path
         d="m 258.08199,1154.6408 c 0,6.738 1.68451,8.7155 7.9831,8.7155 h 3.36901 c 6.2986,0 7.9831,-1.9775 7.9831,-8.7155 v -34.569 c 0,-6.738 -1.6845,-8.7155 -7.9831,-8.7155 h -3.36901 c -6.29859,0 -7.9831,1.9775 -7.9831,8.7155 z m 14.42817,-0.9521 c 0,3.9549 -0.21972,5.2 -3.80845,5.2 h -1.90422 c -3.58874,0 -3.80846,-1.2451 -3.80846,-5.2 v -32.6648 c 0,-3.9549 0.21972,-5.2 3.80846,-5.2 h 1.90422 c 3.58873,0 3.80845,1.2451 3.80845,5.2 z"
         style="fill:#000000"
         id="path4230"
         inkscape:connector-curvature="0" />
      <path
         d="m 288.31501,1111.7225 h -4.8338 v 42.9183 c 0,6.738 1.61127,8.7155 7.90986,8.7155 h 3.14929 c 6.2986,0 7.90986,-1.9775 7.90986,-8.7155 v -42.9183 h -4.54084 v 41.9662 c 0,3.9549 -0.29296,5.2 -3.88169,5.2 h -1.90423 c -3.51549,0 -3.80845,-1.2451 -3.80845,-5.2 z"
         style="fill:#000000"
         id="path4232"
         inkscape:connector-curvature="0" />
      <path
         d="m 328.13551,1145.2662 c 0,-5.0536 -0.95211,-7.3972 -4.10141,-8.2761 3.1493,-0.8789 4.10141,-3.2225 4.10141,-8.276 v -8.2761 c 0,-6.738 -1.68451,-8.7155 -7.9831,-8.7155 h -11.27887 v 51.2676 h 4.8338 v -23.8028 h 5.27324 c 3.66197,0 4.32113,1.6845 4.32113,5.7127 v 10.107 c 0,3.2225 0,6.2986 0.65915,7.9831 h 5.12676 c -0.73239,-2.5634 -0.95211,-5.7127 -0.95211,-9.0084 z m -4.8338,-15.7465 c 0,3.8817 -0.3662,5.2 -3.88169,5.2 h -5.71268 v -18.5296 h 5.71268 c 3.58873,0 3.88169,1.2451 3.88169,5.2 z"
         style="fill:#000000"
         id="path4234"
         inkscape:connector-curvature="0" />
    </g>
    <g
       style="font-style:normal;font-variant:normal;font-weight:300;font-stretch:normal;font-size:73.23943329px;line-height:125%;font-family:'Dharma Gothic E';-inkscape-font-specification:'Dharma Gothic E Light';letter-spacing:0px;word-spacing:0px;fill:#adcda3;fill-opacity:1;stroke:none;stroke-width:1px;stroke-linecap:butt;stroke-linejoin:miter;stroke-opacity:1"
       id="text4194-1-7-0-5">
      <path
         d="m 162.04142,1160.9901 h 4.83381 v -20.0676 h 6.00563 c 6.22535,0 7.90986,-1.9775 7.90986,-8.7887 v -13.6958 c 0,-6.738 -1.68451,-8.7155 -7.90986,-8.7155 h -10.83944 z m 4.83381,-24.5352 v -22.2648 h 5.2 c 3.51549,0 3.88169,1.2451 3.88169,5.2 v 11.8648 c 0,3.8817 -0.3662,5.2 -3.88169,5.2 z"
         style="fill:#ffffff"
         id="path4197"
         inkscape:connector-curvature="0" />
      <path
         d="m 197.69643,1160.9901 h 4.8338 l -7.10422,-51.2676 h -6.66479 l -7.17746,51.2676 h 4.32112 l 1.17183,-8.276 h 9.37465 z m -8.49577,-23.5831 c 1.31831,-9.3014 2.12394,-17.3577 2.56338,-23.2901 0.51267,5.9324 1.39155,13.9155 2.63662,23.2901 l 1.46478,10.8395 h -8.20281 z"
         style="fill:#ffffff"
         id="path4199"
         inkscape:connector-curvature="0" />
      <path
         d="m 226.28956,1143.2662 c 0,-5.0536 -0.95211,-7.3972 -4.1014,-8.2761 3.14929,-0.8789 4.1014,-3.2225 4.1014,-8.276 v -8.2761 c 0,-6.738 -1.6845,-8.7155 -7.98309,-8.7155 h -11.27888 v 51.2676 h 4.83381 v -23.8028 h 5.27324 c 3.66197,0 4.32112,1.6845 4.32112,5.7127 v 10.107 c 0,3.2225 0,6.2986 0.65916,7.9831 h 5.12676 c -0.7324,-2.5634 -0.95212,-5.7127 -0.95212,-9.0084 z m -4.8338,-15.7465 c 0,3.8817 -0.3662,5.2 -3.88169,5.2 h -5.71267 v -18.5296 h 5.71267 c 3.58873,0 3.88169,1.2451 3.88169,5.2 z"
         style="fill:#ffffff"
         id="path4201"
         inkscape:connector-curvature="0" />
      <path
         d="m 232.56299,1160.9901 h 4.8338 v -25.3408 c 0.43944,1.4648 0.95212,2.7098 1.46479,3.8084 l 9.74085,21.5324 h 5.12676 l -12.52395,-27.1718 12.08451,-24.0958 h -4.76056 l -9.59437,19.7747 c -0.58591,1.1718 -1.02535,2.1239 -1.53803,3.5154 v -23.2901 h -4.8338 z"
         style="fill:#ffffff"
         id="path4203"
         inkscape:connector-curvature="0" />
      <path
         d="m 256.08199,1152.6408 c 0,6.738 1.68451,8.7155 7.9831,8.7155 h 3.36901 c 6.2986,0 7.9831,-1.9775 7.9831,-8.7155 v -34.569 c 0,-6.738 -1.6845,-8.7155 -7.9831,-8.7155 h -3.36901 c -6.29859,0 -7.9831,1.9775 -7.9831,8.7155 z m 14.42817,-0.9521 c 0,3.9549 -0.21972,5.2 -3.80845,5.2 h -1.90422 c -3.58874,0 -3.80846,-1.2451 -3.80846,-5.2 v -32.6648 c 0,-3.9549 0.21972,-5.2 3.80846,-5.2 h 1.90422 c 3.58873,0 3.80845,1.2451 3.80845,5.2 z"
         style="fill:#ffffff"
         id="path4205"
         inkscape:connector-curvature="0" />
      <path
         d="m 286.31501,1109.7225 h -4.8338 v 42.9183 c 0,6.738 1.61127,8.7155 7.90986,8.7155 h 3.14929 c 6.2986,0 7.90986,-1.9775 7.90986,-8.7155 v -42.9183 h -4.54084 v 41.9662 c 0,3.9549 -0.29296,5.2 -3.88169,5.2 h -1.90423 c -3.51549,0 -3.80845,-1.2451 -3.80845,-5.2 z"
         style="fill:#ffffff"
         id="path4207"
         inkscape:connector-curvature="0" />
      <path
         d="m 326.13551,1143.2662 c 0,-5.0536 -0.95211,-7.3972 -4.10141,-8.2761 3.1493,-0.8789 4.10141,-3.2225 4.10141,-8.276 v -8.2761 c 0,-6.738 -1.68451,-8.7155 -7.9831,-8.7155 h -11.27887 v 51.2676 h 4.8338 v -23.8028 h 5.27324 c 3.66197,0 4.32113,1.6845 4.32113,5.7127 v 10.107 c 0,3.2225 0,6.2986 0.65915,7.9831 h 5.12676 c -0.73239,-2.5634 -0.95211,-5.7127 -0.95211,-9.0084 z m -4.8338,-15.7465 c 0,3.8817 -0.3662,5.2 -3.88169,5.2 h -5.71268 v -18.5296 h 5.71268 c 3.58873,0 3.88169,1.2451 3.88169,5.2 z"
         style="fill:#ffffff"
         id="path4209"
         inkscape:connector-curvature="0" />
    </g>
    <g
       id="g4615"
       style="fill:#cccccc;fill-opacity:1">
      <path
         inkscape:connector-curvature="0"
         id="path4212"
         style="font-style:normal;font-variant:normal;font-weight:300;font-stretch:normal;font-size:73.23943329px;line-height:125%;font-family:'Dharma Gothic E';-inkscape-font-specification:'Dharma Gothic E Light';letter-spacing:0px;word-spacing:0px;fill:#cccccc;fill-opacity:1;stroke:none;stroke-width:1px;stroke-linecap:butt;stroke-linejoin:miter;stroke-opacity:1"
         d="m 42.452518,1162.9901 h 4.833802 v -20.0676 h 6.005634 c 6.225352,0 7.909859,-1.9775 7.909859,-8.7887 v -13.6958 c 0,-6.738 -1.684507,-8.7155 -7.909859,-8.7155 H 42.452518 Z m 4.833802,-24.5352 v -22.2648 h 5.2 c 3.515493,0 3.88169,1.2451 3.88169,5.2 v 11.8648 c 0,3.8817 -0.366197,5.2 -3.88169,5.2 z"
         transform="translate(3.7442804e-7,-2.3958883e-5)" />
      <path
         inkscape:connector-curvature="0"
         id="path4214"
         style="font-style:normal;font-variant:normal;font-weight:300;font-stretch:normal;font-size:73.23943329px;line-height:125%;font-family:'Dharma Gothic E';-inkscape-font-specification:'Dharma Gothic E Light';letter-spacing:0px;word-spacing:0px;fill:#cccccc;fill-opacity:1;stroke:none;stroke-width:1px;stroke-linecap:butt;stroke-linejoin:miter;stroke-opacity:1"
         d="m 70.745825,1116.1901 h 9.887324 v -4.4676 H 65.912023 v 51.2676 h 14.721126 v -4.4676 h -9.887324 v -20.2141 h 8.422535 v -4.3943 h -8.422535 z"
         transform="translate(3.7442804e-7,-2.3958883e-5)" />
      <path
         inkscape:connector-curvature="0"
         id="path4216"
         style="font-style:normal;font-variant:normal;font-weight:300;font-stretch:normal;font-size:73.23943329px;line-height:125%;font-family:'Dharma Gothic E';-inkscape-font-specification:'Dharma Gothic E Light';letter-spacing:0px;word-spacing:0px;fill:#cccccc;fill-opacity:1;stroke:none;stroke-width:1px;stroke-linecap:butt;stroke-linejoin:miter;stroke-opacity:1"
         d="m 104.84107,1145.2662 c 0,-5.0536 -0.95211,-7.3972 -4.10141,-8.2761 3.1493,-0.8789 4.10141,-3.2225 4.10141,-8.276 v -8.2761 c 0,-6.738 -1.68451,-8.7155 -7.983098,-8.7155 H 85.5791 v 51.2676 h 4.833802 v -23.8028 h 5.273239 c 3.661972,0 4.321129,1.6845 4.321129,5.7127 v 10.107 c 0,3.2225 0,6.2986 0.65915,7.9831 h 5.12676 c -0.73239,-2.5634 -0.95211,-5.7127 -0.95211,-9.0084 z m -4.8338,-15.7465 c 0,3.8817 -0.366199,5.2 -3.881692,5.2 h -5.712676 v -18.5296 h 5.712676 c 3.588732,0 3.881692,1.2451 3.881692,5.2 z"
         transform="translate(3.7442804e-7,-2.3958883e-5)" />
      <path
         inkscape:connector-curvature="0"
         id="path4218"
         style="font-style:normal;font-variant:normal;font-weight:300;font-stretch:normal;font-size:73.23943329px;line-height:125%;font-family:'Dharma Gothic E';-inkscape-font-specification:'Dharma Gothic E Light';letter-spacing:0px;word-spacing:0px;fill:#cccccc;fill-opacity:1;stroke:none;stroke-width:1px;stroke-linecap:butt;stroke-linejoin:miter;stroke-opacity:1"
         d="m 118.5151,1162.9901 v -46.8 h 5.63944 v -4.4676 h -16.18592 v 4.4676 h 5.71268 v 46.8 z"
         transform="translate(3.7442804e-7,-2.3958883e-5)" />
      <path
         inkscape:connector-curvature="0"
         id="path4220"
         style="font-style:normal;font-variant:normal;font-weight:300;font-stretch:normal;font-size:73.23943329px;line-height:125%;font-family:'Dharma Gothic E';-inkscape-font-specification:'Dharma Gothic E Light';letter-spacing:0px;word-spacing:0px;fill:#cccccc;fill-opacity:1;stroke:none;stroke-width:1px;stroke-linecap:butt;stroke-linejoin:miter;stroke-opacity:1"
         d="m 132.82769,1162.9901 v -24.6817 h 9.59436 v 24.6817 h 4.83381 v -51.2676 h -4.83381 v 22.1916 h -9.59436 v -22.1916 h -4.83381 v 51.2676 z"
         transform="translate(3.7442804e-7,-2.3958883e-5)" />
      <g
         style="fill:#cccccc;fill-opacity:1"
         clip-path="url(#clipPath4201-7-9-7-3)"
         transform="matrix(0.16470588,0,0,0.16470588,87.872106,1056.2859)"
         id="g4189-1-49-3-1">
        <path
           sodipodi:nodetypes="scsssscscsssssssssssssssssssssssssssssssssssssssssssssssssssssssssssssssssssssssssssssssssssssscccsssssssssssssssssssssssssssssssssssssssssssscsscscsscssssssssssssssssssssssscsssssssssssssssssssssssscsscscssssssscssssssssscsscssssssscssssssssssssssssssssssssssssssssssssssssssssssscsssssssssssssssssssssssssssssssssssssssssscsscssssssssssssssssssssssscssssssscssssssssssssssssscsssssssssssssssssssssssssssssssssssssscsccssssssssssssssssssssssssssssssscssccccscsccscccssssssssss"
           inkscape:connector-curvature="0"
           id="path4172-7-1-5-9"
           d="m -622.58479,855.69013 c -2.61015,-0.41966 -5.09455,-1.55453 -6.09728,-2.78531 -2.64557,-3.24737 -3.28454,-12.20148 -1.38363,-19.38979 1.40052,-5.29612 1.53058,-9.76136 0.93118,-31.96883 -0.81304,-30.12281 -0.7029,-40.12681 0.48719,-44.25122 0.72843,-2.52441 0.24903,-4.11409 -3.06042,-10.14806 -4.94531,-9.01656 -5.16609,-13.15755 -0.95564,-17.92391 3.31003,-3.74695 3.54768,-5.72462 1.56926,-13.05807 -1.32322,-4.90486 -1.38375,-4.96125 -5.07423,-4.73131 -2.68902,0.16758 -4.5075,-0.41321 -6.49327,-2.07398 -1.57906,-1.32063 -5.47604,-2.86176 -9.11559,-3.60487 -3.49656,-0.71393 -7.03161,-1.86519 -7.85568,-2.55846 -0.82407,-0.69328 -3.52102,-2.05968 -5.99323,-3.0364 -5.96628,-2.35712 -10.43134,-5.02836 -31.32985,-18.74321 -4.33947,-2.84783 -0.79741,-7.93834 3.81607,-5.48429 2.99698,1.59421 5.22358,0.24865 4.15757,-2.51246 -0.49503,-1.2822 -1.37868,-1.53163 -3.75354,-1.05954 -1.70835,0.3396 -3.94888,0.61744 -4.97897,0.61744 -1.17983,0 -1.87288,0.70416 -1.87288,1.90289 0,4.44505 -4.868,2.92718 -16.9178,-5.27507 -5.04835,-3.4364 -9.68909,-5.79948 -12.16083,-6.19232 -2.65272,-0.42162 -4.56599,-1.45618 -5.68861,-3.076 -3.92044,-5.6568 -5.12487,-6.40786 -9.18308,-5.72639 -3.10945,0.52214 -4.24191,0.25146 -5.91812,-1.41456 -1.14006,-1.13314 -2.91121,-2.06026 -3.93588,-2.06026 -1.02467,0 -3.0961,-0.96405 -4.60318,-2.14232 -2.86012,-2.2361 -8.55307,-5.49793 -14.51007,-8.31366 -3.20508,-1.51496 -6.58369,-3.83735 -17.37157,-11.9409 -13.60545,-10.22 -15.06247,-10.69813 -33.0714,-10.85249 -7.69131,-0.0659 -14.77081,-0.47794 -15.73222,-0.91557 -4.26724,-1.94242 -0.012,-9.83007 6.20015,-11.49265 2.95642,-0.79125 4.09726,-1.72963 4.90593,-4.03528 1.03937,-2.96346 1.12546,-2.99521 6.33596,-2.33655 6.23468,0.78813 8.05343,1.95273 7.20396,4.61293 -0.53375,1.67147 -0.29227,1.83882 1.72547,1.19577 10.32058,-3.28917 12.94655,-3.08485 18.1766,1.41423 2.45575,2.11254 5.56054,4.11427 6.89953,4.44829 2.41793,0.60318 12.3818,6.24144 15.33549,8.6779 1.09726,0.90512 1.36325,2.22214 0.92148,4.56268 -0.5624,2.97967 -0.39563,3.29029 1.76659,3.29029 1.3132,0 3.2012,0.89352 4.19556,1.98561 2.17657,2.39047 8.25969,2.66858 12.35292,0.56475 3.92836,-2.0191 5.85568,-8.13275 4.24663,-13.47069 -1.09704,-3.63935 -0.98064,-4.34593 1.37383,-8.33914 1.41484,-2.39958 2.90482,-6.30774 3.31107,-8.6848 0.92662,-5.42194 3.52697,-6.15131 7.44374,-2.0879 3.08778,3.20337 4.19921,7.90476 5.24931,22.20494 0.82881,11.28671 0.13095,15.26917 -3.2159,18.3521 -3.09896,2.85457 -2.41468,3.9826 3.44634,5.68122 5.77634,1.67406 7.35487,3.76538 4.88752,6.47521 -1.48682,1.63295 -1.57055,2.27281 -0.51688,3.94975 0.69155,1.10062 2.18309,2.20287 3.31454,2.44945 1.13146,0.24657 2.78473,0.75442 3.67395,1.12854 2.42579,1.02061 3.09501,-2.79106 0.74602,-4.24913 -2.25235,-1.39807 -2.37781,-4.6375 -0.36503,-9.42549 0.85083,-2.02396 1.4983,-6.58748 1.4983,-10.56029 0,-6.517 0.22231,-7.23452 3.24633,-10.47764 2.99327,-3.21013 3.50385,-3.40661 6.54983,-2.52044 1.81691,0.52861 4.21626,0.62549 5.33188,0.2153 1.82661,-0.6716 1.87061,-0.87595 0.44227,-2.05417 -1.77836,-1.46695 -2.11059,-4.5971 -0.58725,-5.53286 1.7409,-1.0694 1.08732,-2.28725 -1.72809,-3.22002 -2.2261,-0.73752 -3.03867,-0.52478 -4.42402,1.15828 -1.40627,1.70848 -1.92313,1.83703 -3.01654,0.75026 -1.0934,-1.08677 -0.94987,-1.61192 0.83774,-3.06494 1.49608,-1.21605 1.88343,-2.18334 1.26388,-3.15614 -1.38952,-2.18176 -1.0812,-6.49026 0.5614,-7.84522 1.62632,-1.34153 6.50563,-0.59075 6.50563,1.00101 0,0.53564 0.81423,0.9739 1.8094,0.9739 0.99516,0 2.83754,0.95205 4.09417,2.11567 1.85157,1.71452 2.14716,2.70279 1.559,5.21222 -1.15808,4.94097 -1.19228,10.57665 -0.10417,17.16695 0.96369,5.83674 0.8841,6.31105 -1.67501,9.98142 -3.31895,4.76015 -3.65303,12.34225 -0.81649,18.53008 1.02866,2.24398 2.61071,5.78889 3.51568,7.87759 1.49537,3.45135 1.90969,3.73991 4.54411,3.16481 2.54597,-0.55579 3.21214,-0.17437 5.47416,3.13429 1.41649,2.07189 2.57544,4.33351 2.57544,5.02582 0,0.69231 0.83411,1.25874 1.85357,1.25874 1.57567,0 1.97624,-1.15355 2.67184,-7.69424 1.26958,-11.93801 1.4848,-28.05719 0.44376,-33.23759 -0.71016,-3.53396 -0.55798,-6.18967 0.61564,-10.7429 0.94843,-3.67962 1.30425,-7.54714 0.90855,-9.87511 -0.643,-3.78277 0.57153,-7.62986 2.89573,-9.17234 0.60448,-0.40117 3.4244,-0.73624 6.26648,-0.7446 4.11564,-0.0121 5.79298,0.50796 8.24069,2.55506 1.81127,1.51483 3.07325,3.51944 3.07325,4.88172 0,3.63524 -3.53873,10.9101 -6.39222,13.14103 -3.47996,2.72072 -3.34917,5.77546 0.32821,7.66555 3.84897,1.9783 4.47469,4.35032 2.53445,9.60779 -2.80355,7.59682 -2.81727,7.82407 -0.59649,9.88048 2.55755,2.36826 2.59267,2.7783 0.49311,5.75764 -1.731,2.45635 -3.2281,22.36733 -2.03435,27.05642 0.73956,2.90507 9.15379,7.01201 12.55493,6.12799 2.13614,-0.55522 2.26744,-0.33481 1.94671,3.26792 l -0.34395,3.86335 6.5361,0.55924 c 3.59485,0.30767 7.07841,0.89244 7.74125,1.29958 0.8421,0.51736 1.20515,-0.18813 1.20515,-2.34182 0,-2.04955 0.92029,-3.9817 2.7469,-5.7672 2.6047,-2.5461 2.74099,-3.13587 2.63288,-11.39313 -0.0793,-6.06069 -0.5582,-9.22984 -1.5751,-10.42445 -1.84836,-2.17139 -4.80355,-12.99066 -4.80355,-17.58632 0,-2.05116 0.74951,-4.23477 1.81813,-5.2969 1.31246,-1.30449 1.6978,-2.83166 1.38546,-5.49083 -0.35376,-3.01181 0.0435,-4.12228 2.17735,-6.08795 2.07316,-1.90968 2.61003,-3.32821 2.61003,-6.89635 0,-3.73143 -0.43574,-4.77591 -2.57313,-6.16788 -2.52368,-1.64353 -2.56002,-1.83223 -1.89078,-9.81756 0.46392,-5.5355 0.30797,-8.8371 -0.48716,-10.3138 -0.98489,-1.82912 -0.74475,-2.89236 1.52129,-6.7356 3.18355,-5.39933 5.39917,-13.08572 5.41566,-18.78797 0.007,-2.41886 0.62575,-4.60425 1.51016,-5.33379 2.29765,-1.8953 1.78924,-3.68758 -1.24858,-4.40169 -1.5108,-0.35516 -5.2191,-1.93383 -8.24069,-3.50816 -4.76616,-2.48331 -9.80948,-3.71126 -16.19055,-3.94207 -0.93881,-0.034 -5.74082,-4.08261 -10.67113,-8.99699 -4.9303,-4.91439 -9.72777,-8.93525 -10.66105,-8.93525 -0.93327,0 -3.12904,-0.87977 -4.87948,-1.95502 -1.75045,-1.07527 -5.84893,-2.59735 -9.10775,-3.38239 -8.03214,-1.93496 -13.16334,-4.65467 -17.84934,-9.46081 -2.1633,-2.21876 -5.53449,-4.54448 -7.49153,-5.16828 -1.95705,-0.62379 -6.03047,-2.7862 -9.05206,-4.80536 -3.02158,-2.01914 -6.98709,-4.18432 -8.81222,-4.81149 -1.82514,-0.62716 -4.97158,-2.43137 -6.9921,-4.00934 -4.25557,-3.32352 -9.47313,-6.11953 -11.41946,-6.11953 -0.74379,0 -3.47868,-1.34028 -6.07752,-2.97841 -2.59884,-1.63813 -5.31816,-2.97842 -6.04293,-2.97842 -0.72476,0 -2.53028,-1.1169 -4.01225,-2.48201 -1.62116,-1.49332 -3.88046,-2.48202 -5.67173,-2.48202 -1.63748,0 -4.64838,-0.69744 -6.69092,-1.54988 -3.18251,-1.32821 -4.90776,-1.38238 -12.06203,-0.37867 -8.78633,1.23267 -21.67008,0.55464 -23.86523,-1.25595 -0.68672,-0.56641 -1.24859,-2.54839 -1.24859,-4.40438 0,-3.54189 -0.0984,-3.46501 7.99097,-6.24333 1.92282,-0.6604 11.36215,-1.43729 20.97628,-1.72643 16.15801,-0.48593 17.84075,-0.36995 22.2461,1.53339 2.62121,1.13252 5.03649,2.76009 5.36727,3.61684 0.33077,0.85676 2.27836,2.40807 4.32797,3.44735 4.59797,2.33146 6.00958,1.29998 6.03048,-4.40656 0.0282,-7.67954 3.28476,-10.83119 8.83209,-8.54737 3.93904,1.6217 5.44207,4.67474 6.07369,12.3372 l 0.56199,6.81788 6.9921,2.81003 c 13.37513,5.37526 14.96848,4.39847 15.02687,-9.21203 l 0.0439,-10.21218 4.64347,-0.30027 c 4.12627,-0.26682 4.84426,0.004 6.44608,2.43416 2.55646,3.87795 3.71355,21.28522 1.72871,26.00676 -1.91732,4.56093 -1.78543,6.11114 0.51992,6.11114 1.06634,0 2.19838,0.41746 2.51565,0.92768 0.31726,0.51024 3.01787,1.63302 6.00133,2.49506 2.98347,0.86206 5.69864,2.00827 6.03371,2.54713 1.15639,1.85972 4.52365,1.01271 5.43389,-1.36685 0.49369,-1.29063 1.65494,-2.63545 2.58055,-2.98848 1.34344,-0.5124 1.54839,-1.39086 1.016,-4.35483 -2.03821,-11.34749 -1.37882,-20.82094 1.7269,-24.81006 1.17539,-1.50974 6.3446,-1.64675 7.24909,-0.19214 1.52201,2.44772 2.75642,13.23117 2.89164,25.26047 0.13141,11.69163 -0.0387,13.05878 -1.80663,14.52455 -1.93347,1.60296 -1.9329,1.62401 0.0606,2.2529 1.10679,0.34915 2.52042,1.74313 3.14139,3.09774 0.62098,1.35462 1.50033,2.46293 1.95413,2.46293 0.45381,0 2.53729,1.55879 4.62997,3.46397 2.09268,1.90518 7.54004,5.29465 12.10524,7.53215 9.27315,4.54496 11.79721,6.77271 12.08796,10.66886 0.10911,1.46232 0.23492,2.99383 0.27955,3.40336 0.22175,2.03474 1.93401,0.3546 2.52947,-2.48201 1.78618,-8.50905 1.72016,-11.48678 -0.35821,-16.15676 -2.64505,-5.94327 -2.63809,-10.38805 0.0286,-18.23644 1.70261,-5.01107 1.89877,-6.71529 0.99887,-8.67834 -1.85531,-4.04725 -1.42393,-11.952 0.73466,-13.46208 3.00002,-2.0987 3.6421,-5.64872 1.39757,-7.72712 -2.9136,-2.69795 -3.78918,-29.61826 -1.80099,-55.37231 l 0.40237,-5.21223 h -3.52031 c -2.68506,0 -4.59814,-0.94298 -8.06293,-3.97429 -2.49845,-2.18586 -6.3881,-4.4457 -8.64368,-5.02187 -2.25559,-0.57615 -6.23638,-2.13844 -8.84622,-3.47174 -2.60989,-1.3333 -6.36937,-2.42418 -8.35445,-2.42418 -1.98509,0 -5.24367,-0.84735 -7.2413,-1.88301 -1.99762,-1.03565 -5.78488,-2.64301 -8.41612,-3.5719 -2.63125,-0.9289 -6.12122,-2.80719 -7.7555,-4.17399 -4.1625,-3.48125 -13.82352,-8.2416 -16.72614,-8.2416 -4.49712,0 -12.35835,-3.43364 -15.20352,-6.64062 -1.70717,-1.92426 -4.50656,-3.61712 -7.13809,-4.3166 -4.51946,-1.20131 -12.24343,-4.30584 -14.81758,-5.9557 -7.32992,-4.69802 -12.73716,-6.29298 -22.47459,-6.62927 -12.99716,-0.44888 -14.16112,-0.75668 -15.96376,-4.22144 -1.88627,-3.62548 -1.90288,-5.09189 -0.0854,-7.53941 1.12311,-1.51245 1.69523,-1.6683 2.65866,-0.72422 0.964,0.94465 1.95104,0.57159 4.59691,-1.73741 3.90374,-3.40671 10.04278,-4.03896 12.78198,-1.31638 1.29385,1.28599 2.82309,1.50042 7.34803,1.03035 6.71203,-0.69729 10.28631,0.68704 24.77486,9.59535 5.02798,3.09146 9.80497,5.62083 10.61556,5.62083 2.84962,0 4.18362,-3.0371 3.89311,-8.86339 -0.2264,-4.54049 0.13726,-6.15795 1.87945,-8.35933 1.92962,-2.43822 2.70805,-2.69791 7.29369,-2.43326 l 5.13352,0.29627 0.31188,3.75408 c 0.20864,2.51139 -0.38179,4.86963 -1.78367,7.12414 l -2.09555,3.37008 2.28311,0.32189 c 1.82099,0.25675 2.26714,0.92474 2.20422,3.30031 -0.0434,1.63813 -0.42981,4.2093 -0.85872,5.7137 -0.73485,2.57749 -0.47099,2.8755 4.5738,5.16566 2.9445,1.3367 7.22109,2.72499 9.50353,3.08508 5.55194,0.87592 6.00403,-0.17178 6.52187,-15.11425 0.25088,-7.23884 0.89189,-12.6378 1.60136,-13.48747 0.65068,-0.77925 2.90202,-1.98068 5.00301,-2.66986 3.33216,-1.09304 4.32253,-1.01692 7.75554,0.59607 3.84463,1.80639 3.93867,1.97496 4.06917,7.29448 0.0735,2.99496 0.4675,7.74307 0.87563,10.55137 0.5635,3.8775 0.35111,5.88487 -0.88274,8.34318 -2.01588,4.01638 -2.03131,5.6938 -0.0947,10.30057 1.71242,4.07351 4.80221,5.71873 8.28804,4.41315 2.92177,-1.09433 4.42306,-0.26299 7.36749,4.07972 2.06266,3.0422 3.66969,4.18973 9.78391,6.98648 0.89317,0.40853 1.62236,2.34865 1.80546,4.80364 0.3277,4.39384 1.83991,5.59614 2.37027,1.88451 0.20489,-1.4339 1.66479,-2.88727 4.07683,-4.05863 l 3.75765,-1.82482 -0.72984,-19.02409 c -0.73739,-19.2208 -0.83764,-25.29446 -0.55164,-33.41978 0.18113,-5.14613 0.5469,-28.66949 0.57117,-36.7338 0.009,-3.00323 -0.10985,-11.04496 -0.26419,-17.87049 -0.23781,-10.51696 0.0419,-13.35185 1.83336,-18.58378 2.61026,-7.62308 2.60983,-7.8615 -0.0157,-8.54393 -2.26667,-0.58915 -2.25694,-0.75504 0.47601,-8.11688 0.81084,-2.18418 1.13487,-4.41799 0.72008,-4.96403 -1.92557,-2.53488 -3.29215,-10.67647 -2.5437,-15.15448 0.80442,-4.8129 1.48871,-26.5678 1.83423,-58.31312 l 0.19451,-17.8705 -2.68515,-3.98764 c -1.47684,-2.1932 -3.63526,-4.84224 -4.79649,-5.88675 -2.71469,-2.44184 -7.73166,-12.24626 -8.58796,-16.78305 -0.55539,-2.94248 -0.24852,-3.92509 1.88946,-6.05009 1.40391,-1.39538 2.98212,-2.53706 3.50714,-2.53706 2.20996,0 11.1264,8.11744 11.73431,10.68281 1.03435,4.36494 5.24762,8.18049 9.03317,8.18049 2.33949,0 3.12985,-0.38323 2.76096,-1.33872 -0.65282,-1.69087 7.11121,-11.56775 9.09317,-11.56775 0.81129,0 1.47508,-0.68416 1.47508,-1.52036 0,-0.83621 0.69098,-1.78391 1.53552,-2.10603 1.93553,-0.73822 5.45658,2.34409 5.45658,4.77667 0,3.00753 -3.75519,9.06482 -7.62402,12.29788 -4.57239,3.821 -5.44105,7.8651 -5.84007,27.1887 -0.26071,12.62541 -0.51684,14.48825 -2.156,15.68061 -1.6629,1.20961 -1.84136,2.69071 -1.68297,13.96744 0.21345,15.19626 0.82439,22.00938 2.39878,26.75087 1.07995,3.25242 0.86979,10.32036 -0.64238,21.60447 -1.10385,8.23715 -1.20504,7.91988 2.62821,8.23974 2.9405,0.24536 3.75304,-0.11741 4.65115,-2.07661 0.59854,-1.30563 2.59116,-3.11459 4.42805,-4.0199 7.71,-3.79984 10.83134,-9.28369 10.83134,-19.02942 0,-5.16423 1.52293,-7.43754 4.9825,-7.43754 1.60296,0 4.11215,-0.54239 5.57599,-1.20531 2.36484,-1.07096 2.87111,-0.94803 4.54191,1.10279 2.30795,2.83289 2.43211,8.27072 0.26394,11.55968 -1.34498,2.04024 -1.39654,2.71543 -0.30695,4.02032 1.9743,2.36445 9.02079,0.95136 17.90535,-3.5907 18.94049,-9.68299 20.60188,-10.22018 28.90503,-9.34598 4.15457,0.43741 9.74583,0.69683 12.42502,0.57649 6.2115,-0.27902 8.61349,1.65678 8.61349,6.94174 0,5.58869 -2.18476,6.53959 -16.23139,7.06459 -8.73095,0.32632 -12.18418,0.83473 -13.48476,1.98531 -0.96155,0.85065 -3.99574,2.24084 -6.74263,3.0893 -9.19805,2.84109 -23.87939,8.66874 -34.28671,13.60985 -5.6726,2.6932 -11.51599,5.17261 -12.98532,5.5098 -6.8336,1.56825 -11.94343,3.68569 -15.07459,6.24671 -2.94169,2.40603 -3.54358,3.6681 -4.35663,9.13514 -0.97989,6.58897 -1.16103,9.88966 -0.86576,15.77506 0.40049,7.98244 -0.91444,42.64961 -1.82638,48.15106 -1.81295,10.93696 -1.31676,53.23557 0.63099,53.78992 0.46265,0.13167 1.74017,-1.64166 2.83892,-3.94074 1.67061,-3.49561 2.53252,-4.23131 5.26346,-4.49268 6.33127,-0.60592 9.10223,-8.59307 9.19125,-26.4932 0.0619,-12.45595 1.55634,-20.02452 4.29253,-21.73998 2.24486,-1.40742 6.53567,0.76595 7.7429,3.92191 1.19325,3.11945 1.15531,12.90895 -0.0787,20.30008 -2.0651,12.36919 -2.28701,16.87893 -0.82927,16.85342 4.67332,-0.0817 10.96283,-2.60376 16.14013,-6.47197 3.25709,-2.43354 6.49665,-4.42461 7.19902,-4.42461 2.85727,0 3.89508,-3.09202 3.66183,-10.90996 -0.12759,-4.27684 0.28959,-10.75301 0.92708,-14.3915 1.35172,-7.71501 3.22305,-9.25228 9.59189,-7.87962 2.10221,0.45309 4.84071,0.71458 6.08555,0.58109 3.40687,-0.36531 3.79505,2.35868 0.83447,5.85576 -1.84982,2.18504 -2.56434,4.11985 -2.4802,6.7161 0.22867,7.0562 1.19615,9.41285 4.19088,10.20842 1.54592,0.41067 3.49051,1.30741 4.32134,1.99274 1.88429,1.55433 3.31776,-0.27095 3.34076,-4.25393 0.0202,-3.49423 5.51468,-6.91342 12.65791,-7.87689 2.9123,-0.39281 6.44937,-1.61664 7.86015,-2.71963 1.41079,-1.10298 3.85939,-2.28798 5.44133,-2.63332 1.58194,-0.34535 3.58461,-1.70243 4.45038,-3.01573 1.55686,-2.36164 1.72471,-2.38391 15.30623,-2.03077 20.39533,0.53031 23.22137,1.39307 23.22137,7.08928 0,1.81206 -0.56186,3.64751 -1.24858,4.07877 -0.68673,0.43125 -6.55693,1.29049 -13.04491,1.90942 -11.68577,1.11478 -11.86069,1.16904 -18.6656,5.79041 -3.77811,2.56579 -8.55575,5.1279 -10.61697,5.69358 -3.78595,1.039 -9.89151,3.86342 -20.8511,9.64569 -3.60079,1.89977 -6.83442,2.95783 -8.10049,2.65052 -1.32066,-0.32056 -2.7592,0.20453 -3.85377,1.40666 -0.96057,1.05497 -4.73197,2.87295 -8.38087,4.03994 -3.64891,1.16699 -7.30862,2.69427 -8.13269,3.39395 -3.16651,2.68856 -18.81981,10.35205 -22.55262,11.04124 -5.71129,1.05447 -11.83312,3.86761 -17.07705,7.84733 -2.53435,1.92338 -5.49226,3.49705 -6.57312,3.49705 -1.69051,0 -11.01917,6.73266 -12.85793,9.2798 -1.19394,1.65391 -3.11266,15.33852 -2.32763,16.60101 0.43369,0.69746 0.68436,12.69503 0.55703,26.66126 -0.12731,13.96624 -0.28378,31.20106 -0.34769,38.29962 -0.17683,19.6411 1.47514,35.24459 3.73139,35.24459 0.69696,0 1.91112,0.96392 2.69815,2.14205 1.01306,1.5165 2.39124,2.11491 4.71933,2.04911 4.54436,-0.12842 4.83008,-0.79244 1.61521,-3.75381 -2.50351,-2.30607 -2.71778,-3.01205 -2.15431,-7.09806 0.34414,-2.4955 0.6257,-5.74685 0.6257,-7.22522 0,-1.47836 0.89899,-3.71818 1.99774,-4.97737 1.44856,-1.66006 1.99775,-3.71444 1.99775,-7.47312 0,-2.85104 0.67423,-7.08309 1.4983,-9.40457 0.82407,-2.32148 1.52195,-6.5102 1.55086,-9.30827 0.0289,-2.79808 0.61385,-8.21474 1.29988,-12.03704 0.68604,-3.82231 0.96253,-8.06655 0.61444,-9.43166 -0.34811,-1.3651 -0.43548,-3.04046 -0.19416,-3.72302 0.61333,-1.73475 4.16259,-1.55343 4.85816,0.24821 0.31624,0.81906 1.2011,1.4892 1.9664,1.4892 0.98723,0 0.81111,0.5768 -0.60631,1.98561 -2.64257,2.62653 -2.53004,3.60291 0.85705,7.43717 3.60686,4.08304 5.65239,15.2144 5.59741,30.46006 -0.0342,9.46701 0.13414,10.5034 1.58046,9.73405 0.89027,-0.47356 2.1986,-1.55556 2.9074,-2.40442 0.70881,-0.84888 2.49809,-1.54342 3.97617,-1.54342 1.69171,0 3.76848,-1.12152 5.60516,-3.02696 2.60446,-2.70196 3.45573,-2.99511 7.92813,-2.73022 4.51985,0.2677 5.04119,0.0815 5.32496,-1.90197 0.23535,-1.6451 -0.31234,-2.35511 -2.17518,-2.81981 -1.36936,-0.34161 -2.71065,-1.19323 -2.98062,-1.89252 -0.43759,-1.13341 0.47674,-9.67016 1.91815,-17.90908 0.28659,-1.63813 0.61204,-5.95673 0.72321,-9.59689 0.11118,-3.64016 0.42688,-6.78872 0.70157,-6.99681 1.39315,-1.05538 6.31381,-2.76601 7.9565,-2.76601 2.96657,0 6.25755,6.22081 5.91511,11.18109 -0.15976,2.31407 0.30067,7.50738 1.02316,11.5407 0.7225,4.03332 1.07246,9.12056 0.77767,11.30497 -0.6861,5.08423 0.6618,8.66387 3.26235,8.66387 1.37428,0 2.19175,-0.85739 2.60309,-2.73021 1.89516,-8.62855 4.15609,-10.63692 10.85119,-9.63902 6.51228,0.97065 11.90918,-3.13054 9.64735,-7.33117 -0.49934,-0.92733 -1.05958,-5.84536 -1.24501,-10.92896 -0.30213,-8.28306 -0.13196,-9.39203 1.63876,-10.67895 2.49826,-1.81569 10.14776,-0.89443 13.00716,1.56648 1.09876,0.94564 2.77096,1.99017 3.716,2.32118 2.58482,0.90535 3.12144,4.87342 1.35744,10.0376 -2.40335,7.03593 -2.15691,8.22566 1.66894,8.05699 3.20796,-0.14142 3.91074,-0.67328 15.73221,-11.90593 4.74917,-4.51261 7.76275,-5.98192 12.48589,-6.08765 2.19751,-0.0492 6.24294,-0.57113 8.98983,-1.15985 6.29931,-1.35006 22.22519,-0.47367 25.22149,1.38793 1.70152,1.05716 2.24746,2.32964 2.24746,5.23845 0,4.22934 -1.04016,5.04737 -6.41799,5.04737 -1.79188,0 -5.87091,0.89352 -9.06451,1.98561 -3.1936,1.09208 -8.09743,1.98561 -10.89743,1.98561 -4.21562,0 -5.93631,0.59742 -10.00815,3.47482 -3.93008,2.77721 -5.85356,3.47482 -9.58098,3.47482 -3.45977,0 -5.15069,0.53481 -6.55005,2.0717 -2.47817,2.72172 -9.60748,7.47581 -12.56346,8.37778 -1.28766,0.39291 -2.7907,1.05911 -3.34008,1.48042 -0.54938,0.42132 -5.0443,1.76137 -9.98871,2.9779 -4.94441,1.21653 -9.98538,2.82757 -11.20215,3.58009 -1.21678,0.75252 -2.63538,1.36821 -3.15247,1.36821 -0.51707,0 -6.67488,2.73041 -13.68401,6.06756 -11.0644,5.26795 -13.31099,6.00403 -17.04728,5.58546 -3.57952,-0.40102 -4.40336,-0.16914 -4.89755,1.37848 -0.57292,1.79417 -1.59238,2.26845 -4.17396,1.94185 -0.6695,-0.0847 -1.78898,0.75588 -2.48773,1.86797 -0.75114,1.19547 -2.33661,2.02199 -3.87866,2.02199 -1.50906,0 -3.87246,1.20086 -5.60826,2.84961 -1.69122,1.60641 -6.00467,3.82667 -9.88713,5.08919 -3.78789,1.23176 -7.81502,3.07678 -8.94919,4.10002 -1.13414,1.02325 -2.98944,1.86045 -4.12287,1.86045 -1.13342,0 -2.64761,0.7028 -3.36485,1.56177 -0.71724,0.85898 -3.01316,2.42839 -5.10205,3.48759 -5.06707,2.56933 -6.43857,4.99064 -7.76679,13.71177 -0.61515,4.03913 -1.37694,7.75955 -1.69284,8.2676 -1.20844,1.94342 -1.42642,87.56697 -0.25415,99.82743 0.6409,6.70292 1.44541,12.35921 1.7878,12.56954 0.3424,0.21032 2.06061,-0.21859 3.81827,-0.95314 5.38076,-2.2487 5.88374,-4.90511 6.68102,-35.2844 0.73058,-27.83733 1.41019,-34.30407 3.76569,-35.83161 2.61772,-1.69759 6.21851,-0.38928 8.62183,3.13263 2.15077,3.15183 2.31413,4.16695 1.75744,10.92086 -1.46294,17.74915 -2.44763,41.28473 -1.89494,45.29254 0.54404,3.94507 0.85577,4.34773 3.3659,4.34773 1.67057,0 4.34023,-1.30697 6.73977,-3.29955 2.18539,-1.81476 6.8352,-4.29145 10.33293,-5.50377 12.19383,-4.22642 12.85216,-4.66626 12.85216,-8.5866 0,-1.93752 -0.6902,-5.16463 -1.53379,-7.17135 -1.18679,-2.82313 -1.28755,-4.23943 -0.44539,-6.26022 0.59861,-1.4364 0.98549,-3.01922 0.85973,-3.51737 -0.12575,-0.49815 0.13097,-3.95788 0.57051,-7.68829 0.58425,-4.95866 0.451,-7.42915 -0.49555,-9.18704 -1.0274,-1.90805 -1.05322,-3.44423 -0.1251,-7.44065 0.64327,-2.76991 1.16959,-6.30585 1.16959,-7.85766 0,-4.92488 0.89549,-5.96229 5.14662,-5.96229 2.84503,0 4.61271,0.67456 6.38579,2.43689 2.43034,2.41557 2.45178,2.60109 2.45178,21.22121 0,24.92231 0.77606,28.18512 5.47611,23.02317 0.98464,-1.08141 3.41414,-2.26842 5.39889,-2.63781 1.98474,-0.36939 5.06947,-1.27764 6.85496,-2.01835 2.80697,-1.16447 3.24633,-1.8285 3.24633,-4.90639 0,-1.95781 0.74015,-5.10993 1.64478,-7.00472 1.29169,-2.70551 1.42553,-4.15507 0.62347,-6.75255 -0.69529,-2.2517 -0.6958,-5.00284 -0.002,-8.61864 1.7535,-9.13326 3.86828,-9.93351 9.90694,-3.74886 5.23782,5.36443 6.90662,10.32096 6.36435,18.9029 l -0.43161,6.83695 h 3.39778 c 2.33163,0 3.72074,-0.59983 4.42709,-1.91163 0.56613,-1.0514 3.25681,-3.34623 5.97929,-5.09962 5.44992,-3.50999 7.72234,-7.25146 8.69703,-14.31938 0.35013,-2.53905 1.61367,-6.03825 2.80784,-7.77599 2.01462,-2.93167 2.52557,-3.13629 7.08416,-2.83687 5.02378,0.32998 6.71763,1.5065 5.96753,4.14494 -1.65584,5.82435 -1.68387,8.9384 -0.0859,9.54787 1.80332,0.68779 8.61246,-1.93357 12.4183,-4.78077 1.30577,-0.97687 6.68209,-3.1477 11.94736,-4.82408 9.23421,-2.94001 10.22171,-3.04876 27.88493,-3.07061 18.80348,-0.0232 21.25413,0.4385 21.19501,3.99375 -0.0148,0.88872 -1.33838,3.17952 -2.94132,5.09067 -2.73961,3.26637 -3.01686,3.3742 -4.62159,1.79754 -1.60372,-1.57566 -1.81711,-1.53834 -3.5219,0.61579 -1.6162,2.04219 -2.70716,2.30455 -9.9716,2.39802 -9.13755,0.11757 -11.32719,0.60229 -14.76106,3.26766 -1.31021,1.01697 -3.34528,1.84904 -4.5224,1.84904 -1.17712,0 -3.02685,0.60658 -4.11049,1.34795 -1.08366,0.74136 -3.76825,1.92028 -5.96577,2.61982 -2.19751,0.69953 -5.11921,2.03959 -6.49266,2.97791 -1.37344,0.93831 -6.5426,2.94354 -11.48701,4.45606 -4.94441,1.51252 -12.38284,4.44 -16.52985,6.50552 -4.14701,2.06553 -11.33888,5.16081 -15.98194,6.87844 -4.64305,1.71762 -10.01513,3.8309 -11.93796,4.69617 -1.92283,0.86528 -9.56419,3.68609 -16.9808,6.26849 -7.41662,2.5824 -16.85595,6.03718 -20.97629,7.67729 -4.12034,1.64013 -9.61544,3.48086 -12.21133,4.09051 -2.59588,0.60966 -7.58382,2.45345 -11.0843,4.09731 -3.50049,1.64386 -7.53933,2.98883 -8.9752,2.98883 -2.16655,0 -21.8076,9.3058 -25.16424,11.92264 -0.54938,0.4283 -2.89685,1.3387 -5.2166,2.02304 -2.31975,0.68444 -5.12907,2.08827 -6.24294,3.11969 -2.22577,2.06097 -2.25645,2.48321 -2.53135,34.83278 -0.0778,9.15942 -0.55766,17.06126 -1.06629,17.55955 -0.50861,0.49838 -2.91254,1.04602 -5.34204,1.21698 -2.4295,0.17106 -4.56941,0.7721 -4.75535,1.33572 -0.18595,0.56361 2.13895,2.51686 5.16643,4.34054 3.47511,2.09343 5.50451,3.99038 5.50451,5.14532 0,1.0063 0.86854,2.29159 1.9301,2.8562 3.09408,1.64587 3.45059,4.64077 1.01811,8.55272 l -2.19038,3.52257 2.13284,1.97499 c 2.09881,1.94341 2.12861,2.45302 1.86853,31.95513 l -0.26428,29.98024 -5.71822,0.29695 -5.71823,0.29704 -1.12181,4.17058 c -1.87719,6.97893 -2.66527,7.32899 -12.82305,5.69592 z m -83.9583,-202.65652 c 1.38714,-3.32854 0.33928,-5.33795 -2.26554,-4.34446 -1.49743,0.57113 -2.75794,5.94452 -1.95566,8.33673 0.56174,1.67499 2.70361,-0.35073 4.2212,-3.99227 z m 182.00746,-319.25989 c -1.9743,-0.79182 -1.45439,-3.11498 0.86054,-3.84525 1.31768,-0.41568 2.67391,-0.10398 3.61423,0.83063 2.59881,2.58302 -0.44238,4.63184 -4.47477,3.01462 z"
           style="fill:#cccccc;fill-opacity:1" />
      </g>
    </g>
    <g
       id="g4189-7-6-0"
       transform="matrix(0.16470588,0,0,0.16470588,85.997105,1054.4109)"
       clip-path="url(#clipPath4201-3-3-0)">
      <g
         id="g4586"
         style="fill:#2a4817;fill-opacity:1">
        <path
           inkscape:connector-curvature="0"
           id="path4187"
           style="font-style:normal;font-variant:normal;font-weight:300;font-stretch:normal;font-size:73.23943329px;line-height:125%;font-family:'Dharma Gothic E';-inkscape-font-specification:'Dharma Gothic E Light';letter-spacing:0px;word-spacing:0px;fill:#2a4817;fill-opacity:1;stroke:none;stroke-width:1px;stroke-linecap:butt;stroke-linejoin:miter;stroke-opacity:1"
           d="m 40.452518,1160.9901 h 4.833802 v -20.0676 h 6.005634 c 6.225352,0 7.909859,-1.9775 7.909859,-8.7887 v -13.6958 c 0,-6.738 -1.684507,-8.7155 -7.909859,-8.7155 H 40.452518 Z m 4.833802,-24.5352 v -22.2648 h 5.2 c 3.515493,0 3.88169,1.2451 3.88169,5.2 v 11.8648 c 0,3.8817 -0.366197,5.2 -3.88169,5.2 z"
           transform="matrix(6.0714287,0,0,6.0714287,-521.36636,-6401.0218)" />
        <path
           inkscape:connector-curvature="0"
           id="path4189"
           style="font-style:normal;font-variant:normal;font-weight:300;font-stretch:normal;font-size:73.23943329px;line-height:125%;font-family:'Dharma Gothic E';-inkscape-font-specification:'Dharma Gothic E Light';letter-spacing:0px;word-spacing:0px;fill:#2a4817;fill-opacity:1;stroke:none;stroke-width:1px;stroke-linecap:butt;stroke-linejoin:miter;stroke-opacity:1"
           d="m 68.745825,1114.1901 h 9.887324 v -4.4676 H 63.912023 v 51.2676 h 14.721126 v -4.4676 h -9.887324 v -20.2141 h 8.422535 v -4.3943 h -8.422535 z"
           transform="matrix(6.0714287,0,0,6.0714287,-521.36636,-6401.0218)" />
        <path
           inkscape:connector-curvature="0"
           id="path4191"
           style="font-style:normal;font-variant:normal;font-weight:300;font-stretch:normal;font-size:73.23943329px;line-height:125%;font-family:'Dharma Gothic E';-inkscape-font-specification:'Dharma Gothic E Light';letter-spacing:0px;word-spacing:0px;fill:#2a4817;fill-opacity:1;stroke:none;stroke-width:1px;stroke-linecap:butt;stroke-linejoin:miter;stroke-opacity:1"
           d="m 102.84107,1143.2662 c 0,-5.0536 -0.95211,-7.3972 -4.101408,-8.2761 3.149298,-0.8789 4.101408,-3.2225 4.101408,-8.276 v -8.2761 c 0,-6.738 -1.68451,-8.7155 -7.983098,-8.7155 H 83.5791 v 51.2676 h 4.833802 v -23.8028 h 5.273239 c 3.661972,0 4.321127,1.6845 4.321127,5.7127 v 10.107 c 0,3.2225 0,6.2986 0.659155,7.9831 h 5.126757 c -0.73239,-2.5634 -0.95211,-5.7127 -0.95211,-9.0084 z m -4.833802,-15.7465 c 0,3.8817 -0.366197,5.2 -3.88169,5.2 h -5.712676 v -18.5296 h 5.712676 c 3.588732,0 3.88169,1.2451 3.88169,5.2 z"
           transform="matrix(6.0714287,0,0,6.0714287,-521.36636,-6401.0218)" />
        <path
           inkscape:connector-curvature="0"
           id="path4193"
           style="font-style:normal;font-variant:normal;font-weight:300;font-stretch:normal;font-size:73.23943329px;line-height:125%;font-family:'Dharma Gothic E';-inkscape-font-specification:'Dharma Gothic E Light';letter-spacing:0px;word-spacing:0px;fill:#2a4817;fill-opacity:1;stroke:none;stroke-width:1px;stroke-linecap:butt;stroke-linejoin:miter;stroke-opacity:1"
           d="m 116.5151,1160.9901 v -46.8 h 5.63944 v -4.4676 h -16.18592 v 4.4676 h 5.71268 v 46.8 z"
           transform="matrix(6.0714287,0,0,6.0714287,-521.36636,-6401.0218)" />
        <path
           inkscape:connector-curvature="0"
           id="path4195"
           style="font-style:normal;font-variant:normal;font-weight:300;font-stretch:normal;font-size:73.23943329px;line-height:125%;font-family:'Dharma Gothic E';-inkscape-font-specification:'Dharma Gothic E Light';letter-spacing:0px;word-spacing:0px;fill:#2a4817;fill-opacity:1;stroke:none;stroke-width:1px;stroke-linecap:butt;stroke-linejoin:miter;stroke-opacity:1"
           d="m 130.82769,1160.9901 v -24.6817 h 9.59436 v 24.6817 h 4.83381 v -51.2676 h -4.83381 v 22.1916 h -9.59436 v -22.1916 h -4.83381 v 51.2676 z"
           transform="matrix(6.0714287,0,0,6.0714287,-521.36636,-6401.0218)" />
        <path
           sodipodi:nodetypes="scsssscscsssssssssssssssssssssssssssssssssssssssssssssssssssssssssssssssssssssssssssssssssssssscccsssssssssssssssssssssssssssssssssssssssssssscsscscsscssssssssssssssssssssssscsssssssssssssssssssssssscsscscssssssscssssssssscsscssssssscssssssssssssssssssssssssssssssssssssssssssssssscsssssssssssssssssssssssssssssssssssssssssscsscssssssssssssssssssssssscssssssscssssssssssssssssscsssssssssssssssssssssssssssssssssssssscsccssssssssssssssssssssssssssssssscssccccscsccscccssssssssss"
           inkscape:connector-curvature="0"
           id="path4172-0-2-5"
           d="m -622.58479,855.69013 c -2.61015,-0.41966 -5.09455,-1.55453 -6.09728,-2.78531 -2.64557,-3.24737 -3.28454,-12.20148 -1.38363,-19.38979 1.40052,-5.29612 1.53058,-9.76136 0.93118,-31.96883 -0.81304,-30.12281 -0.7029,-40.12681 0.48719,-44.25122 0.72843,-2.52441 0.24903,-4.11409 -3.06042,-10.14806 -4.94531,-9.01656 -5.16609,-13.15755 -0.95564,-17.92391 3.31003,-3.74695 3.54768,-5.72462 1.56926,-13.05807 -1.32322,-4.90486 -1.38375,-4.96125 -5.07423,-4.73131 -2.68902,0.16758 -4.5075,-0.41321 -6.49327,-2.07398 -1.57906,-1.32063 -5.47604,-2.86176 -9.11559,-3.60487 -3.49656,-0.71393 -7.03161,-1.86519 -7.85568,-2.55846 -0.82407,-0.69328 -3.52102,-2.05968 -5.99323,-3.0364 -5.96628,-2.35712 -10.43134,-5.02836 -31.32985,-18.74321 -4.33947,-2.84783 -0.79741,-7.93834 3.81607,-5.48429 2.99698,1.59421 5.22358,0.24865 4.15757,-2.51246 -0.49503,-1.2822 -1.37868,-1.53163 -3.75354,-1.05954 -1.70835,0.3396 -3.94888,0.61744 -4.97897,0.61744 -1.17983,0 -1.87288,0.70416 -1.87288,1.90289 0,4.44505 -4.868,2.92718 -16.9178,-5.27507 -5.04835,-3.4364 -9.68909,-5.79948 -12.16083,-6.19232 -2.65272,-0.42162 -4.56599,-1.45618 -5.68861,-3.076 -3.92044,-5.6568 -5.12487,-6.40786 -9.18308,-5.72639 -3.10945,0.52214 -4.24191,0.25146 -5.91812,-1.41456 -1.14006,-1.13314 -2.91121,-2.06026 -3.93588,-2.06026 -1.02467,0 -3.0961,-0.96405 -4.60318,-2.14232 -2.86012,-2.2361 -8.55307,-5.49793 -14.51007,-8.31366 -3.20508,-1.51496 -6.58369,-3.83735 -17.37157,-11.9409 -13.60545,-10.22 -15.06247,-10.69813 -33.0714,-10.85249 -7.69131,-0.0659 -14.77081,-0.47794 -15.73222,-0.91557 -4.26724,-1.94242 -0.012,-9.83007 6.20015,-11.49265 2.95642,-0.79125 4.09726,-1.72963 4.90593,-4.03528 1.03937,-2.96346 1.12546,-2.99521 6.33596,-2.33655 6.23468,0.78813 8.05343,1.95273 7.20396,4.61293 -0.53375,1.67147 -0.29227,1.83882 1.72547,1.19577 10.32058,-3.28917 12.94655,-3.08485 18.1766,1.41423 2.45575,2.11254 5.56054,4.11427 6.89953,4.44829 2.41793,0.60318 12.3818,6.24144 15.33549,8.6779 1.09726,0.90512 1.36325,2.22214 0.92148,4.56268 -0.5624,2.97967 -0.39563,3.29029 1.76659,3.29029 1.3132,0 3.2012,0.89352 4.19556,1.98561 2.17657,2.39047 8.25969,2.66858 12.35292,0.56475 3.92836,-2.0191 5.85568,-8.13275 4.24663,-13.47069 -1.09704,-3.63935 -0.98064,-4.34593 1.37383,-8.33914 1.41484,-2.39958 2.90482,-6.30774 3.31107,-8.6848 0.92662,-5.42194 3.52697,-6.15131 7.44374,-2.0879 3.08778,3.20337 4.19921,7.90476 5.24931,22.20494 0.82881,11.28671 0.13095,15.26917 -3.2159,18.3521 -3.09896,2.85457 -2.41468,3.9826 3.44634,5.68122 5.77634,1.67406 7.35487,3.76538 4.88752,6.47521 -1.48682,1.63295 -1.57055,2.27281 -0.51688,3.94975 0.69155,1.10062 2.18309,2.20287 3.31454,2.44945 1.13146,0.24657 2.78473,0.75442 3.67395,1.12854 2.42579,1.02061 3.09501,-2.79106 0.74602,-4.24913 -2.25235,-1.39807 -2.37781,-4.6375 -0.36503,-9.42549 0.85083,-2.02396 1.4983,-6.58748 1.4983,-10.56029 0,-6.517 0.22231,-7.23452 3.24633,-10.47764 2.99327,-3.21013 3.50385,-3.40661 6.54983,-2.52044 1.81691,0.52861 4.21626,0.62549 5.33188,0.2153 1.82661,-0.6716 1.87061,-0.87595 0.44227,-2.05417 -1.77836,-1.46695 -2.11059,-4.5971 -0.58725,-5.53286 1.7409,-1.0694 1.08732,-2.28725 -1.72809,-3.22002 -2.2261,-0.73752 -3.03867,-0.52478 -4.42402,1.15828 -1.40627,1.70848 -1.92313,1.83703 -3.01654,0.75026 -1.0934,-1.08677 -0.94987,-1.61192 0.83774,-3.06494 1.49608,-1.21605 1.88343,-2.18334 1.26388,-3.15614 -1.38952,-2.18176 -1.0812,-6.49026 0.5614,-7.84522 1.62632,-1.34153 6.50563,-0.59075 6.50563,1.00101 0,0.53564 0.81423,0.9739 1.8094,0.9739 0.99516,0 2.83754,0.95205 4.09417,2.11567 1.85157,1.71452 2.14716,2.70279 1.559,5.21222 -1.15808,4.94097 -1.19228,10.57665 -0.10417,17.16695 0.96369,5.83674 0.8841,6.31105 -1.67501,9.98142 -3.31895,4.76015 -3.65303,12.34225 -0.81649,18.53008 1.02866,2.24398 2.61071,5.78889 3.51568,7.87759 1.49537,3.45135 1.90969,3.73991 4.54411,3.16481 2.54597,-0.55579 3.21214,-0.17437 5.47416,3.13429 1.41649,2.07189 2.57544,4.33351 2.57544,5.02582 0,0.69231 0.83411,1.25874 1.85357,1.25874 1.57567,0 1.97624,-1.15355 2.67184,-7.69424 1.26958,-11.93801 1.4848,-28.05719 0.44376,-33.23759 -0.71016,-3.53396 -0.55798,-6.18967 0.61564,-10.7429 0.94843,-3.67962 1.30425,-7.54714 0.90855,-9.87511 -0.643,-3.78277 0.57153,-7.62986 2.89573,-9.17234 0.60448,-0.40117 3.4244,-0.73624 6.26648,-0.7446 4.11564,-0.0121 5.79298,0.50796 8.24069,2.55506 1.81127,1.51483 3.07325,3.51944 3.07325,4.88172 0,3.63524 -3.53873,10.9101 -6.39222,13.14103 -3.47996,2.72072 -3.34917,5.77546 0.32821,7.66555 3.84897,1.9783 4.47469,4.35032 2.53445,9.60779 -2.80355,7.59682 -2.81727,7.82407 -0.59649,9.88048 2.55755,2.36826 2.59267,2.7783 0.49311,5.75764 -1.731,2.45635 -3.2281,22.36733 -2.03435,27.05642 0.73956,2.90507 9.15379,7.01201 12.55493,6.12799 2.13614,-0.55522 2.26744,-0.33481 1.94671,3.26792 l -0.34395,3.86335 6.5361,0.55924 c 3.59485,0.30767 7.07841,0.89244 7.74125,1.29958 0.8421,0.51736 1.20515,-0.18813 1.20515,-2.34182 0,-2.04955 0.92029,-3.9817 2.7469,-5.7672 2.6047,-2.5461 2.74099,-3.13587 2.63288,-11.39313 -0.0793,-6.06069 -0.5582,-9.22984 -1.5751,-10.42445 -1.84836,-2.17139 -4.80355,-12.99066 -4.80355,-17.58632 0,-2.05116 0.74951,-4.23477 1.81813,-5.2969 1.31246,-1.30449 1.6978,-2.83166 1.38546,-5.49083 -0.35376,-3.01181 0.0435,-4.12228 2.17735,-6.08795 2.07316,-1.90968 2.61003,-3.32821 2.61003,-6.89635 0,-3.73143 -0.43574,-4.77591 -2.57313,-6.16788 -2.52368,-1.64353 -2.56002,-1.83223 -1.89078,-9.81756 0.46392,-5.5355 0.30797,-8.8371 -0.48716,-10.3138 -0.98489,-1.82912 -0.74475,-2.89236 1.52129,-6.7356 3.18355,-5.39933 5.39917,-13.08572 5.41566,-18.78797 0.007,-2.41886 0.62575,-4.60425 1.51016,-5.33379 2.29765,-1.8953 1.78924,-3.68758 -1.24858,-4.40169 -1.5108,-0.35516 -5.2191,-1.93383 -8.24069,-3.50816 -4.76616,-2.48331 -9.80948,-3.71126 -16.19055,-3.94207 -0.93881,-0.034 -5.74082,-4.08261 -10.67113,-8.99699 -4.9303,-4.91439 -9.72777,-8.93525 -10.66105,-8.93525 -0.93327,0 -3.12904,-0.87977 -4.87948,-1.95502 -1.75045,-1.07527 -5.84893,-2.59735 -9.10775,-3.38239 -8.03214,-1.93496 -13.16334,-4.65467 -17.84934,-9.46081 -2.1633,-2.21876 -5.53449,-4.54448 -7.49153,-5.16828 -1.95705,-0.62379 -6.03047,-2.7862 -9.05206,-4.80536 -3.02158,-2.01914 -6.98709,-4.18432 -8.81222,-4.81149 -1.82514,-0.62716 -4.97158,-2.43137 -6.9921,-4.00934 -4.25557,-3.32352 -9.47313,-6.11953 -11.41946,-6.11953 -0.74379,0 -3.47868,-1.34028 -6.07752,-2.97841 -2.59884,-1.63813 -5.31816,-2.97842 -6.04293,-2.97842 -0.72476,0 -2.53028,-1.1169 -4.01225,-2.48201 -1.62116,-1.49332 -3.88046,-2.48202 -5.67173,-2.48202 -1.63748,0 -4.64838,-0.69744 -6.69092,-1.54988 -3.18251,-1.32821 -4.90776,-1.38238 -12.06203,-0.37867 -8.78633,1.23267 -21.67008,0.55464 -23.86523,-1.25595 -0.68672,-0.56641 -1.24859,-2.54839 -1.24859,-4.40438 0,-3.54189 -0.0984,-3.46501 7.99097,-6.24333 1.92282,-0.6604 11.36215,-1.43729 20.97628,-1.72643 16.15801,-0.48593 17.84075,-0.36995 22.2461,1.53339 2.62121,1.13252 5.03649,2.76009 5.36727,3.61684 0.33077,0.85676 2.27836,2.40807 4.32797,3.44735 4.59797,2.33146 6.00958,1.29998 6.03048,-4.40656 0.0282,-7.67954 3.28476,-10.83119 8.83209,-8.54737 3.93904,1.6217 5.44207,4.67474 6.07369,12.3372 l 0.56199,6.81788 6.9921,2.81003 c 13.37513,5.37526 14.96848,4.39847 15.02687,-9.21203 l 0.0439,-10.21218 4.64347,-0.30027 c 4.12627,-0.26682 4.84426,0.004 6.44608,2.43416 2.55646,3.87795 3.71355,21.28522 1.72871,26.00676 -1.91732,4.56093 -1.78543,6.11114 0.51992,6.11114 1.06634,0 2.19838,0.41746 2.51565,0.92768 0.31726,0.51024 3.01787,1.63302 6.00133,2.49506 2.98347,0.86206 5.69864,2.00827 6.03371,2.54713 1.15639,1.85972 4.52365,1.01271 5.43389,-1.36685 0.49369,-1.29063 1.65494,-2.63545 2.58055,-2.98848 1.34344,-0.5124 1.54839,-1.39086 1.016,-4.35483 -2.03821,-11.34749 -1.37882,-20.82094 1.7269,-24.81006 1.17539,-1.50974 6.3446,-1.64675 7.24909,-0.19214 1.52201,2.44772 2.75642,13.23117 2.89164,25.26047 0.13141,11.69163 -0.0387,13.05878 -1.80663,14.52455 -1.93347,1.60296 -1.9329,1.62401 0.0606,2.2529 1.10679,0.34915 2.52042,1.74313 3.14139,3.09774 0.62098,1.35462 1.50033,2.46293 1.95413,2.46293 0.45381,0 2.53729,1.55879 4.62997,3.46397 2.09268,1.90518 7.54004,5.29465 12.10524,7.53215 9.27315,4.54496 11.79721,6.77271 12.08796,10.66886 0.10911,1.46232 0.23492,2.99383 0.27955,3.40336 0.22175,2.03474 1.93401,0.3546 2.52947,-2.48201 1.78618,-8.50905 1.72016,-11.48678 -0.35821,-16.15676 -2.64505,-5.94327 -2.63809,-10.38805 0.0286,-18.23644 1.70261,-5.01107 1.89877,-6.71529 0.99887,-8.67834 -1.85531,-4.04725 -1.42393,-11.952 0.73466,-13.46208 3.00002,-2.0987 3.6421,-5.64872 1.39757,-7.72712 -2.9136,-2.69795 -3.78918,-29.61826 -1.80099,-55.37231 l 0.40237,-5.21223 h -3.52031 c -2.68506,0 -4.59814,-0.94298 -8.06293,-3.97429 -2.49845,-2.18586 -6.3881,-4.4457 -8.64368,-5.02187 -2.25559,-0.57615 -6.23638,-2.13844 -8.84622,-3.47174 -2.60989,-1.3333 -6.36937,-2.42418 -8.35445,-2.42418 -1.98509,0 -5.24367,-0.84735 -7.2413,-1.88301 -1.99762,-1.03565 -5.78488,-2.64301 -8.41612,-3.5719 -2.63125,-0.9289 -6.12122,-2.80719 -7.7555,-4.17399 -4.1625,-3.48125 -13.82352,-8.2416 -16.72614,-8.2416 -4.49712,0 -12.35835,-3.43364 -15.20352,-6.64062 -1.70717,-1.92426 -4.50656,-3.61712 -7.13809,-4.3166 -4.51946,-1.20131 -12.24343,-4.30584 -14.81758,-5.9557 -7.32992,-4.69802 -12.73716,-6.29298 -22.47459,-6.62927 -12.99716,-0.44888 -14.16112,-0.75668 -15.96376,-4.22144 -1.88627,-3.62548 -1.90288,-5.09189 -0.0854,-7.53941 1.12311,-1.51245 1.69523,-1.6683 2.65866,-0.72422 0.964,0.94465 1.95104,0.57159 4.59691,-1.73741 3.90374,-3.40671 10.04278,-4.03896 12.78198,-1.31638 1.29385,1.28599 2.82309,1.50042 7.34803,1.03035 6.71203,-0.69729 10.28631,0.68704 24.77486,9.59535 5.02798,3.09146 9.80497,5.62083 10.61556,5.62083 2.84962,0 4.18362,-3.0371 3.89311,-8.86339 -0.2264,-4.54049 0.13726,-6.15795 1.87945,-8.35933 1.92962,-2.43822 2.70805,-2.69791 7.29369,-2.43326 l 5.13352,0.29627 0.31188,3.75408 c 0.20864,2.51139 -0.38179,4.86963 -1.78367,7.12414 l -2.09555,3.37008 2.28311,0.32189 c 1.82099,0.25675 2.26714,0.92474 2.20422,3.30031 -0.0434,1.63813 -0.42981,4.2093 -0.85872,5.7137 -0.73485,2.57749 -0.47099,2.8755 4.5738,5.16566 2.9445,1.3367 7.22109,2.72499 9.50353,3.08508 5.55194,0.87592 6.00403,-0.17178 6.52187,-15.11425 0.25088,-7.23884 0.89189,-12.6378 1.60136,-13.48747 0.65068,-0.77925 2.90202,-1.98068 5.00301,-2.66986 3.33216,-1.09304 4.32253,-1.01692 7.75554,0.59607 3.84463,1.80639 3.93867,1.97496 4.06917,7.29448 0.0735,2.99496 0.4675,7.74307 0.87563,10.55137 0.5635,3.8775 0.35111,5.88487 -0.88274,8.34318 -2.01588,4.01638 -2.03131,5.6938 -0.0947,10.30057 1.71242,4.07351 4.80221,5.71873 8.28804,4.41315 2.92177,-1.09433 4.42306,-0.26299 7.36749,4.07972 2.06266,3.0422 3.66969,4.18973 9.78391,6.98648 0.89317,0.40853 1.62236,2.34865 1.80546,4.80364 0.3277,4.39384 1.83991,5.59614 2.37027,1.88451 0.20489,-1.4339 1.66479,-2.88727 4.07683,-4.05863 l 3.75765,-1.82482 -0.72984,-19.02409 c -0.73739,-19.2208 -0.83764,-25.29446 -0.55164,-33.41978 0.18113,-5.14613 0.5469,-28.66949 0.57117,-36.7338 0.009,-3.00323 -0.10985,-11.04496 -0.26419,-17.87049 -0.23781,-10.51696 0.0419,-13.35185 1.83336,-18.58378 2.61026,-7.62308 2.60983,-7.8615 -0.0157,-8.54393 -2.26667,-0.58915 -2.25694,-0.75504 0.47601,-8.11688 0.81084,-2.18418 1.13487,-4.41799 0.72008,-4.96403 -1.92557,-2.53488 -3.29215,-10.67647 -2.5437,-15.15448 0.80442,-4.8129 1.48871,-26.5678 1.83423,-58.31312 l 0.19451,-17.8705 -2.68515,-3.98764 c -1.47684,-2.1932 -3.63526,-4.84224 -4.79649,-5.88675 -2.71469,-2.44184 -7.73166,-12.24626 -8.58796,-16.78305 -0.55539,-2.94248 -0.24852,-3.92509 1.88946,-6.05009 1.40391,-1.39538 2.98212,-2.53706 3.50714,-2.53706 2.20996,0 11.1264,8.11744 11.73431,10.68281 1.03435,4.36494 5.24762,8.18049 9.03317,8.18049 2.33949,0 3.12985,-0.38323 2.76096,-1.33872 -0.65282,-1.69087 7.11121,-11.56775 9.09317,-11.56775 0.81129,0 1.47508,-0.68416 1.47508,-1.52036 0,-0.83621 0.69098,-1.78391 1.53552,-2.10603 1.93553,-0.73822 5.45658,2.34409 5.45658,4.77667 0,3.00753 -3.75519,9.06482 -7.62402,12.29788 -4.57239,3.821 -5.44105,7.8651 -5.84007,27.1887 -0.26071,12.62541 -0.51684,14.48825 -2.156,15.68061 -1.6629,1.20961 -1.84136,2.69071 -1.68297,13.96744 0.21345,15.19626 0.82439,22.00938 2.39878,26.75087 1.07995,3.25242 0.86979,10.32036 -0.64238,21.60447 -1.10385,8.23715 -1.20504,7.91988 2.62821,8.23974 2.9405,0.24536 3.75304,-0.11741 4.65115,-2.07661 0.59854,-1.30563 2.59116,-3.11459 4.42805,-4.0199 7.71,-3.79984 10.83134,-9.28369 10.83134,-19.02942 0,-5.16423 1.52293,-7.43754 4.9825,-7.43754 1.60296,0 4.11215,-0.54239 5.57599,-1.20531 2.36484,-1.07096 2.87111,-0.94803 4.54191,1.10279 2.30795,2.83289 2.43211,8.27072 0.26394,11.55968 -1.34498,2.04024 -1.39654,2.71543 -0.30695,4.02032 1.9743,2.36445 9.02079,0.95136 17.90535,-3.5907 18.94049,-9.68299 20.60188,-10.22018 28.90503,-9.34598 4.15457,0.43741 9.74583,0.69683 12.42502,0.57649 6.2115,-0.27902 8.61349,1.65678 8.61349,6.94174 0,5.58869 -2.18476,6.53959 -16.23139,7.06459 -8.73095,0.32632 -12.18418,0.83473 -13.48476,1.98531 -0.96155,0.85065 -3.99574,2.24084 -6.74263,3.0893 -9.19805,2.84109 -23.87939,8.66874 -34.28671,13.60985 -5.6726,2.6932 -11.51599,5.17261 -12.98532,5.5098 -6.8336,1.56825 -11.94343,3.68569 -15.07459,6.24671 -2.94169,2.40603 -3.54358,3.6681 -4.35663,9.13514 -0.97989,6.58897 -1.16103,9.88966 -0.86576,15.77506 0.40049,7.98244 -0.91444,42.64961 -1.82638,48.15106 -1.81295,10.93696 -1.31676,53.23557 0.63099,53.78992 0.46265,0.13167 1.74017,-1.64166 2.83892,-3.94074 1.67061,-3.49561 2.53252,-4.23131 5.26346,-4.49268 6.33127,-0.60592 9.10223,-8.59307 9.19125,-26.4932 0.0619,-12.45595 1.55634,-20.02452 4.29253,-21.73998 2.24486,-1.40742 6.53567,0.76595 7.7429,3.92191 1.19325,3.11945 1.15531,12.90895 -0.0787,20.30008 -2.0651,12.36919 -2.28701,16.87893 -0.82927,16.85342 4.67332,-0.0817 10.96283,-2.60376 16.14013,-6.47197 3.25709,-2.43354 6.49665,-4.42461 7.19902,-4.42461 2.85727,0 3.89508,-3.09202 3.66183,-10.90996 -0.12759,-4.27684 0.28959,-10.75301 0.92708,-14.3915 1.35172,-7.71501 3.22305,-9.25228 9.59189,-7.87962 2.10221,0.45309 4.84071,0.71458 6.08555,0.58109 3.40687,-0.36531 3.79505,2.35868 0.83447,5.85576 -1.84982,2.18504 -2.56434,4.11985 -2.4802,6.7161 0.22867,7.0562 1.19615,9.41285 4.19088,10.20842 1.54592,0.41067 3.49051,1.30741 4.32134,1.99274 1.88429,1.55433 3.31776,-0.27095 3.34076,-4.25393 0.0202,-3.49423 5.51468,-6.91342 12.65791,-7.87689 2.9123,-0.39281 6.44937,-1.61664 7.86015,-2.71963 1.41079,-1.10298 3.85939,-2.28798 5.44133,-2.63332 1.58194,-0.34535 3.58461,-1.70243 4.45038,-3.01573 1.55686,-2.36164 1.72471,-2.38391 15.30623,-2.03077 20.39533,0.53031 23.22137,1.39307 23.22137,7.08928 0,1.81206 -0.56186,3.64751 -1.24858,4.07877 -0.68673,0.43125 -6.55693,1.29049 -13.04491,1.90942 -11.68577,1.11478 -11.86069,1.16904 -18.6656,5.79041 -3.77811,2.56579 -8.55575,5.1279 -10.61697,5.69358 -3.78595,1.039 -9.89151,3.86342 -20.8511,9.64569 -3.60079,1.89977 -6.83442,2.95783 -8.10049,2.65052 -1.32066,-0.32056 -2.7592,0.20453 -3.85377,1.40666 -0.96057,1.05497 -4.73197,2.87295 -8.38087,4.03994 -3.64891,1.16699 -7.30862,2.69427 -8.13269,3.39395 -3.16651,2.68856 -18.81981,10.35205 -22.55262,11.04124 -5.71129,1.05447 -11.83312,3.86761 -17.07705,7.84733 -2.53435,1.92338 -5.49226,3.49705 -6.57312,3.49705 -1.69051,0 -11.01917,6.73266 -12.85793,9.2798 -1.19394,1.65391 -3.11266,15.33852 -2.32763,16.60101 0.43369,0.69746 0.68436,12.69503 0.55703,26.66126 -0.12731,13.96624 -0.28378,31.20106 -0.34769,38.29962 -0.17683,19.6411 1.47514,35.24459 3.73139,35.24459 0.69696,0 1.91112,0.96392 2.69815,2.14205 1.01306,1.5165 2.39124,2.11491 4.71933,2.04911 4.54436,-0.12842 4.83008,-0.79244 1.61521,-3.75381 -2.50351,-2.30607 -2.71778,-3.01205 -2.15431,-7.09806 0.34414,-2.4955 0.6257,-5.74685 0.6257,-7.22522 0,-1.47836 0.89899,-3.71818 1.99774,-4.97737 1.44856,-1.66006 1.99775,-3.71444 1.99775,-7.47312 0,-2.85104 0.67423,-7.08309 1.4983,-9.40457 0.82407,-2.32148 1.52195,-6.5102 1.55086,-9.30827 0.0289,-2.79808 0.61385,-8.21474 1.29988,-12.03704 0.68604,-3.82231 0.96253,-8.06655 0.61444,-9.43166 -0.34811,-1.3651 -0.43548,-3.04046 -0.19416,-3.72302 0.61333,-1.73475 4.16259,-1.55343 4.85816,0.24821 0.31624,0.81906 1.2011,1.4892 1.9664,1.4892 0.98723,0 0.81111,0.5768 -0.60631,1.98561 -2.64257,2.62653 -2.53004,3.60291 0.85705,7.43717 3.60686,4.08304 5.65239,15.2144 5.59741,30.46006 -0.0342,9.46701 0.13414,10.5034 1.58046,9.73405 0.89027,-0.47356 2.1986,-1.55556 2.9074,-2.40442 0.70881,-0.84888 2.49809,-1.54342 3.97617,-1.54342 1.69171,0 3.76848,-1.12152 5.60516,-3.02696 2.60446,-2.70196 3.45573,-2.99511 7.92813,-2.73022 4.51985,0.2677 5.04119,0.0815 5.32496,-1.90197 0.23535,-1.6451 -0.31234,-2.35511 -2.17518,-2.81981 -1.36936,-0.34161 -2.71065,-1.19323 -2.98062,-1.89252 -0.43759,-1.13341 0.47674,-9.67016 1.91815,-17.90908 0.28659,-1.63813 0.61204,-5.95673 0.72321,-9.59689 0.11118,-3.64016 0.42688,-6.78872 0.70157,-6.99681 1.39315,-1.05538 6.31381,-2.76601 7.9565,-2.76601 2.96657,0 6.25755,6.22081 5.91511,11.18109 -0.15976,2.31407 0.30067,7.50738 1.02316,11.5407 0.7225,4.03332 1.07246,9.12056 0.77767,11.30497 -0.6861,5.08423 0.6618,8.66387 3.26235,8.66387 1.37428,0 2.19175,-0.85739 2.60309,-2.73021 1.89516,-8.62855 4.15609,-10.63692 10.85119,-9.63902 6.51228,0.97065 11.90918,-3.13054 9.64735,-7.33117 -0.49934,-0.92733 -1.05958,-5.84536 -1.24501,-10.92896 -0.30213,-8.28306 -0.13196,-9.39203 1.63876,-10.67895 2.49826,-1.81569 10.14776,-0.89443 13.00716,1.56648 1.09876,0.94564 2.77096,1.99017 3.716,2.32118 2.58482,0.90535 3.12144,4.87342 1.35744,10.0376 -2.40335,7.03593 -2.15691,8.22566 1.66894,8.05699 3.20796,-0.14142 3.91074,-0.67328 15.73221,-11.90593 4.74917,-4.51261 7.76275,-5.98192 12.48589,-6.08765 2.19751,-0.0492 6.24294,-0.57113 8.98983,-1.15985 6.29931,-1.35006 22.22519,-0.47367 25.22149,1.38793 1.70152,1.05716 2.24746,2.32964 2.24746,5.23845 0,4.22934 -1.04016,5.04737 -6.41799,5.04737 -1.79188,0 -5.87091,0.89352 -9.06451,1.98561 -3.1936,1.09208 -8.09743,1.98561 -10.89743,1.98561 -4.21562,0 -5.93631,0.59742 -10.00815,3.47482 -3.93008,2.77721 -5.85356,3.47482 -9.58098,3.47482 -3.45977,0 -5.15069,0.53481 -6.55005,2.0717 -2.47817,2.72172 -9.60748,7.47581 -12.56346,8.37778 -1.28766,0.39291 -2.7907,1.05911 -3.34008,1.48042 -0.54938,0.42132 -5.0443,1.76137 -9.98871,2.9779 -4.94441,1.21653 -9.98538,2.82757 -11.20215,3.58009 -1.21678,0.75252 -2.63538,1.36821 -3.15247,1.36821 -0.51707,0 -6.67488,2.73041 -13.68401,6.06756 -11.0644,5.26795 -13.31099,6.00403 -17.04728,5.58546 -3.57952,-0.40102 -4.40336,-0.16914 -4.89755,1.37848 -0.57292,1.79417 -1.59238,2.26845 -4.17396,1.94185 -0.6695,-0.0847 -1.78898,0.75588 -2.48773,1.86797 -0.75114,1.19547 -2.33661,2.02199 -3.87866,2.02199 -1.50906,0 -3.87246,1.20086 -5.60826,2.84961 -1.69122,1.60641 -6.00467,3.82667 -9.88713,5.08919 -3.78789,1.23176 -7.81502,3.07678 -8.94919,4.10002 -1.13414,1.02325 -2.98944,1.86045 -4.12287,1.86045 -1.13342,0 -2.64761,0.7028 -3.36485,1.56177 -0.71724,0.85898 -3.01316,2.42839 -5.10205,3.48759 -5.06707,2.56933 -6.43857,4.99064 -7.76679,13.71177 -0.61515,4.03913 -1.37694,7.75955 -1.69284,8.2676 -1.20844,1.94342 -1.42642,87.56697 -0.25415,99.82743 0.6409,6.70292 1.44541,12.35921 1.7878,12.56954 0.3424,0.21032 2.06061,-0.21859 3.81827,-0.95314 5.38076,-2.2487 5.88374,-4.90511 6.68102,-35.2844 0.73058,-27.83733 1.41019,-34.30407 3.76569,-35.83161 2.61772,-1.69759 6.21851,-0.38928 8.62183,3.13263 2.15077,3.15183 2.31413,4.16695 1.75744,10.92086 -1.46294,17.74915 -2.44763,41.28473 -1.89494,45.29254 0.54404,3.94507 0.85577,4.34773 3.3659,4.34773 1.67057,0 4.34023,-1.30697 6.73977,-3.29955 2.18539,-1.81476 6.8352,-4.29145 10.33293,-5.50377 12.19383,-4.22642 12.85216,-4.66626 12.85216,-8.5866 0,-1.93752 -0.6902,-5.16463 -1.53379,-7.17135 -1.18679,-2.82313 -1.28755,-4.23943 -0.44539,-6.26022 0.59861,-1.4364 0.98549,-3.01922 0.85973,-3.51737 -0.12575,-0.49815 0.13097,-3.95788 0.57051,-7.68829 0.58425,-4.95866 0.451,-7.42915 -0.49555,-9.18704 -1.0274,-1.90805 -1.05322,-3.44423 -0.1251,-7.44065 0.64327,-2.76991 1.16959,-6.30585 1.16959,-7.85766 0,-4.92488 0.89549,-5.96229 5.14662,-5.96229 2.84503,0 4.61271,0.67456 6.38579,2.43689 2.43034,2.41557 2.45178,2.60109 2.45178,21.22121 0,24.92231 0.77606,28.18512 5.47611,23.02317 0.98464,-1.08141 3.41414,-2.26842 5.39889,-2.63781 1.98474,-0.36939 5.06947,-1.27764 6.85496,-2.01835 2.80697,-1.16447 3.24633,-1.8285 3.24633,-4.90639 0,-1.95781 0.74015,-5.10993 1.64478,-7.00472 1.29169,-2.70551 1.42553,-4.15507 0.62347,-6.75255 -0.69529,-2.2517 -0.6958,-5.00284 -0.002,-8.61864 1.7535,-9.13326 3.86828,-9.93351 9.90694,-3.74886 5.23782,5.36443 6.90662,10.32096 6.36435,18.9029 l -0.43161,6.83695 h 3.39778 c 2.33163,0 3.72074,-0.59983 4.42709,-1.91163 0.56613,-1.0514 3.25681,-3.34623 5.97929,-5.09962 5.44992,-3.50999 7.72234,-7.25146 8.69703,-14.31938 0.35013,-2.53905 1.61367,-6.03825 2.80784,-7.77599 2.01462,-2.93167 2.52557,-3.13629 7.08416,-2.83687 5.02378,0.32998 6.71763,1.5065 5.96753,4.14494 -1.65584,5.82435 -1.68387,8.9384 -0.0859,9.54787 1.80332,0.68779 8.61246,-1.93357 12.4183,-4.78077 1.30577,-0.97687 6.68209,-3.1477 11.94736,-4.82408 9.23421,-2.94001 10.22171,-3.04876 27.88493,-3.07061 18.80348,-0.0232 21.25413,0.4385 21.19501,3.99375 -0.0148,0.88872 -1.33838,3.17952 -2.94132,5.09067 -2.73961,3.26637 -3.01686,3.3742 -4.62159,1.79754 -1.60372,-1.57566 -1.81711,-1.53834 -3.5219,0.61579 -1.6162,2.04219 -2.70716,2.30455 -9.9716,2.39802 -9.13755,0.11757 -11.32719,0.60229 -14.76106,3.26766 -1.31021,1.01697 -3.34528,1.84904 -4.5224,1.84904 -1.17712,0 -3.02685,0.60658 -4.11049,1.34795 -1.08366,0.74136 -3.76825,1.92028 -5.96577,2.61982 -2.19751,0.69953 -5.11921,2.03959 -6.49266,2.97791 -1.37344,0.93831 -6.5426,2.94354 -11.48701,4.45606 -4.94441,1.51252 -12.38284,4.44 -16.52985,6.50552 -4.14701,2.06553 -11.33888,5.16081 -15.98194,6.87844 -4.64305,1.71762 -10.01513,3.8309 -11.93796,4.69617 -1.92283,0.86528 -9.56419,3.68609 -16.9808,6.26849 -7.41662,2.5824 -16.85595,6.03718 -20.97629,7.67729 -4.12034,1.64013 -9.61544,3.48086 -12.21133,4.09051 -2.59588,0.60966 -7.58382,2.45345 -11.0843,4.09731 -3.50049,1.64386 -7.53933,2.98883 -8.9752,2.98883 -2.16655,0 -21.8076,9.3058 -25.16424,11.92264 -0.54938,0.4283 -2.89685,1.3387 -5.2166,2.02304 -2.31975,0.68444 -5.12907,2.08827 -6.24294,3.11969 -2.22577,2.06097 -2.25645,2.48321 -2.53135,34.83278 -0.0778,9.15942 -0.55766,17.06126 -1.06629,17.55955 -0.50861,0.49838 -2.91254,1.04602 -5.34204,1.21698 -2.4295,0.17106 -4.56941,0.7721 -4.75535,1.33572 -0.18595,0.56361 2.13895,2.51686 5.16643,4.34054 3.47511,2.09343 5.50451,3.99038 5.50451,5.14532 0,1.0063 0.86854,2.29159 1.9301,2.8562 3.09408,1.64587 3.45059,4.64077 1.01811,8.55272 l -2.19038,3.52257 2.13284,1.97499 c 2.09881,1.94341 2.12861,2.45302 1.86853,31.95513 l -0.26428,29.98024 -5.71822,0.29695 -5.71823,0.29704 -1.12181,4.17058 c -1.87719,6.97893 -2.66527,7.32899 -12.82305,5.69592 z m -83.9583,-202.65652 c 1.38714,-3.32854 0.33928,-5.33795 -2.26554,-4.34446 -1.49743,0.57113 -2.75794,5.94452 -1.95566,8.33673 0.56174,1.67499 2.70361,-0.35073 4.2212,-3.99227 z m 182.00746,-319.25989 c -1.9743,-0.79182 -1.45439,-3.11498 0.86054,-3.84525 1.31768,-0.41568 2.67391,-0.10398 3.61423,0.83063 2.59881,2.58302 -0.44238,4.63184 -4.47477,3.01462 z"
           style="fill:#2a4817;fill-opacity:1" />
      </g>
    </g>
  </g>
</svg>
