<?xml version="1.0" encoding="UTF-8" standalone="no"?>
<!-- Created with Inkscape (http://www.inkscape.org/) -->

<svg
   xmlns:dc="http://purl.org/dc/elements/1.1/"
   xmlns:cc="http://creativecommons.org/ns#"
   xmlns:rdf="http://www.w3.org/1999/02/22-rdf-syntax-ns#"
   xmlns:svg="http://www.w3.org/2000/svg"
   xmlns="http://www.w3.org/2000/svg"
   xmlns:sodipodi="http://sodipodi.sourceforge.net/DTD/sodipodi-0.dtd"
   xmlns:inkscape="http://www.inkscape.org/namespaces/inkscape"
   width="76.49044mm"
   height="36.124447mm"
   viewBox="0 0 271.02912 128.00001"
   id="svg2"
   version="1.1"
   inkscape:version="0.91 r13725"
   sodipodi:docname="perthparkour.svg"
   inkscape:export-filename="C:\Users\Adon\SkyDrive\Development\perthpk.github.io\images\perthparkour.png"
   inkscape:export-xdpi="50.810253"
   inkscape:export-ydpi="50.810253">
  <defs
     id="defs4">
    <clipPath
       clipPathUnits="userSpaceOnUse"
       id="clipPath4201">
      <rect
         style="fill:#ffffff;fill-opacity:0.30635837;stroke:none;stroke-width:16.70000076;stroke-miterlimit:4;stroke-dasharray:none;stroke-opacity:1"
         id="rect4203"
         width="1745.7142"
         height="811.42859"
         x="-906.1189"
         y="79.35627" />
    </clipPath>
  </defs>
  <sodipodi:namedview
     id="base"
     pagecolor="#ffffff"
     bordercolor="#666666"
     borderopacity="1.0"
     inkscape:pageopacity="0.0"
     inkscape:pageshadow="2"
     inkscape:zoom="0.35"
     inkscape:cx="5.4046185"
     inkscape:cy="666.99417"
     inkscape:document-units="px"
     inkscape:current-layer="layer1"
     showgrid="false"
     fit-margin-top="0"
     fit-margin-left="0"
     fit-margin-right="0"
     fit-margin-bottom="0"
     inkscape:window-width="1920"
     inkscape:window-height="1017"
     inkscape:window-x="-8"
     inkscape:window-y="-8"
     inkscape:window-maximized="1" />
  <metadata
     id="metadata7">
    <rdf:RDF>
      <cc:Work
         rdf:about="">
        <dc:format>image/svg+xml</dc:format>
        <dc:type
           rdf:resource="http://purl.org/dc/dcmitype/StillImage" />
        <dc:title></dc:title>
      </cc:Work>
    </rdf:RDF>
  </metadata>
  <g
     inkscape:label="Layer 1"
     inkscape:groupmode="layer"
     id="layer1"
     transform="translate(57.547477,-1071.3563)">
    <g
       id="g4222"
       transform="matrix(0.16470588,0,0,0.16470588,-48.069069,1001.8153)">
      <g
         clip-path="url(#clipPath4201)"
         transform="translate(782.85714,342.85714)"
         id="g4189">
        <path
           inkscape:connector-curvature="0"
           id="path4172"
           d="m -622.33855,855.68427 c -2.6131,-0.4227 -5.10031,-1.5658 -6.10417,-2.8055 -2.64856,-3.2709 -3.28825,-12.2899 -1.38519,-19.5303 1.4021,-5.3345 1.53231,-9.8321 0.93223,-32.2005 -0.81396,-30.3411 -0.70369,-40.4176 0.48774,-44.5719 0.72925,-2.5427 0.24931,-4.1439 -3.06388,-10.2216 -4.9509,-9.0819 -5.17193,-13.2529 -0.95672,-18.0538 3.31377,-3.7741 3.55169,-5.7661 1.57103,-13.1527 -1.32471,-4.9404 -1.38531,-4.9972 -5.07996,-4.7656 -2.69206,0.1688 -4.5126,-0.4162 -6.50061,-2.089 -1.58085,-1.3302 -5.48223,-2.8825 -9.1259,-3.631 -3.50051,-0.7191 -7.03956,-1.8787 -7.86456,-2.577 -0.825,-0.6983 -3.525,-2.0746 -6,-3.0584 -5.97303,-2.3742 -10.44314,-5.0648 -31.36527,-18.87904 -4.34438,-2.86847 -0.79831,-7.99587 3.82038,-5.52403 3.00037,1.60576 5.22949,0.25045 4.16227,-2.53067 -0.49559,-1.29149 -1.38024,-1.54273 -3.75778,-1.06722 -1.71028,0.34206 -3.95335,0.62192 -4.9846,0.62192 -1.18116,0 -1.875,0.70926 -1.875,1.91667 0,4.47727 -4.8735,2.9484 -16.93692,-5.31329 -5.05406,-3.4613 -9.70005,-5.84151 -12.17458,-6.2372 -2.65572,-0.42467 -4.57115,-1.46673 -5.69504,-3.09829 -3.92487,-5.69779 -5.13067,-6.45429 -9.19346,-5.76789 -3.11297,0.52593 -4.24671,0.25329 -5.92481,-1.42481 -1.14135,-1.14135 -2.9145,-2.07519 -3.94033,-2.07519 -1.02583,0 -3.0996,-0.97103 -4.60839,-2.15784 -2.86335,-2.25231 -8.56274,-5.53777 -14.52647,-8.37391 -3.2087,-1.52594 -6.59113,-3.86516 -17.39121,-12.02743 -13.62083,-10.29406 -15.0795,-10.77566 -33.10879,-10.93114 -7.7,-0.0664 -14.7875,-0.4814 -15.75,-0.9222 -4.27206,-1.9565 -0.012,-9.90131 6.20716,-11.57594 2.95976,-0.79698 4.10189,-1.74216 4.91147,-4.06452 1.04055,-2.98493 1.12674,-3.01691 6.34313,-2.35348 6.24173,0.79384 8.06253,1.96688 7.2121,4.64636 -0.53435,1.68358 -0.2926,1.85214 1.72742,1.20443 10.33225,-3.313 12.96119,-3.1072 18.19715,1.42448 2.45853,2.12785 5.56683,4.14409 6.90733,4.48053 2.42066,0.60755 12.3958,6.28667 15.35283,8.74078 1.0985,0.91168 1.36479,2.23825 0.92252,4.59575 -0.56304,3.00126 -0.39608,3.31413 1.76859,3.31413 1.31468,0 3.20481,0.9 4.2003,2 2.17903,2.4078 8.26903,2.68792 12.36688,0.56884 3.9328,-2.03373 5.8623,-8.19168 4.25143,-13.5683 -1.09828,-3.66573 -0.98174,-4.37743 1.37539,-8.39958 1.41644,-2.41697 2.9081,-6.35345 3.31481,-8.74773 0.92767,-5.46123 3.53096,-6.19589 7.45216,-2.10303 3.09127,3.22658 4.20395,7.96204 5.25524,22.36585 0.82975,11.3685 0.1311,15.37982 -3.21954,18.48509 -3.10246,2.87526 -2.4174,4.01146 3.45024,5.72239 5.78287,1.6862 7.36319,3.79267 4.89305,6.52214 -1.4885,1.64478 -1.57233,2.28928 -0.51747,3.97837 0.69233,1.1086 2.18556,2.21884 3.31829,2.4672 1.13274,0.24836 2.78788,0.75989 3.6781,1.13672 2.42853,1.02801 3.09851,-2.81129 0.74687,-4.27992 -2.2549,-1.4082 -2.3805,-4.67111 -0.36545,-9.4938 0.85179,-2.03862 1.5,-6.63521 1.5,-10.63681 0,-6.56423 0.22256,-7.28695 3.25,-10.55357 2.99665,-3.2334 3.50781,-3.4313 6.55723,-2.53871 1.81897,0.53244 4.22103,0.63002 5.33791,0.21686 1.82867,-0.67647 1.87272,-0.8823 0.44277,-2.06905 -1.78037,-1.47758 -2.11298,-4.63042 -0.58791,-5.57296 1.74286,-1.07715 1.08854,-2.30382 -1.73005,-3.24335 -2.22862,-0.74287 -3.0421,-0.52859 -4.42902,1.16667 -1.40786,1.72086 -1.9253,1.85034 -3.01995,0.7557 -1.09464,-1.09465 -0.95094,-1.6236 0.83869,-3.08715 1.49777,-1.22487 1.88556,-2.19917 1.26531,-3.17902 -1.39109,-2.19757 -1.08243,-6.53729 0.56203,-7.90207 1.62816,-1.35125 6.51299,-0.59503 6.51299,1.00827 0,0.53952 0.81515,0.98095 1.81144,0.98095 0.99629,0 2.84075,0.95895 4.0988,2.131 1.85366,1.72695 2.14959,2.72238 1.56076,5.25 -1.15939,4.97677 -1.19363,10.65329 -0.10429,17.29135 0.96478,5.87904 0.8851,6.35679 -1.6769,10.05375 -3.3227,4.79465 -3.65716,12.4317 -0.81741,18.66437 1.02982,2.26024 2.61366,5.83084 3.51965,7.93467 1.49706,3.47637 1.91185,3.76702 4.54925,3.18775 2.54885,-0.55982 3.21577,-0.17563 5.48035,3.157 1.41809,2.08691 2.57835,4.36492 2.57835,5.06224 0,0.69733 0.83505,1.26787 1.85566,1.26787 1.57746,0 1.97848,-1.16191 2.67486,-7.75 1.27102,-12.02453 1.48648,-28.26052 0.44427,-33.47846 -0.71097,-3.55957 -0.55861,-6.23452 0.61633,-10.82075 0.9495,-3.70628 1.30573,-7.60183 0.90958,-9.94667 -0.64373,-3.81018 0.57218,-7.68515 2.899,-9.23881 0.60517,-0.40408 3.42827,-0.74158 6.27357,-0.75 4.12029,-0.0122 5.79953,0.51164 8.25,2.57358 1.81332,1.52581 3.07673,3.54494 3.07673,4.9171 0,3.66158 -3.54273,10.98916 -6.39945,13.23626 -3.48389,2.74043 -3.35295,5.81731 0.32858,7.7211 3.85332,1.99263 4.47975,4.38184 2.53732,9.67741 -2.80672,7.65187 -2.82046,7.88077 -0.59717,9.95208 2.56044,2.38542 2.5956,2.79844 0.49367,5.79937 -1.73296,2.47415 -3.23175,22.52942 -2.03665,27.25249 0.7404,2.92612 9.16414,7.06282 12.56912,6.1724 2.13856,-0.55925 2.27001,-0.33724 1.94891,3.2916 l -0.34433,3.89134 6.54349,0.5633 c 3.59891,0.3099 7.08641,0.8989 7.75,1.309 0.84305,0.5211 1.20651,-0.1895 1.20651,-2.3588 0,-2.0644 0.92133,-4.01055 2.75,-5.80899 2.60765,-2.56455 2.74409,-3.15859 2.63586,-11.47569 -0.0794,-6.10461 -0.55883,-9.29673 -1.57688,-10.5 -1.85045,-2.18712 -4.80898,-13.0848 -4.80898,-17.71376 0,-2.06602 0.75036,-4.26546 1.82019,-5.33529 1.31394,-1.31394 1.69971,-2.85218 1.38702,-5.53062 -0.35416,-3.03363 0.0435,-4.15215 2.17981,-6.13206 2.07551,-1.92352 2.61298,-3.35233 2.61298,-6.94633 0,-3.75847 -0.43623,-4.81052 -2.57604,-6.21258 -2.52653,-1.65544 -2.56291,-1.8455 -1.89291,-9.8887 0.46444,-5.57562 0.30832,-8.90114 -0.48771,-10.38854 -0.98601,-1.84238 -0.7456,-2.91332 1.52301,-6.78442 3.18715,-5.43845 5.40527,-13.18054 5.42178,-18.92412 0.007,-2.43639 0.62646,-4.63761 1.51187,-5.37244 2.30024,-1.90903 1.79126,-3.7143 -1.25,-4.43359 -1.5125,-0.35773 -5.225,-1.94784 -8.25,-3.53358 -4.77155,-2.50131 -9.82057,-3.73816 -16.20886,-3.97064 -0.93987,-0.0342 -5.74731,-4.11219 -10.68319,-9.06219 -4.93587,-4.95 -9.73877,-9 -10.6731,-9 -0.93433,0 -3.13258,-0.88614 -4.885,-1.96919 -1.75243,-1.08306 -5.85554,-2.61617 -9.11804,-3.4069 -8.04122,-1.94898 -13.17822,-4.6884 -17.86952,-9.52937 -2.16575,-2.23484 -5.54075,-4.57741 -7.5,-5.20573 -1.95926,-0.62831 -6.03729,-2.80639 -9.06229,-4.84018 -3.025,-2.03378 -6.99499,-4.21465 -8.82219,-4.84636 -1.8272,-0.63171 -4.9772,-2.44899 -7,-4.0384 -4.26038,-3.3476 -9.48384,-6.16387 -11.43237,-6.16387 -0.74463,0 -3.48261,-1.35 -6.08439,-3 -2.60178,-1.65 -5.32417,-3 -6.04976,-3 -0.72558,0 -2.53314,-1.125 -4.01679,-2.5 -1.62299,-1.50414 -3.88485,-2.5 -5.67814,-2.5 -1.63933,0 -4.65364,-0.7025 -6.69848,-1.56112 -3.18611,-1.33783 -4.91331,-1.39239 -12.07567,-0.38141 -8.79626,1.2416 -21.69458,0.55866 -23.89221,-1.26505 -0.6875,-0.57052 -1.25,-2.56686 -1.25,-4.4363 0,-3.56756 -0.0985,-3.49012 8,-6.28857 1.925,-0.66519 11.375,-1.44771 21,-1.73894 16.17627,-0.48946 17.86091,-0.37264 22.27124,1.5445 2.62418,1.14072 5.04219,2.78009 5.37334,3.64305 0.33115,0.86297 2.28094,2.42552 4.33286,3.47233 4.60317,2.34836 6.01638,1.3094 6.0373,-4.43849 0.0282,-7.73519 3.28848,-10.90968 8.84208,-8.60931 3.94349,1.63345 5.44822,4.70861 6.08055,12.4266 l 0.56263,6.86729 7,2.83039 c 13.39025,5.41422 14.9854,4.43035 15.04386,-9.27879 l 0.0439,-10.28618 4.64872,-0.30245 c 4.13093,-0.26875 4.84974,0.004 6.45337,2.4518 2.55935,3.90606 3.71775,21.43947 1.73066,26.19523 -1.91949,4.59398 -1.78745,6.15542 0.52051,6.15542 1.06754,0 2.20086,0.42049 2.51849,0.93441 0.31762,0.51393 3.02128,1.64485 6.00812,2.51314 2.98684,0.8683 5.70508,2.02282 6.04053,2.56559 1.1577,1.87319 4.52876,1.02005 5.44003,-1.37676 0.49425,-1.29998 1.65681,-2.65455 2.58347,-3.01014 1.34496,-0.51611 1.55014,-1.40094 1.01715,-4.38638 -2.04052,-11.42973 -1.38038,-20.97183 1.72885,-24.98986 1.17672,-1.52068 6.35177,-1.65868 7.25728,-0.19353 1.52374,2.46546 2.75954,13.32705 2.89491,25.44353 0.13156,11.77635 -0.0387,13.15341 -1.80867,14.6298 -1.93565,1.61458 -1.93508,1.63578 0.0607,2.26923 1.10804,0.35168 2.52327,1.75576 3.14494,3.12019 0.62168,1.36443 1.50203,2.48078 1.95634,2.48078 0.45432,0 2.54016,1.57008 4.6352,3.48907 2.09505,1.91899 7.54857,5.33302 12.11893,7.58673 9.28363,4.5779 11.81055,6.82179 12.10162,10.74618 0.10924,1.47291 0.23519,3.01552 0.27987,3.42802 0.222,2.04949 1.9362,0.35717 2.53233,-2.5 1.7882,-8.57071 1.72211,-11.57002 -0.35861,-16.27384 -2.64804,-5.98634 -2.64108,-10.46333 0.0286,-18.3686 1.70453,-5.04738 1.90091,-6.76395 1,-8.74122 -1.85741,-4.07658 -1.42554,-12.03862 0.73549,-13.55964 3.00341,-2.11391 3.64621,-5.68966 1.39915,-7.78312 -2.9169,-2.7175 -3.79347,-29.83289 -1.80303,-55.77358 l 0.40283,-5.25 -3.52429,0 c -2.6881,0 -4.60334,-0.94981 -8.07205,-4.00309 -2.50127,-2.2017 -6.39532,-4.47792 -8.65345,-5.05826 -2.25814,-0.58033 -6.24343,-2.15394 -8.85622,-3.4969 -2.61284,-1.34296 -6.37657,-2.44175 -8.3639,-2.44175 -1.98733,0 -5.24959,-0.85349 -7.24948,-1.89665 -1.99988,-1.04316 -5.79142,-2.66217 -8.42564,-3.59779 -2.63422,-0.93563 -6.12814,-2.82753 -7.76426,-4.20424 -4.16721,-3.50648 -13.83915,-8.30132 -16.74505,-8.30132 -4.50221,0 -12.37232,-3.45852 -15.22071,-6.68875 -1.7091,-1.9382 -4.51165,-3.64333 -7.14616,-4.34788 -4.52457,-1.21001 -12.25727,-4.33704 -14.83433,-5.99886 -7.33821,-4.73206 -12.75156,-6.33858 -22.5,-6.67731 -13.01185,-0.45213 -14.17713,-0.76216 -15.98181,-4.25203 -1.8884,-3.65175 -1.90503,-5.12879 -0.0855,-7.59404 1.12438,-1.52342 1.69714,-1.68039 2.66166,-0.72947 0.96509,0.95149 1.95325,0.57573 4.60211,-1.75 3.90815,-3.4314 10.05413,-4.06823 12.79643,-1.32592 1.29531,1.29531 2.82628,1.51129 7.35634,1.03781 6.71962,-0.70234 10.29794,0.69202 24.80287,9.66489 5.03366,3.11386 9.81605,5.66156 10.62756,5.66156 2.85284,0 4.18835,-3.05911 3.89751,-8.92762 -0.22666,-4.57339 0.13741,-6.20257 1.88157,-8.41991 1.9318,-2.45589 2.71111,-2.71746 7.30194,-2.45089 l 5.13932,0.29842 0.31223,3.78128 c 0.20888,2.52959 -0.38222,4.90492 -1.78568,7.17577 l -2.09792,3.3945 2.28569,0.32422 c 1.82305,0.25861 2.2697,0.93144 2.20671,3.32423 -0.0434,1.65 -0.43029,4.2398 -0.85969,5.75511 -0.73568,2.59616 -0.47152,2.89633 4.57897,5.20309 2.94783,1.34639 7.22925,2.74474 9.51427,3.10744 5.55822,0.88226 6.01082,-0.17303 6.52925,-15.22378 0.25116,-7.2913 0.8929,-12.72939 1.60317,-13.58521 0.65141,-0.7849 2.9053,-1.99504 5.00866,-2.68921 3.33593,-1.10096 4.32742,-1.02429 7.76431,0.60039 3.84898,1.81948 3.94312,1.98927 4.07377,7.34734 0.0736,3.01666 0.46803,7.79918 0.87662,10.62783 0.56414,3.9056 0.35151,5.92752 -0.88374,8.40364 -2.01816,4.04549 -2.0336,5.73507 -0.0948,10.37522 1.71435,4.10303 4.80764,5.76017 8.29741,4.44513 2.92507,-1.10226 4.42806,-0.2649 7.37582,4.10929 2.06499,3.06424 3.67383,4.22009 9.79497,7.0371 0.89418,0.4115 1.62419,2.36568 1.8075,4.83846 0.32807,4.42568 1.84199,5.63669 2.37295,1.89816 0.20512,-1.44429 1.66667,-2.90819 4.08144,-4.08804 l 3.76189,-1.83804 -0.73066,-19.16196 c -0.73823,-19.36009 -0.83859,-25.47776 -0.55227,-33.66196 0.18134,-5.18342 0.54752,-28.87725 0.57182,-37 0.009,-3.025 -0.10997,-11.125 -0.26449,-18 -0.23808,-10.59317 0.0419,-13.4486 1.83543,-18.71845 2.61322,-7.67832 2.61278,-7.91847 -0.0157,-8.60584 -2.26924,-0.59342 -2.2595,-0.76052 0.47654,-8.17571 0.81176,-2.2 1.13616,-4.45 0.7209,-5 -1.92775,-2.55325 -3.29587,-10.75384 -2.54658,-15.2643 0.80533,-4.84778 1.4904,-26.76033 1.83631,-58.7357 l 0.19473,-18 -2.68819,-4.01654 c -1.47851,-2.20909 -3.63937,-4.87733 -4.80191,-5.92941 -2.71776,-2.45954 -7.7404,-12.33501 -8.59767,-16.90467 -0.55602,-2.96381 -0.2488,-3.95354 1.8916,-6.09394 1.40549,-1.40549 2.98549,-2.55544 3.5111,-2.55544 2.21246,0 11.13898,8.17626 11.74758,10.76022 1.03552,4.39657 5.25355,8.23978 9.04338,8.23978 2.34213,0 3.13339,-0.38601 2.76408,-1.34843 -0.65356,-1.70312 7.11925,-11.65157 9.10345,-11.65157 0.81221,0 1.47675,-0.68912 1.47675,-1.53138 0,-0.84227 0.69176,-1.79684 1.53725,-2.12129 1.93772,-0.74357 5.46275,2.36107 5.46275,4.81128 0,3.02933 -3.75943,9.13051 -7.63264,12.387 -4.57756,3.84869 -5.4472,7.9221 -5.84667,27.38573 -0.261,12.7169 -0.51742,14.59324 -2.15844,15.79424 -1.66478,1.21838 -1.84344,2.71021 -1.68487,14.06866 0.21369,15.30639 0.82532,22.16888 2.40149,26.94473 1.08117,3.27599 0.87078,10.39515 -0.6431,21.76103 -1.1051,8.29685 -1.20641,7.97728 2.63118,8.29945 2.94382,0.24714 3.75728,-0.11826 4.65641,-2.09165 0.59921,-1.3151 2.59408,-3.13717 4.43305,-4.04904 7.71872,-3.82737 10.84359,-9.35096 10.84359,-19.16732 0,-5.20165 1.52465,-7.49144 4.98813,-7.49144 1.60477,0 4.1168,-0.54632 5.58229,-1.21404 2.36752,-1.07872 2.87436,-0.9549 4.54705,1.11078 2.31056,2.85342 2.43486,8.33066 0.26424,11.64345 -1.34651,2.05503 -1.39812,2.73511 -0.3073,4.04946 1.97653,2.38158 9.03099,0.95825 17.92559,-3.61673 18.9619,-9.75316 20.62517,-10.29424 28.93771,-9.4137 4.15926,0.44058 9.75684,0.70188 12.43906,0.58066 6.21853,-0.28104 8.62323,1.66879 8.62323,6.99205 0,5.62919 -2.18723,6.58698 -16.24974,7.11579 -8.74082,0.32868 -12.19795,0.84077 -13.5,1.99969 -0.96264,0.85682 -4.00026,2.25708 -6.75026,3.11169 -9.20844,2.86168 -23.90638,8.73156 -34.32547,13.70848 -5.67901,2.71271 -11.52901,5.21009 -13,5.54973 -6.84132,1.57961 -11.95693,3.71239 -15.09163,6.29197 -2.94501,2.42347 -3.54758,3.69469 -4.36155,9.20134 -0.981,6.63672 -1.16235,9.96133 -0.86674,15.88938 0.40094,8.04029 -0.91548,42.95868 -1.82845,48.5 -1.815,11.01622 -1.31825,53.62136 0.63171,54.17972 0.46317,0.13263 1.74213,-1.65355 2.84213,-3.96929 1.67249,-3.52095 2.53538,-4.26198 5.26941,-4.52524 6.33842,-0.61031 9.11252,-8.65534 9.20164,-26.68519 0.062,-12.54622 1.5581,-20.16963 4.29738,-21.89753 2.2474,-1.41761 6.54306,0.77151 7.75165,3.95034 1.1946,3.14205 1.15662,13.00249 -0.0788,20.44719 -2.06743,12.45882 -2.28959,17.00124 -0.8302,16.97555 4.6786,-0.0823 10.97522,-2.62263 16.15837,-6.51887 3.26078,-2.45118 6.504,-4.45668 7.20716,-4.45668 2.8605,0 3.89948,-3.11442 3.66597,-10.98902 -0.12773,-4.30783 0.28992,-10.83093 0.92813,-14.49579 1.35325,-7.77092 3.22669,-9.31933 9.60273,-7.93672 2.10459,0.45637 4.84619,0.71976 6.09243,0.5853 3.41072,-0.36796 3.79934,2.37577 0.83542,5.89819 -1.85192,2.20088 -2.56724,4.14971 -2.48301,6.76477 0.22893,7.10734 1.1975,9.48107 4.19562,10.2824 1.54767,0.41365 3.49446,1.31689 4.32622,2.00718 1.88643,1.5656 3.32152,-0.27291 3.34454,-4.28475 0.0202,-3.51956 5.52092,-6.96352 12.67222,-7.93398 2.91559,-0.39565 6.45666,-1.62835 7.86904,-2.73933 1.41238,-1.11098 3.86375,-2.30457 5.44748,-2.65241 1.58373,-0.34785 3.58866,-1.71476 4.45541,-3.03758 1.55862,-2.37876 1.72666,-2.40119 15.32353,-2.04549 20.41839,0.53415 23.24763,1.40317 23.24763,7.14066 0,1.82519 -0.5625,3.67394 -1.25,4.10832 -0.6875,0.43438 -6.56434,1.29985 -13.05965,1.92326 -11.69898,1.12286 -11.8741,1.17751 -18.68671,5.83237 -3.78238,2.58439 -8.56542,5.16506 -10.62897,5.73484 -3.79023,1.04653 -9.90269,3.89142 -20.87467,9.71559 -3.60486,1.91354 -6.84215,2.97927 -8.10965,2.66973 -1.32215,-0.32288 -2.76232,0.20601 -3.85812,1.41685 -0.96166,1.06262 -4.73732,2.89377 -8.39035,4.06922 -3.65303,1.17545 -7.31688,2.7138 -8.14188,3.41855 -3.17009,2.70804 -18.84109,10.42706 -22.57812,11.12125 -5.71774,1.06211 -11.8465,3.89564 -17.09635,7.9042 -2.53722,1.93731 -5.49847,3.52239 -6.58055,3.52239 -1.69243,0 -11.03163,6.78145 -12.87247,9.34705 -1.19529,1.66589 -3.11618,15.44967 -2.33026,16.72131 0.43418,0.70252 0.68513,12.78703 0.55766,26.85447 -0.12746,14.06745 -0.2841,31.42717 -0.34808,38.57717 -0.17703,19.78343 1.4768,35.5 3.7356,35.5 0.69775,0 1.91328,0.9709 2.7012,2.15757 1.01421,1.52749 2.39395,2.13023 4.72467,2.06396 4.5495,-0.12935 4.83554,-0.79818 1.61703,-3.78101 -2.50634,-2.32279 -2.72085,-3.03388 -2.15674,-7.1495 0.34453,-2.51359 0.62641,-5.7885 0.62641,-7.27758 0,-1.48908 0.9,-3.74513 2,-5.01344 1.45019,-1.67209 2,-3.74136 2,-7.52728 0,-2.8717 0.675,-7.13442 1.5,-9.47272 0.825,-2.3383 1.52367,-6.55738 1.55261,-9.37573 0.0289,-2.81835 0.61454,-8.27427 1.30135,-12.12427 0.68682,-3.85 0.96362,-8.125 0.61513,-9.5 -0.3485,-1.375 -0.43597,-3.0625 -0.19437,-3.75 0.61402,-1.74733 4.16729,-1.56469 4.86365,0.25 0.31659,0.825 1.20246,1.5 1.96862,1.5 0.98835,0 0.81203,0.58098 -0.60699,2 -2.64556,2.64556 -2.53291,3.62902 0.85801,7.49106 3.61094,4.11263 5.65878,15.32466 5.60374,30.6808 -0.0342,9.53561 0.13429,10.57951 1.58225,9.80459 0.89127,-0.47699 2.20108,-1.56683 2.91069,-2.42185 0.70961,-0.85503 2.50091,-1.5546 3.98066,-1.5546 1.69362,0 3.77274,-1.12965 5.6115,-3.0489 2.6074,-2.72154 3.45963,-3.01681 7.93709,-2.75 4.52496,0.26964 5.04689,0.0821 5.33098,-1.91575 0.23562,-1.65703 -0.31269,-2.37218 -2.17764,-2.84025 -1.37091,-0.34408 -2.71371,-1.20188 -2.98399,-1.90623 -0.43808,-1.14163 0.47728,-9.74024 1.92032,-18.03887 0.28691,-1.65 0.61273,-5.99989 0.72403,-9.66643 0.1113,-3.66654 0.42736,-6.83792 0.70236,-7.04752 1.39473,-1.06303 6.32095,-2.78605 7.96549,-2.78605 2.96993,0 6.26463,6.26589 5.9218,11.26211 -0.15994,2.33084 0.30101,7.56179 1.02432,11.62434 0.72332,4.06255 1.07367,9.18665 0.77855,11.38689 -0.68688,5.12108 0.66255,8.72666 3.26604,8.72666 1.37583,0 2.19422,-0.86361 2.60603,-2.75 1.8973,-8.69108 4.16079,-10.714 10.86346,-9.70887 6.51964,0.97768 11.92264,-3.15323 9.65825,-7.3843 -0.4999,-0.93405 -1.06078,-5.88772 -1.24642,-11.00816 -0.30247,-8.34308 -0.1321,-9.46009 1.64062,-10.75633 2.50108,-1.82885 10.15923,-0.90092 13.02186,1.57783 1.1,0.95249 2.77409,2.00459 3.7202,2.338 2.58774,0.91191 3.12497,4.90874 1.35898,10.11034 -2.40607,7.08692 -2.15935,8.28527 1.67082,8.11538 3.21159,-0.14245 3.91516,-0.67816 15.75,-11.99221 4.75454,-4.54532 7.77152,-6.02527 12.5,-6.13177 2.2,-0.0496 6.25,-0.57527 9,-1.16825 6.30643,-1.35985 22.25031,-0.47711 25.25,1.39798 1.70344,1.06482 2.25,2.34653 2.25,5.27642 0,4.25998 -1.04134,5.08394 -6.42524,5.08394 -1.79391,0 -5.87755,0.9 -9.07476,2 -3.19721,1.1 -8.10659,2 -10.90975,2 -4.22039,0 -5.94302,0.60175 -10.01947,3.5 -3.93452,2.79734 -5.86017,3.5 -9.59181,3.5 -3.46368,0 -5.15651,0.53869 -6.55745,2.08672 -2.48097,2.74144 -9.61834,7.52998 -12.57766,8.43849 -1.28912,0.39576 -2.79386,1.06678 -3.34386,1.49115 -0.55,0.42437 -5.05,1.77413 -10,2.99948 -4.95,1.22534 -9.99667,2.84806 -11.21482,3.60603 -1.21815,0.75797 -2.63836,1.37813 -3.15603,1.37813 -0.51766,0 -6.68243,2.75019 -13.69948,6.11153 -11.07691,5.30612 -13.32604,6.04754 -17.06655,5.62593 -3.58357,-0.40392 -4.40834,-0.17036 -4.90309,1.38847 -0.57357,1.80717 -1.59418,2.28489 -4.17868,1.95592 -0.67025,-0.0853 -1.791,0.76136 -2.49054,1.88151 -0.75199,1.20413 -2.33925,2.03664 -3.88304,2.03664 -1.51077,0 -3.87684,1.20957 -5.6146,2.87026 -1.69314,1.61806 -6.01146,3.8544 -9.89831,5.12607 -3.79217,1.24069 -7.82386,3.09908 -8.95931,4.12974 -1.13542,1.03066 -2.99282,1.87393 -4.12753,1.87393 -1.1347,0 -2.6506,0.70789 -3.36865,1.57309 -0.71805,0.8652 -3.01657,2.44598 -5.10782,3.51286 -5.0728,2.58795 -6.44585,5.02681 -7.77557,13.81114 -0.61585,4.0684 -1.3785,7.81578 -1.69476,8.32751 -1.2098,1.9575 -1.42803,88.20155 -0.25443,100.55085 0.64162,6.7515 1.44704,12.44878 1.78982,12.66063 0.34278,0.21185 2.06294,-0.22017 3.82258,-0.96004 5.38685,-2.265 5.8904,-4.94066 6.68858,-35.5401 0.7314,-28.03906 1.41178,-34.55267 3.76994,-36.09128 2.62068,-1.70989 6.22554,-0.3921 8.63158,3.15534 2.1532,3.17467 2.31675,4.19714 1.75943,11 -1.4646,17.87777 -2.4504,41.58391 -1.89708,45.62076 0.54465,3.97366 0.85673,4.37924 3.3697,4.37924 1.67246,0 4.34514,-1.31644 6.74739,-3.32346 2.18786,-1.82791 6.84293,-4.32255 10.34461,-5.54366 12.20762,-4.25705 12.86669,-4.70007 12.86669,-8.64882 0,-1.95156 -0.69098,-5.20206 -1.53552,-7.22332 -1.18813,-2.84359 -1.28901,-4.27015 -0.4459,-6.30559 0.59929,-1.44681 0.98661,-3.0411 0.86071,-3.54286 -0.1259,-0.50176 0.13111,-3.98656 0.57115,-7.744 0.58491,-4.9946 0.45151,-7.48299 -0.49611,-9.25362 -1.02856,-1.92188 -1.05441,-3.46919 -0.12524,-7.49457 0.644,-2.78998 1.17091,-6.35155 1.17091,-7.9146 0,-4.96057 0.8965,-6.0055 5.15244,-6.0055 2.84825,0 4.61792,0.67945 6.39301,2.45455 2.43309,2.43308 2.45455,2.61994 2.45455,21.375 0,25.10291 0.77694,28.38937 5.4823,23.19001 0.98575,-1.08925 3.418,-2.28486 5.40499,-2.65693 1.98699,-0.37206 5.07521,-1.2869 6.86271,-2.03297 2.81015,-1.17291 3.25,-1.84175 3.25,-4.94195 0,-1.972 0.74099,-5.14696 1.64664,-7.05548 1.29315,-2.72512 1.42714,-4.18518 0.62418,-6.80148 -0.69608,-2.26802 -0.69659,-5.0391 -0.002,-8.6811 1.75548,-9.19945 3.87265,-10.0055 9.91814,-3.77603 5.24374,5.40331 6.91442,10.39575 6.37154,19.03989 l -0.4321,6.88649 3.40162,0 c 2.33427,0 3.72495,-0.60417 4.4321,-1.92548 0.56677,-1.05902 3.26049,-3.37048 5.98605,-5.13658 5.45608,-3.53542 7.73107,-7.30401 8.70686,-14.42315 0.35053,-2.55745 1.61549,-6.082 2.81101,-7.83234 2.0169,-2.95291 2.52843,-3.15901 7.09217,-2.85742 5.02946,0.33237 6.72523,1.51741 5.97428,4.17497 -1.65771,5.86656 -1.68577,9.00318 -0.086,9.61706 1.80536,0.69278 8.6222,-1.94758 12.43234,-4.81541 1.30725,-0.98395 6.68964,-3.17051 11.96087,-4.85904 9.24465,-2.96132 10.23326,-3.07085 27.91645,-3.09286 18.82474,-0.0234 21.27816,0.44168 21.21897,4.02269 -0.0148,0.89516 -1.33989,3.20256 -2.94464,5.12756 -2.74271,3.29004 -3.02027,3.39865 -4.62682,1.81057 -1.60553,-1.58708 -1.81916,-1.54949 -3.52588,0.62025 -1.61803,2.05699 -2.71022,2.32125 -9.98287,2.4154 -9.14788,0.11842 -11.34,0.60665 -14.77775,3.29134 -1.31169,1.02434 -3.34906,1.86244 -4.52751,1.86244 -1.17845,0 -3.03027,0.61097 -4.11514,1.35771 -1.08488,0.74674 -3.77251,1.9342 -5.97251,2.63881 -2.2,0.7046 -5.125,2.05437 -6.5,2.99949 -1.375,0.94511 -6.55,2.96487 -11.5,4.48835 -4.95,1.52348 -12.39684,4.47218 -16.54854,6.55267 -4.15169,2.08049 -11.35169,5.19821 -16,6.92828 -4.6483,1.73007 -10.02646,3.85866 -11.95146,4.7302 -1.925,0.87155 -9.575,3.71281 -17,6.31392 -7.425,2.60111 -16.875,6.08093 -21,7.73293 -4.125,1.65201 -9.62631,3.50608 -12.22513,4.12015 -2.59882,0.61408 -7.5924,2.47123 -11.09684,4.127 -3.50444,1.65577 -7.54785,3.01049 -8.98534,3.01049 -2.169,0 -21.83226,9.37324 -25.19269,12.00904 -0.55,0.4314 -2.90012,1.3484 -5.2225,2.0377 -2.32237,0.6894 -5.13487,2.1034 -6.25,3.1423 -2.22828,2.0759 -2.259,2.5012 -2.53421,35.0852 -0.0779,9.2258 -0.55829,17.1849 -1.06749,17.6868 -0.50919,0.502 -2.91583,1.0536 -5.34808,1.2258 -2.43225,0.1723 -4.57458,0.7777 -4.76073,1.3454 -0.18616,0.5677 2.14137,2.5351 5.17227,4.372 3.47904,2.1086 5.51074,4.0193 5.51074,5.1826 0,1.0136 0.86952,2.3082 1.93228,2.8769 3.09758,1.6578 3.45449,4.6744 1.01926,8.6147 l -2.19286,3.5481 2.13525,1.9893 c 2.10119,1.9575 2.13102,2.4708 1.87065,32.1867 l -0.26458,30.1975 -5.72469,0.2991 -5.72469,0.2992 -1.12308,4.2008 c -1.87931,7.0295 -2.66828,7.3821 -12.83755,5.7372 z m -84.05321,-204.12513 c 1.38871,-3.35266 0.33966,-5.37663 -2.2681,-4.37594 -1.49912,0.57527 -2.76106,5.9876 -1.95787,8.39715 0.56237,1.68712 2.70666,-0.35328 4.22597,-4.02121 z m 182.21322,-321.57349 c -1.97653,-0.79755 -1.45604,-3.13755 0.86151,-3.87311 1.31917,-0.41869 2.67693,-0.10474 3.61832,0.83665 2.60174,2.60174 -0.44288,4.6654 -4.47983,3.03646 z M -395.76187,8.98126 c -1.75568,-1.75567 -0.064,-2.33333 6.83333,-2.33333 8.63006,0 9.99063,1.42226 2.25,2.35202 -6.70728,0.80564 -8.26221,0.80244 -9.08333,-0.0187 z"
           style="fill:#adcda3" />
        <path
           inkscape:connector-curvature="0"
           id="path4170"
           d="m -621.21488,854.70067 c -2.35749,-0.3832 -4.87181,-1.3394 -5.58738,-2.1248 -2.1825,-2.3954 -3.67772,-11.2835 -2.53638,-15.0771 2.10072,-6.9824 2.62466,-19.5521 1.71257,-41.0859 -1.10568,-26.1044 -1.07498,-30.3271 0.27641,-38.02 0.98681,-5.6176 0.92388,-5.9037 -2.63292,-11.9725 -2.00414,-3.4195 -3.87194,-7.6226 -4.15065,-9.3401 -0.53094,-3.2718 1.39476,-8.1003 4.13875,-10.3776 1.85922,-1.543 1.94146,-5.7973 0.23693,-12.2563 -1.54118,-5.8399 -1.85976,-6.153 -6.09956,-5.9936 -1.96562,0.074 -5.28595,-0.8932 -7.75446,-2.2585 -2.37434,-1.3133 -6.45975,-2.7004 -9.07869,-3.0824 -2.61895,-0.382 -5.76895,-1.4808 -7,-2.4417 -1.23106,-0.9609 -3.34467,-2.0941 -4.69693,-2.5183 -3.18107,-0.9977 -13.42299,-6.83095 -18.54135,-10.56005 -2.2,-1.60286 -6.3625,-4.2748 -9.25,-5.93764 -5.01638,-2.88881 -6.46426,-5.13776 -4.2062,-6.53332 0.5741,-0.35481 1.67433,-0.12183 2.44496,0.51774 2.44465,2.02888 5.97471,0.82518 6.31938,-2.15483 0.35508,-3.06998 -1.12155,-3.77121 -7.30814,-3.47053 -3.06166,0.1488 -4.23157,0.71522 -4.98713,2.41455 -0.54292,1.22108 -1.57335,2.22014 -2.28984,2.22014 -1.9301,0 -8.22427,-3.40362 -12.29858,-6.65055 -3.85468,-3.0719 -11.6969,-6.84743 -16.24035,-7.81868 -1.99072,-0.42555 -3.23794,-1.61204 -4.2561,-4.04884 -1.55458,-3.72063 -4.65209,-5.14447 -8.88204,-4.08282 -2.5874,0.64939 -6.54596,-2.43242 -6.54596,-5.09615 0,-1.03837 -0.39834,-1.07114 -1.86753,-0.15361 -2.08359,1.30122 -2.38756,1.19158 -10.13247,-3.65477 -3.025,-1.89289 -7.3,-4.30017 -9.5,-5.34952 -2.2,-1.04935 -9.57489,-5.99583 -16.38863,-10.99217 -15.12917,-11.09381 -18.89931,-12.52019 -31.41898,-11.88695 -11.88954,0.60137 -19.07275,-0.2593 -19.46902,-2.33272 -0.49007,-2.56416 3.60493,-6.80149 7.78266,-8.05317 2.86737,-0.85909 4.16085,-1.91999 4.88957,-4.01043 0.88588,-2.54122 1.34116,-2.78164 4.29762,-2.26944 5.37766,0.93166 5.80678,1.21754 5.80678,3.86844 0,3.0195 0.82851,3.09919 9.52096,0.91572 l 6.43199,-1.61567 6.21127,4.61567 c 3.41619,2.53861 6.93935,4.61566 7.82924,4.61566 0.88989,0 3.14283,1.125 5.00654,2.5 1.86371,1.375 3.89769,2.5 4.51997,2.5 0.62227,0 2.12451,1.05712 3.33832,2.34915 1.85225,1.97163 2.04097,2.78562 1.17431,5.0651 -1.62043,4.26206 -1.32354,4.89394 1.98823,4.23158 2.29419,-0.45883 3.53965,-0.0854 5.17767,1.55267 2.49585,2.49585 9.26006,2.64997 13.77749,0.31391 3.49041,-1.80495 5.41298,-8.04883 4.50689,-14.63688 -0.57324,-4.16793 -0.29303,-5.52377 1.92306,-9.30524 1.42673,-2.43453 2.59406,-5.76065 2.59406,-7.39137 0,-4.05535 2.24115,-4.58043 5.41418,-1.2685 2.68249,2.79992 4.66141,10.73643 4.54952,18.24597 -0.0274,1.83898 0.24412,5.0339 0.60337,7.0998 0.92022,5.29178 -0.22215,10.18044 -3.20818,13.72914 -3.30962,3.93326 -2.51649,5.71274 3.23144,7.25007 4.85058,1.29734 6.47619,3.09808 4.54245,5.03182 -2.978,2.978 0.8458,8.10588 6.87325,9.21732 3.24418,0.59822 3.59387,0.41378 4.68221,-2.46954 1.089,-2.88509 0.9959,-3.18459 -1.25603,-4.04077 -2.88136,-1.09549 -2.92074,-1.47633 -0.79523,-7.68928 0.90033,-2.63172 1.68783,-7.78627 1.75,-11.45455 0.0948,-5.59183 0.50477,-7.08657 2.53733,-9.25 2.40902,-2.56411 6.42727,-3.43858 7.53851,-1.64055 0.34357,0.5559 2.01972,0.33865 4.10304,-0.53181 4.38943,-1.83403 5.09018,-1.4034 5.94445,3.65301 0.57386,3.39665 0.26504,4.65562 -1.91298,7.79851 -2.2355,3.22582 -2.59733,4.7985 -2.59733,11.2892 0,6.27127 0.33681,7.84608 2,9.35124 1.1,0.99549 2,2.69962 2,3.78695 0,1.08734 0.92648,3.47605 2.05884,5.30825 1.77452,2.87124 2.46186,3.25066 4.97736,2.74756 2.52672,-0.50534 3.15651,-0.15008 4.69117,2.64628 0.97495,1.77649 2.5311,4.19321 3.45812,5.37047 1.61781,2.05455 1.7582,2.06893 3.4966,0.35818 2.2494,-2.21364 3.58526,-14.61681 3.20069,-29.71769 -0.46347,-18.19844 0.63067,-38.79638 2.14525,-40.38614 0.46433,-0.48737 3.07406,-1.06198 5.7994,-1.27691 4.19666,-0.33096 5.42541,0.005 8.02725,2.19422 2.61173,2.19763 2.98125,3.06331 2.46588,5.77691 -0.88817,4.67662 -2.85572,8.12299 -6.28464,11.00824 -3.9524,3.32573 -3.82925,5.31501 0.57902,9.35283 3.98148,3.64689 4.12941,5.49076 1.00927,12.5796 -1.58221,3.59471 -1.5673,3.81956 0.36289,5.47224 2.12618,1.82048 2.73368,5.87208 0.96869,6.46041 -0.57431,0.19144 -1.26599,2.36644 -1.53707,4.83334 -0.73802,6.71635 -0.76182,22.62109 -0.0356,23.79614 1.12182,1.81515 9.78753,6.18912 12.26189,6.18912 2.07956,0 2.30736,0.3416 1.73869,2.60733 -0.83275,3.31791 0.73521,4.35621 6.6163,4.38111 2.65098,0.011 5.79658,0.8096 7.6555,1.9431 3.79489,2.314 4.56802,1.7769 3.74639,-2.6028 -0.52318,-2.7888 -0.10675,-3.90085 2.62637,-7.01371 l 3.24814,-3.69942 -0.61963,-9.43297 c -0.3408,-5.18813 -1.03814,-9.93914 -1.54966,-10.5578 -0.51151,-0.61866 -1.86964,-3.59984 -3.01806,-6.62484 -3.26423,-8.59814 -2.67853,-14 1.51794,-14 2.82305,0 2.81413,0.0361 0.89917,-3.63569 -2.00848,-3.85109 -1.88948,-6.0888 0.38866,-7.30802 4.57713,-2.4496 4.90726,-12.6455 0.50289,-15.53135 -2.57318,-1.68602 -3.1444,-5.26123 -1.37024,-8.57628 0.71349,-1.33316 0.66725,-3.87488 -0.15131,-8.31738 -1.11125,-6.03095 -1.04958,-6.57899 1.07623,-9.56442 2.6537,-3.72677 5.01899,-11.94767 5.03574,-17.50241 0.008,-2.60611 0.71936,-4.68863 2.10626,-6.16492 2.87564,-3.06099 1.80141,-6.39953 -2.05915,-6.39953 -1.5565,0 -5.63721,-1.39281 -9.06825,-3.09513 -3.43105,-1.70231 -8.92474,-3.47485 -12.2082,-3.93897 -5.80682,-0.82078 -6.2002,-1.07776 -14.39715,-9.40487 -4.63497,-4.70857 -8.98162,-8.56103 -9.65924,-8.56103 -0.67761,0 -2.80035,-0.83456 -4.71721,-1.85458 -1.91685,-1.02002 -5.96019,-2.42775 -8.98519,-3.12829 -8.10444,-1.87684 -11.87545,-3.89355 -18,-9.62626 -3.025,-2.83146 -6.75539,-5.4408 -8.28975,-5.79852 -1.53437,-0.35773 -6.02273,-2.66235 -9.97414,-5.12138 -3.95141,-2.45903 -7.68392,-4.47097 -8.29446,-4.47097 -0.61055,0 -3.77219,-1.87198 -7.02587,-4.15995 -3.25368,-2.28798 -8.50131,-5.17877 -11.6614,-6.42398 -3.16009,-1.24521 -6.93328,-3.19823 -8.38486,-4.34004 -1.45158,-1.14182 -3.40881,-2.07603 -4.34939,-2.07603 -0.94059,0 -2.52464,-0.9 -3.52013,-2 -1.12932,-1.24789 -3.07997,-2 -5.18711,-2 -1.85742,0 -5.04931,-0.69868 -7.09308,-1.55262 -3.16596,-1.32283 -5.01628,-1.38362 -12.50142,-0.41078 -8.44482,1.09758 -16.72054,0.65962 -21.46839,-1.1361 -1.49491,-0.56541 -2.25,-1.67849 -2.25,-3.31673 0,-2.90121 0.97362,-3.64274 7,-5.33135 5.91612,-1.65771 38.48618,-2.90534 40.21652,-1.54054 0.70592,0.55679 2.49099,1.30044 3.96683,1.65256 1.47584,0.35211 2.97639,1.5635 3.33455,2.69196 0.35816,1.12846 2.61188,3.00432 5.00827,4.16857 5.47099,2.65802 7.42697,1.47066 7.57351,-4.59741 0.16497,-6.83101 1.16306,-9.09058 4.17074,-9.44214 4.47991,-0.52363 7.70858,3.60811 7.82926,10.01913 0.16984,9.02283 0.58794,9.62702 8.90423,12.86735 12.03748,4.69024 16.87565,3.5895 17.11255,-3.89333 0.12409,-3.91959 -0.009,-11.59602 -0.22401,-12.89595 -0.41246,-2.49665 0.41419,-3.28262 3.45256,-3.28262 6.05597,0 7.50379,3.15263 7.80713,17 0.158,7.21228 -0.19014,10.25842 -1.44568,12.64941 -1.28451,2.44617 -1.38055,3.36157 -0.43012,4.09954 1.55277,1.20567 18.91084,8.25105 20.32855,8.25105 0.58321,0 2.53216,-1.83143 4.33099,-4.06984 2.69147,-3.34916 3.16059,-4.63298 2.64928,-7.25 -2.06932,-10.59131 -1.43374,-19.3902 1.69246,-23.43016 1.17941,-1.52415 4.3625,-1.64132 5.25728,-0.19353 2.93779,4.75344 3.68614,36.6807 0.89637,38.24193 -1.65207,0.92455 -1.9398,3.7016 -0.38352,3.7016 0.57626,0 2.03876,1.05839 3.25,2.35197 6.07866,6.49193 14.4746,12.79238 19.58062,14.69362 6.49914,2.41997 11.12163,6.37492 11.12163,9.51555 0,2.96028 4.94001,11.62428 6.36133,11.15676 1.78087,-0.5858 1.90166,-4.25475 0.18693,-5.67785 -1.88058,-1.56074 -1.95551,-4.91988 -0.16243,-7.28155 1.81679,-2.39289 0.90534,-11.38502 -1.56927,-15.48208 -2.26802,-3.75504 -1.87358,-9.35283 1.27276,-18.06245 1.65833,-4.59055 1.72816,-5.57732 0.53078,-7.5 -1.71713,-2.75725 -1.00863,-9.71397 0.98931,-9.71397 0.82613,0 1.39059,-1.04147 1.39059,-2.56574 0,-1.41116 0.49696,-3.49431 1.10435,-4.62923 0.93049,-1.73865 0.6931,-2.39736 -1.50795,-4.18426 l -2.61229,-2.12077 -0.10041,-20 c -0.0902,-17.961 0.4577,-33.70502 1.3064,-37.54147 0.21991,-0.9941 -1.09912,-1.57108 -4.54253,-1.98704 -3.09627,-0.37402 -5.20114,-1.20929 -5.81598,-2.30793 -1.47936,-2.64348 -8.23198,-6.52071 -13.3567,-7.66919 -2.53415,-0.56791 -5.88577,-1.9776 -7.44804,-3.13264 -1.90235,-1.40647 -4.26777,-2.08037 -7.16196,-2.04043 -2.62251,0.0362 -5.55583,-0.70324 -7.46121,-1.88083 -1.72686,-1.06726 -3.7683,-1.94047 -4.53652,-1.94047 -2.09256,0 -8.82642,-3.78771 -13.53546,-7.61351 -2.29256,-1.86257 -4.77993,-3.38649 -5.52749,-3.38649 -0.74756,0 -2.24683,-0.61105 -3.3317,-1.35788 -1.08488,-0.74684 -3.99751,-1.58467 -6.47251,-1.86185 -5.99893,-0.67184 -13.46529,-4.31129 -14.7845,-7.20664 -0.78518,-1.72328 -2.46561,-2.66236 -6.39041,-3.57113 -2.9288,-0.67816 -10.62857,-3.88115 -17.1106,-7.11776 l -11.78551,-5.88474 -10.3537,0 c -11.70205,0 -14.47896,-1.21472 -14.85936,-6.5 -0.19319,-2.68421 0.0602,-2.97179 2.40729,-2.73203 1.86785,0.19081 3.08948,-0.44363 4.24244,-2.20326 2.33831,-3.56873 7.58272,-4.31478 12.46011,-1.77254 3.20734,1.67175 4.64977,1.86078 8.58672,1.12528 5.72467,-1.06948 7.04369,-0.56379 22.08752,8.46803 6.05,3.63222 11.98698,6.6064 13.1933,6.60928 3.64106,0.009 5.3195,-3.55066 4.67754,-9.91933 -0.4851,-4.81256 -0.26315,-5.89057 1.62208,-7.8786 1.72621,-1.82035 3.05647,-2.23962 6.34557,-2 3.99257,0.29086 4.17377,0.44978 4.46361,3.91453 0.22602,2.70183 -0.34065,4.37522 -2.25,6.64435 -3.17689,3.77553 -3.17918,4.24429 -0.0207,4.24429 3.35327,0 3.84144,1.69186 1.99676,6.92025 -0.84048,2.38216 -1.52814,4.43817 -1.52814,4.56891 0,0.96399 12.50727,5.51875 16.65277,6.06444 6.62798,0.87245 6.91772,0.32002 7.63304,-14.5536 0.30419,-6.325 0.86891,-12.30427 1.25492,-13.28726 0.38601,-0.98299 2.22226,-2.42253 4.08056,-3.19897 2.92548,-1.22235 3.8482,-1.21555 6.87871,0.0507 4.01006,1.67551 4.14442,2.04221 1.75,4.77637 -1.5319,1.74926 -1.54683,1.9245 -0.1198,1.4061 1.31194,-0.47659 1.75122,0.32005 2.25003,4.08043 0.34091,2.56996 0.89887,6.40149 1.23993,8.51453 0.48481,3.00362 0.15752,4.46755 -1.50003,6.7095 -2.62251,3.54714 -2.62197,3.95673 0.0128,9.74045 2.79682,6.13941 4.45961,7.33933 9.15758,6.60842 3.54615,-0.55172 4.05327,-0.29125 7.86574,4.03994 2.24137,2.54633 5.57057,5.25449 7.39823,6.01814 2.94546,1.23069 3.35838,1.88003 3.63426,5.71506 0.35443,4.92701 3.0911,6.22387 3.61452,1.71285 0.29344,-2.52904 3.50407,-4.88624 6.6553,-4.88624 1.04955,0 1.45098,-2.59644 1.73931,-11.25 0.20616,-6.1875 0.003,-11.76755 -0.45108,-12.40012 -0.686,-0.95528 -0.82687,-10.05261 -0.53966,-34.84988 0.0191,-1.65 0.0483,-8.4 0.0649,-15 0.12963,-51.53504 0.0915,-50.66765 2.486,-56.5 2.37541,-5.78576 2.31266,-8 -0.22671,-8 -1.65011,0 -2.19508,-4.47178 -0.66054,-5.42017 2.03278,-1.25633 2.03605,-6.74099 0.007,-11.84735 -1.85352,-4.66476 -1.9612,-5.93772 -0.99242,-11.73248 0.59767,-3.575 1.29819,-22.14421 1.55671,-41.2649 l 0.47003,-34.76491 -2.8694,-4.25163 c -1.57816,-2.3384 -3.87126,-5.14419 -5.09577,-6.2351 -2.43343,-2.16803 -8.94695,-14.94476 -8.94695,-17.55028 0,-1.87516 3.05906,-4.9332 4.93484,-4.9332 2.51124,0 9.31349,6.4126 11.05297,10.41983 2.49682,5.75191 5.65772,8.19747 10.51219,8.13316 3.76983,-0.0499 3.98138,-0.21209 3.67649,-2.81784 -0.26285,-2.24641 0.73976,-3.80294 5.34697,-8.30101 3.11876,-3.04489 6.15719,-5.37392 6.75206,-5.17563 2.23531,0.7451 3.27296,3.65991 1.95492,5.49149 -0.69263,0.9625 -1.74685,2.9875 -2.34271,4.5 -0.59586,1.5125 -1.50758,2.75 -2.02605,2.75 -0.51846,0 -2.27444,0.98463 -3.90217,2.18806 -2.43587,1.80091 -2.95951,2.90792 -2.95951,6.2566 0,2.2377 -0.49796,5.64057 -1.10658,7.56194 -0.60862,1.92137 -1.02241,8.82586 -0.91955,15.34331 0.16976,10.75586 -0.004,12.05355 -1.88501,14.0555 -1.93221,2.05675 -2.04023,3.07912 -1.6007,15.15009 0.5838,16.03277 0.89406,19.42852 2.52464,27.63196 1.10726,5.57062 1.06604,7.82269 -0.28224,15.41801 -0.8684,4.89199 -1.88044,9.8685 -2.24898,11.05891 -0.49611,1.60249 -0.12274,2.4573 1.43819,3.29268 2.9078,1.55621 8.86134,0.30797 9.59776,-2.0123 0.32215,-1.015 2.25,-2.83942 4.2841,-4.05427 8.59757,-5.1348 9.9535,-7.6849 11.71893,-22.03986 0.55206,-4.48881 0.69971,-4.66452 4.27562,-5.08816 2.0371,-0.24133 4.4333,-0.7625 5.32488,-1.15814 3.9644,-1.75922 6.97905,8.40785 3.37894,11.39567 -0.825,0.68469 -1.5,2.07823 -1.5,3.09676 0,2.37444 4.84289,4.89312 7.5,3.90058 1.1,-0.41089 2.3093,-0.56926 2.68734,-0.35192 0.37803,0.21734 3.75303,-1.26713 7.5,-3.29882 10.99883,-5.96382 11.75606,-6.33398 12.97037,-6.34044 0.63675,-0.003 3.47554,-1.20869 6.30844,-2.67845 5.03412,-2.61179 5.34751,-2.64747 13.84229,-1.57568 4.78036,0.60313 10.08149,0.86524 11.7803,0.58246 3.8405,-0.63929 6.41126,1.65184 6.41126,5.71389 0,4.47918 -3.06477,5.87117 -13.01775,5.91253 -4.66524,0.0194 -9.35881,0.0574 -10.43015,0.0844 -1.07135,0.027 -3.54635,0.93625 -5.5,2.02047 -1.95366,1.08421 -7.3771,3.36305 -12.0521,5.06409 -4.675,1.70103 -11.2,4.08649 -14.5,5.30102 -3.3,1.21454 -10.275,4.31342 -15.5,6.88642 -5.225,2.573 -12.19555,5.37662 -15.49011,6.23026 -6.37862,1.65275 -14.94554,6.53936 -15.92102,9.08143 -0.32388,0.84401 -0.58887,2.90805 -0.58887,4.58676 0,1.6787 -0.51424,4.76858 -1.14276,6.86638 -0.80635,2.69136 -0.84948,5.29744 -0.14652,8.8527 0.76406,3.86425 0.6885,5.47787 -0.32419,6.92368 -0.97419,1.39086 -1.06649,2.77058 -0.352,5.26186 0.53263,1.85717 0.71451,5.40234 0.40419,7.87815 -0.31033,2.4758 -0.72142,9.45146 -0.91355,15.50146 -0.19213,6.05 -0.8302,17.75 -1.41794,26 -0.76608,10.75333 -0.75954,17.83625 0.0231,25.01815 0.74297,6.81792 0.77081,11.18037 0.0871,13.65644 -0.70354,2.54803 -0.67688,3.96599 0.089,4.73185 1.82711,1.82711 4.52151,1.22663 5.18902,-1.15644 1.44088,-5.14403 2.84572,-6.88118 5.10606,-6.31388 3.22461,0.80933 7.91202,-4.94061 9.29871,-11.4065 0.60488,-2.82043 1.09978,-10.43875 1.09978,-16.92961 0,-15.5791 2.16987,-22.13302 6.83734,-20.65163 1.1332,0.35967 2.40575,1.64342 2.8279,2.85278 1.19347,3.41903 0.55753,20.45967 -1.04257,27.93647 -0.79305,3.7057 -1.19421,7.68479 -0.89148,8.84243 0.4915,1.87952 1.04375,2.03761 5.15961,1.47697 5.4084,-0.73671 12.26405,-3.44681 13.42484,-5.30696 0.4486,-0.71887 3.2611,-2.68718 6.25,-4.37401 2.9889,-1.68683 5.48561,-3.36151 5.54825,-3.72151 0.0626,-0.36 0.25173,-5.82954 0.42022,-12.15454 0.16849,-6.325 0.71195,-12.85 1.2077,-14.5 1.21196,-4.0338 4.90618,-5.32096 9.16862,-3.19457 1.75567,0.87584 3.84405,1.34228 4.64085,1.03652 1.93128,-0.7411 1.82871,-0.0135 -0.54754,3.88388 -1.27685,2.09423 -1.96169,4.89588 -1.90032,7.77417 0.15537,7.28734 1.08041,9.29094 4.72565,10.23551 1.79575,0.46533 3.51698,1.5027 3.82495,2.30527 0.30798,0.80257 1.17526,1.45922 1.92729,1.45922 1.57206,0 4.41869,-5.00317 4.41869,-7.7662 0,-2.44669 6.75703,-6.23225 11.13615,-6.23892 1.85012,-0.003 5.16385,-1.11378 7.36385,-2.46879 2.2,-1.35502 4.98186,-2.47772 6.18191,-2.49488 1.21404,-0.0174 3.05054,-1.25107 4.14012,-2.78121 l 1.95822,-2.75 12.85987,0.15646 c 18.30957,0.22277 22.35988,1.28128 22.35988,5.84354 0,3.58077 -1.86309,4.30309 -12.5529,4.86673 -12.71971,0.67067 -14.83412,1.47152 -24.77383,9.38327 -1.55469,1.2375 -3.71555,2.25 -4.80191,2.25 -1.08635,0 -7.81977,2.87818 -14.96314,6.39595 -8.17048,4.02358 -13.73644,6.20023 -15.00587,5.86826 -1.30601,-0.34153 -2.96768,0.36356 -4.71012,1.99864 -1.48073,1.38949 -4.23323,2.85177 -6.11667,3.24951 -1.88344,0.39775 -4.80844,1.53575 -6.5,2.52889 -1.69156,0.99314 -5.55056,3.05881 -8.57556,4.59038 -3.025,1.53156 -6.68441,3.58383 -8.13202,4.5606 -1.44761,0.97677 -5.27261,2.4085 -8.5,3.18163 -8.24377,1.97482 -10.82761,3.12192 -16.09995,7.14766 -2.54217,1.94108 -5.74662,3.81148 -7.121,4.15643 -3.05455,0.76664 -9.88827,5.30452 -12.77206,8.4812 -2.60874,2.87367 -4.88387,14.31645 -3.89417,19.58569 0.38792,2.06534 0.60697,14.33016 0.48677,27.25516 -0.48766,52.43869 -0.31597,60.12701 1.56325,70 0.51014,2.68014 1.66904,4.14417 4.94742,6.25 2.35467,1.5125 5.01035,2.75 5.90149,2.75 0.89115,0 1.62027,0.38026 1.62027,0.84501 0,1.15529 -3.40977,4.15499 -4.72299,4.15499 -0.58602,0 -2.40762,1.25373 -4.04799,2.78607 -2.31173,2.15947 -3.14533,4.01491 -3.70652,8.25 -0.39822,3.00516 -1.29906,8.16393 -2.00187,11.46393 -1.46147,6.86226 -1.57949,110.66518 -0.12932,113.75 1.02224,2.17453 2.59158,2.20267 6.94935,0.12459 6.14331,-2.92954 6.64333,-5.34118 7.3015,-35.21602 0.63179,-28.67718 1.68401,-36.44814 5.00318,-36.95016 1.07415,-0.16246 3.01876,0.86959 4.39128,2.33057 2.88954,3.07577 2.89738,3.30073 1.1558,33.12593 -0.64761,11.09071 -0.89468,22.22821 -0.54903,24.75 l 0.62846,4.58509 4.17698,0 c 3.33546,0 4.75588,-0.60423 7.05036,-2.99915 1.72534,-1.80087 6.09514,-4.21445 10.93709,-6.04091 13.56551,-5.11711 12.88072,-4.46852 12.07268,-11.43455 -0.90209,-7.77671 -0.65278,-18.88429 0.54421,-24.24627 0.74294,-3.32807 0.58977,-4.96003 -0.72414,-7.71532 -1.39339,-2.92197 -1.47492,-4.13348 -0.49771,-7.39514 0.64278,-2.14539 1.16868,-5.50943 1.16868,-7.47566 0,-4.10871 1.27219,-5.23021 5.4994,-4.84801 6.08597,0.55025 6.5006,2.13408 6.5006,24.83154 0,20.12388 0.58027,24.32347 3.36087,24.32347 0.70978,0 2.29767,-1.07208 3.52865,-2.3824 1.23098,-1.31032 3.89692,-2.65478 5.92431,-2.98769 2.0274,-0.33291 5.14867,-1.50421 6.93617,-2.6029 2.5918,-1.59305 3.25125,-2.65879 3.25616,-5.26231 0.003,-1.79559 0.70962,-4.61383 1.5694,-6.26277 1.15793,-2.22076 1.39481,-4.44923 0.91361,-8.59522 -0.81189,-6.99532 0.85122,-13.90671 3.34643,-13.90671 0.96718,0 3.37188,1.6875 5.34379,3.75 4.16841,4.35991 5.33337,8.75076 4.90832,18.5 l -0.29428,6.75 4.10328,0 c 3.45384,0 4.73639,-0.6331 8.10329,-4 2.2,-2.2 4.64436,-4 5.43191,-4 2.01156,0 5.13905,-4.72379 6.4552,-9.75 0.61209,-2.3375 1.57493,-6.0299 2.13965,-8.20533 1.45655,-5.61099 3.04502,-6.88256 7.64927,-6.12324 l 3.82397,0.63064 0,6.47397 c 0,6.34137 0.0571,6.48052 2.78923,6.79417 1.79899,0.20653 5.17168,-0.99435 9.5,-3.38256 13.43612,-7.41357 18.66632,-8.66354 38.44936,-9.18902 19.50776,-0.51817 22.76141,-0.1443 22.76141,2.61543 0,2.70903 -3.18379,5.16214 -5.8088,4.47569 -1.60713,-0.42028 -2.91532,0.14955 -4.65645,2.02825 -1.33176,1.437 -3.03024,2.37909 -3.77438,2.09354 -0.74415,-0.28556 -5.01903,-0.10904 -9.49974,0.39226 -5.77211,0.64578 -8.93135,1.52863 -10.83854,3.02883 -1.4805,1.16455 -3.53275,2.11737 -4.56057,2.11737 -1.02782,0 -3.54797,0.9 -5.60034,2 -2.05236,1.1 -4.33309,2 -5.0683,2 -0.73521,0 -3.23517,1.11255 -5.55548,2.47234 -2.3203,1.35979 -8.25043,3.76764 -13.17807,5.35078 -4.92763,1.58313 -11.65933,4.35616 -14.95933,6.16228 -3.3,1.80611 -8.925,4.32262 -12.5,5.59222 -12.49589,4.43772 -15.2626,5.50681 -18.25303,7.05323 -1.65687,0.8568 -8.01525,3.12907 -14.12973,5.04949 -6.11448,1.92042 -12.12736,4.13678 -13.36196,4.92526 -2.98112,1.90389 -15.50194,6.39118 -17.87627,6.40661 -1.03345,0.007 -5.39414,1.54683 -9.69041,3.42247 -4.29627,1.87565 -9.69627,3.71041 -12,4.07724 -2.30373,0.36683 -5.76951,1.68756 -7.70172,2.93495 -1.93222,1.2474 -4.63222,2.60532 -6,3.01762 -1.36779,0.4123 -4.51188,2.02037 -6.98688,3.57345 -2.475,1.5532 -7.02629,3.7644 -10.11398,4.9139 -9.17312,3.4151 -8.81494,2.2779 -9.65153,30.644 l -0.73449,24.9042 -4.81966,0.5537 c -4.69371,0.5392 -6.93033,2.1435 -6.07216,4.3556 0.39489,1.0179 3.66784,3.3203 9.091,6.3952 1.39035,0.7884 2.30082,2.2456 2.30082,3.6826 0,1.4998 0.73864,2.6125 2,3.0129 2.37016,0.7522 2.59771,4.1256 0.4682,6.9411 -2.05968,2.7231 -1.82628,5.8541 0.54688,7.3362 1.95563,1.2213 2.00725,2.1208 1.75,30.4906 l -0.26508,29.2321 -5.08285,-0.3296 c -4.52395,-0.2934 -5.26616,-0.05 -6.75,2.2148 -0.91693,1.3994 -1.66715,3.6694 -1.66715,5.0444 0,2.2922 -2.60502,4.7642 -4.68426,4.4452 -0.44866,-0.069 -2.74459,-0.4388 -5.10208,-0.8221 z m 13.78634,-81.0527 c 0,-1.65 -0.45,-3 -1,-3 -0.55,0 -1,1.35 -1,3 0,1.65 0.45,3 1,3 0.55,0 1,-1.35 1,-3 z M -707.67123,655.89793 c 2.74028,-3.97982 4.54559,-8.95089 3.72992,-10.27067 -0.86575,-1.40081 -5.32458,-0.42057 -7.66048,1.68411 -1.20628,1.08687 -1.53134,2.5303 -1.16475,5.17209 0.99731,7.187 2.02402,7.87502 5.09531,3.41447 z m 40.97995,-33.26148 c 0.36865,-2.10868 -1.30355,-4.3746 -2.62546,-3.55762 -0.61149,0.37792 -1.1118,1.81857 -1.1118,3.20144 0,1.84997 0.45935,2.42584 1.73852,2.1795 0.95618,-0.18414 1.85562,-1.00464 1.99874,-1.82332 z m -68.6717,-1.66097 c 1.34696,-3.54276 0.53382,-5.32755 -2.42719,-5.32755 -2.80409,0 -3.64269,1.52659 -2.9188,5.31338 0.68888,3.60364 3.97797,3.61236 5.34599,0.0142 z m 78.33434,-87.92751 c 2.40959,-0.92465 0.0913,-4.40004 -2.93508,-4.40004 -2.53741,0 -2.90793,0.68171 -1.85783,3.41821 0.63855,1.66405 2.18795,1.98145 4.79291,0.98183 z m -41.87567,-24.51034 c 0.76446,-3.4806 -0.79551,-6.01842 -2.59398,-4.21995 -1.22261,1.22261 -0.18078,8.60312 1.10246,7.81003 0.44738,-0.27649 1.11856,-1.89203 1.49152,-3.59008 z m 134.15218,-258.18916 c 0.42055,-4.09944 -0.13622,-4.49938 -2.84767,-2.04555 -2.12918,1.92688 -2.31251,3.46124 -0.61624,5.15751 1.91418,1.91418 3.05327,0.89082 3.46391,-3.11196 z m -137.24551,364.18766 c -0.75088,-1.21495 1.46395,-3.04729 3.0691,-2.53908 0.55,0.17414 1.1455,1.06682 1.32332,1.98375 0.37138,1.91487 -3.26782,2.37497 -4.39242,0.55533 z m 1.5691,-6.3882 c -0.68469,-0.825 -2.00516,-1.5 -2.93439,-1.5 -1.85869,0 -6.06561,-5.08875 -6.06561,-7.33706 0,-0.77993 0.69382,-1.99387 1.54181,-2.69764 1.27865,-1.06119 2.03982,-0.9114 4.45951,0.87755 1.60473,1.18643 3.59508,2.15715 4.423,2.15715 2.4782,0 3.68548,3.38659 2.46023,6.90133 -1.20506,3.45685 -2.05284,3.80575 -3.88455,1.59867 z m -0.22917,-4.6875 c -0.61807,-1.85422 -2.77083,-2.16176 -2.77083,-0.39583 0,0.87083 0.7125,1.58333 1.58333,1.58333 0.87084,0 1.40521,-0.53437 1.1875,-1.1875 z m 117.38237,-61.0593 c -0.63426,-0.63426 -1.1532,-1.5741 -1.1532,-2.08853 0,-0.51443 -1.12076,-1.97401 -2.49057,-3.24351 -2.29817,-2.12987 -2.4449,-2.79539 -1.89933,-8.61467 0.35886,-3.82774 1.35944,-7.40076 2.5457,-9.09056 1.29809,-1.8491 2.06419,-4.87159 2.2812,-9 0.17971,-3.41876 0.80638,-7.42084 1.39259,-8.89352 0.58622,-1.47267 1.28421,-5.52267 1.55109,-9 0.746,-9.71979 1.82789,-16.82241 2.56244,-16.82241 0.3655,0 2.10282,1.48392 3.86071,3.29761 2.54851,2.62939 3.19617,4.13597 3.19617,7.4349 0,2.27551 0.52089,5.40409 1.15754,6.95239 0.6818,1.65811 1.11877,7.84979 1.0632,15.0651 -0.0585,7.59136 0.28729,12.25 0.90918,12.25 0.55194,0 2.47847,-1.125 4.28119,-2.5 1.80272,-1.375 4.33877,-2.5 5.63567,-2.5 1.2982,0 3.84171,-1.43806 5.65916,-3.19961 3.16311,-3.0658 3.44939,-3.146 6.84605,-1.91775 4.34731,1.57201 6.44801,0.27339 6.44801,-3.98603 0,-2.21508 -0.56273,-2.99974 -2.5,-3.48597 -2.31668,-0.58145 -2.5,-1.06429 -2.5,-6.58479 0,-3.27653 0.50124,-6.89391 1.11387,-8.03862 0.61263,-1.14471 1.2557,-5.95263 1.42905,-10.68426 0.17335,-4.73163 0.34711,-8.85007 0.38613,-9.15208 0.12835,-0.99339 7.03656,-3.09018 8.07223,-2.4501 2.16399,1.33742 4.11806,6.67936 3.48975,9.54007 -0.34971,1.59219 0.10433,6.5238 1.00897,10.95914 0.90464,4.43534 1.35975,9.36207 1.01136,10.94829 -0.92112,4.19384 0.42778,9.94877 2.60501,11.11399 2.71385,1.45241 5.88363,-0.51247 5.88363,-3.64712 0,-1.38297 0.69832,-3.86488 1.55182,-5.51537 1.47464,-2.85164 1.8375,-2.99058 7.29597,-2.7936 4.09655,0.14783 6.52312,-0.30311 8.45993,-1.57216 2.85773,-1.87246 4.39087,-5.59467 3.13882,-7.62053 -1.3649,-2.20845 -1.69842,-18.90508 -0.40868,-20.45912 1.58481,-1.90958 8.71254,-0.87345 11.52659,1.67559 1.13545,1.02852 2.58212,1.87003 3.21482,1.87003 2.55213,0 3.43933,3.9964 1.79791,8.09871 -0.86745,2.16797 -1.57718,5.50766 -1.57718,7.42153 0,3.45093 0.0368,3.47976 4.44346,3.47976 3.91177,0 4.65963,-0.37036 6.25,-3.09517 0.9936,-1.70235 3.46132,-3.9448 5.48383,-4.98323 2.02251,-1.03843 3.96773,-2.80315 4.32271,-3.9216 1.0251,-3.22981 8.10644,-6.23844 15.49649,-6.58396 3.59148,-0.16792 7.50385,-0.66773 8.69416,-1.11068 1.19032,-0.44295 6.48928,-0.58036 11.77549,-0.30536 10.05682,0.52318 11.48614,1.21187 11.51855,5.55 0.0233,3.11771 -1.95323,4.45 -6.60178,4.45 -2.31941,0 -6.39191,0.93614 -9.05,2.08031 -3.4023,1.46451 -5.94378,1.9049 -8.58568,1.48774 -4.11021,-0.64901 -7.95357,0.75673 -13.74723,5.02815 -2.84644,2.09857 -4.29868,2.49292 -7.77719,2.11188 -3.4803,-0.38124 -4.54026,-0.0929 -5.68919,1.54738 -3.35912,4.79582 -12.90159,9.81728 -24.53064,12.90858 -10.22841,2.71897 -20.43382,6.87614 -35.8069,14.58596 -7.60936,3.81619 -11.7576,4.2069 -12.71279,1.19735 -0.80842,-2.5471 -2.97526,-1.10762 -3.90423,2.59367 -0.43733,1.74245 -1.30441,2.45898 -2.97567,2.45898 -1.29717,0 -2.92713,0.68516 -3.62213,1.52258 -0.69499,0.83742 -2.03566,1.27754 -2.97925,0.97806 -1.11657,-0.35439 -3.11832,0.81674 -5.73271,3.35392 -2.71183,2.63174 -6.16654,4.61374 -10.63233,6.09986 -3.63838,1.21078 -6.8702,2.61393 -7.1818,3.11812 -1.18767,1.92168 -4.12868,2.85395 -5.30197,1.68066 z m 25.8468,-20.7532 c -0.5887,-1.1 -1.72953,-2 -2.53518,-2 -0.80565,0 -1.46482,0.9 -1.46482,2 0,1.47407 0.66667,2 2.53518,2 2.22531,0 2.40436,-0.24446 1.46482,-2 z m -15,-31 c 0,-0.55 -0.45,-1 -1,-1 -0.55,0 -1,0.45 -1,1 0,0.55 0.45,1 1,1 0.55,0 1,-0.45 1,-1 z m 83,-3.41821 c 0,-1.59682 -1.44475,-3.58179 -2.60699,-3.58179 -1.43665,0 -1.90596,2.15372 -0.72634,3.33333 0.72828,0.72829 3.33333,0.92246 3.33333,0.24846 z m -89.33333,-16.24846 c -0.36667,-0.36666 -0.66667,-1.52916 -0.66667,-2.58333 0,-2.59345 2.41518,-1.66977 2.81955,1.07833 0.30937,2.10247 -0.78817,2.86972 -2.15288,1.505 z m 55.83333,-142.33333 c -0.33992,-0.55 0.0835,-1 0.94098,-1 0.85746,0 1.55902,0.45 1.55902,1 0,0.55 -0.42344,1 -0.94098,1 -0.51754,0 -1.2191,-0.45 -1.55902,-1 z"
           style="fill:#5a9554" />
        <path
           inkscape:connector-curvature="0"
           id="path4168"
           d="m -622.60536,852.96077 c -1.47225,-0.2374 -3.19579,-1.0569 -3.8301,-1.8212 -1.56737,-1.8886 -1.64863,-13.453 -0.15451,-21.9916 1.21973,-6.9705 0.93974,-42.0266 -0.40799,-51.0832 -0.3342,-2.2457 -0.10243,-9.1366 0.51504,-15.313 l 1.12267,-11.2298 -3.42359,-5.687 c -5.68118,-9.4372 -5.64069,-10.6241 0.66441,-19.4764 1.69543,-2.3804 1.71396,-2.9998 0.29493,-9.8559 -1.67365,-8.0864 -3.16931,-9.8547 -8.33501,-9.8547 -1.84179,0 -5.12934,-0.9084 -7.30567,-2.0187 -2.17633,-1.1103 -5.97785,-2.2957 -8.44782,-2.6343 -2.46998,-0.3385 -5.93384,-1.6801 -7.69748,-2.9813 -1.76364,-1.3011 -3.70312,-2.3657 -4.30994,-2.3657 -2.15495,0 -14.73664,-7.00371 -19.33646,-10.76379 -2.56941,-2.10033 -5.93453,-4.36464 -7.47805,-5.03178 -3.00473,-1.29871 -2.90285,-3.33345 0.12724,-2.54107 2.28373,0.59721 3.88354,-1.29667 4.33207,-5.12836 0.27489,-2.34824 -0.17293,-3.22594 -2.15292,-4.21959 -3.42798,-1.72034 -10.04303,-0.62986 -12.37098,2.03932 -1.02904,1.17988 -2.55416,1.99862 -3.38915,1.81944 -0.835,-0.17919 -4.94306,-2.66809 -9.12902,-5.53089 -7.60366,-5.20019 -11.12536,-6.93631 -16.42514,-8.09722 -1.95223,-0.42764 -3.13411,-1.53394 -3.85841,-3.61167 -1.3584,-3.89671 -5.80989,-6.21592 -10.31029,-5.37164 -3.08431,0.57862 -3.4919,0.38545 -4.07313,-1.93036 -0.43353,-1.72733 -0.11651,-3.10266 0.96432,-4.18349 0.8856,-0.8856 1.35449,-2.0239 1.04197,-2.52956 -1.09571,-1.7729 -3.32815,-0.89007 -5.82863,2.30495 l -2.52342,3.22433 -2.79906,-2.00644 c -1.53948,-1.10355 -5.39602,-3.55531 -8.57008,-5.44836 -3.67925,-2.19436 -5.58217,-3.93405 -5.25,-4.79968 0.28656,-0.74676 0.52102,-2.44595 0.52102,-3.77597 0,-3.04491 3.41347,-3.33025 5.22071,-0.43641 1.07805,1.72624 1.94959,1.90176 6.75847,1.36114 8.24838,-0.9273 10.49301,-2.43307 12.42305,-8.33385 1.36532,-4.17421 1.45306,-5.76003 0.49555,-8.95594 -1.05437,-3.51917 -0.9165,-4.32558 1.46934,-8.59431 1.44808,-2.59091 2.63288,-5.75251 2.63288,-7.02578 0,-1.27326 0.38459,-2.55271 0.85464,-2.84322 1.24889,-0.77186 4.77893,3.47039 5.52935,6.64493 0.64122,2.71258 0.15032,3.48324 -4.81231,7.55466 -0.86443,0.70918 -1.57168,2.20126 -1.57168,3.31574 0,1.11447 -0.46089,2.8875 -1.0242,3.94005 -1.39862,2.61334 -0.20105,6.74851 2.17258,7.50187 1.08459,0.34424 3.01386,-0.0786 4.34844,-0.95305 1.59176,-1.04296 2.61801,-1.21726 3.05015,-0.51804 1.20885,1.95596 -0.57909,7.68941 -3.57252,11.45615 -1.63595,2.05857 -2.97445,4.12061 -2.97445,4.5823 0,1.19688 3.86201,3.46022 8.3153,4.8732 3.53286,1.12094 3.69942,1.3386 2.25,2.94019 -0.86091,0.9513 -1.55108,2.36921 -1.5337,3.1509 0.0501,2.25497 4.67609,6.92126 6.86142,6.92126 1.09392,0 2.26706,0.45 2.60698,1 0.92708,1.50006 3.1504,1.20674 5.01932,-0.66218 1.66047,-1.66047 2.6434,-1.12571 3.75866,2.04488 0.66758,1.89789 4.35904,-0.56167 6.19394,-4.12693 3.27515,-6.36374 3.47498,-6.47233 6.12178,-3.32678 1.32347,1.57285 2.4063,3.5684 2.4063,4.43457 0,0.86617 0.95877,3.4143 2.13061,5.66252 1.57458,3.02089 2.55322,3.91334 3.75,3.4197 3.36752,-1.38901 4.50253,-0.81954 7.08398,3.55422 1.57475,2.66812 3.50805,4.62493 4.74912,4.8069 3.00895,0.44117 5.28629,-3.37686 5.28629,-8.86262 0,-2.5359 0.51589,-7.1795 1.14641,-10.31913 0.86738,-4.31897 0.85787,-8.86715 -0.039,-18.68579 -0.70782,-7.74848 -0.82622,-13.61931 -0.29386,-14.57059 0.72248,-1.291 1.01191,-1.05029 1.52581,1.26901 0.46411,2.09454 1.77739,3.41649 4.89646,4.92877 5.78402,2.80438 7.68667,6.24684 5.88358,10.64515 -2.39696,5.84693 -2.44077,8.18745 -0.19137,10.22313 1.91098,1.7294 1.95465,2.03738 0.51463,3.62859 -1.19959,1.32553 -1.70103,4.91463 -2.10981,15.10129 -0.62113,15.47821 -0.45507,15.87987 8.52296,20.61483 2.94567,1.55352 5.23213,3.0262 5.08102,3.2725 -0.15111,0.2464 0.2497,1.4279 0.89068,2.6256 0.90603,1.6929 2.44595,2.33 6.91898,2.8625 3.16446,0.3768 7.27623,1.3892 9.13727,2.2498 3.14027,1.4523 3.47738,1.4367 4.6859,-0.216 0.9232,-1.2626 1.02572,-2.5081 0.35227,-4.2794 -0.79988,-2.1039 -0.46038,-3.0561 2.14907,-6.02813 l 3.09902,-3.52958 -0.33499,-10.61842 c -0.29258,-9.2745 -0.68303,-11.28054 -3.08498,-15.85 -1.67583,-3.18809 -2.75,-6.80122 -2.75,-9.25 0,-3.57173 0.266,-4.01841 2.39301,-4.01841 3.07307,0 3.82289,-2.02995 2.02786,-5.48988 -1.67225,-3.22318 -1.85899,-6.51012 -0.36989,-6.51012 0.57806,0 1.74938,-1.67141 2.60293,-3.71424 2.20488,-5.27702 1.23364,-11.16628 -2.30714,-13.9896 -2.60496,-2.07712 -2.70224,-2.42435 -1.56237,-5.5766 1.52027,-4.20424 1.53145,-6.93314 0.0487,-11.8822 -1.03397,-3.45106 -0.93131,-4.21329 0.90125,-6.69196 3.08682,-4.17515 5.53477,-12.00636 5.51085,-17.62971 -0.0164,-3.86519 0.42763,-5.29868 1.97778,-6.38445 1.70161,-1.19185 1.90484,-2.10982 1.36614,-6.1707 -0.38617,-2.91108 -0.17022,-5.78589 0.55403,-7.37544 1.03754,-2.27716 0.88936,-2.92156 -1.17782,-5.12198 -2.27253,-2.41899 -2.30016,-2.62633 -0.70895,-5.32004 1.30975,-2.21723 1.53013,-4.30124 1.05463,-9.97301 -0.33063,-3.94354 -0.97003,-7.17007 -1.42091,-7.17007 -3.2933,0 -2.63946,-11.3003 1.11613,-19.28997 2.08049,-4.42606 2.12577,-4.90663 0.61918,-6.5714 -2.13155,-2.35533 -2.05545,-4.43952 0.23787,-6.51494 1.21148,-1.09638 2.06744,-3.664 2.4468,-7.33962 0.5173,-5.01219 0.32494,-5.89293 -1.69616,-7.76603 -2.2602,-2.09468 -2.27753,-2.3084 -2.03297,-25.06537 0.13567,-12.62397 0.47594,-25.73871 0.75615,-29.14387 0.59375,-7.2152 -0.56217,-8.9138 -5.4066,-7.94491 -2.50045,0.50009 -3.55832,0.0976 -5.74752,-2.18649 -3.77553,-3.93927 -7.24356,-5.91374 -12.8402,-7.31038 -2.66355,-0.6647 -6.08261,-2.11801 -7.59789,-3.22958 -1.79439,-1.31632 -4.4527,-2.05954 -7.62366,-2.13145 -2.72177,-0.0617 -6.01119,-0.85906 -7.45976,-1.8082 -1.42513,-0.93379 -3.17307,-1.69779 -3.88429,-1.69779 -2.01575,0 -10.35414,-4.70269 -13.46799,-7.59568 -4.23426,-3.93392 -10.16578,-6.6138 -15.47773,-6.99287 -2.61822,-0.18684 -6.9139,-1.36835 -9.54595,-2.62558 -3.77581,-1.80355 -4.89106,-2.90308 -5.28556,-5.21104 -0.46885,-2.74293 -0.82389,-2.94442 -5.69891,-3.23432 -3.95376,-0.23511 -8.02528,-1.72137 -17,-6.20562 l -11.80109,-5.89646 -11.18307,-0.44123 c -7.11082,-0.28055 -11.75366,-0.91477 -12.75,-1.74165 -2.10483,-1.74685 -2.02082,-5.05555 0.12835,-5.05555 0.93241,0 2.96247,-1.21404 4.51125,-2.69787 3.24357,-3.10754 8.77561,-3.53325 11.6861,-0.8993 1.99794,1.80811 5.13577,2.02301 9.83988,0.67389 3.59944,-1.03231 5.79253,-0.0725 22.4825,9.83995 14.02394,8.32901 17.91525,7.18494 17.57184,-5.16626 -0.10322,-3.71228 0.24002,-7.16033 0.76274,-7.66235 0.52273,-0.50201 2.75041,-1.06469 4.95041,-1.2504 3.72089,-0.3141 4.02214,-0.14511 4.31735,2.42192 0.23293,2.02554 -0.53058,3.6075 -2.87041,5.94733 -3.4949,3.4949 -3.09525,6.29309 0.89881,6.29309 1.16353,0 2.20747,0.225 2.31986,0.5 0.25374,0.62088 -1.80696,5.97507 -3.07901,8 -0.51826,0.825 -1.26439,2.4 -1.65807,3.5 -0.60504,1.69063 -0.89276,1.41015 -1.85998,-1.81318 -1.10641,-3.6872 -1.20078,-3.75068 -2.85638,-1.92126 -2.33429,2.57935 -2.1871,3.16523 1.89989,7.5625 3.28643,3.53595 3.691,3.70765 5.30168,2.25 0.95906,-0.86793 2.27081,-1.57806 2.915,-1.57806 0.64419,0 1.17126,-0.72314 1.17126,-1.60699 0,-1.14811 0.49971,-1.39387 1.75,-0.86067 0.9625,0.41048 4.81398,1.61803 8.55884,2.68345 6.12405,1.7423 7.03912,1.78624 9.09853,0.43686 2.02819,-1.32892 2.37434,-2.62248 3.03086,-11.32646 1.25687,-16.66318 1.23847,-16.57173 3.71726,-18.47836 2.6212,-2.01619 4.62368,-2.27295 6.83295,-0.87613 1.24305,0.78591 0.97879,1.48408 -1.60283,4.23468 -2.68968,2.86574 -3.03179,3.84575 -2.63341,7.54362 0.50944,4.72871 0.80634,4.95949 3.38181,2.62872 2.28664,-2.06938 4.62763,-1.17658 5.44404,2.07622 0.96308,3.83724 -0.1169,5.86223 -2.45821,4.6092 -2.65937,-1.42325 -4.56811,1.01367 -3.65222,4.66286 0.38002,1.51413 1.05777,2.98247 1.5061,3.26298 0.44833,0.28051 1.87515,2.71913 3.17071,5.41916 3.17138,6.60933 6.57753,9.13029 10.14193,7.50624 2.4987,-1.13847 2.90606,-0.91768 7.2778,3.94475 2.54702,2.83291 5.66953,5.4114 6.93891,5.73 2.30377,0.57821 3.45746,2.93797 3.48328,7.12469 0.0146,2.37325 3.69635,5.02531 5.03633,3.62782 0.44438,-0.46345 0.95857,-1.92168 1.14264,-3.24051 0.36113,-2.5874 1.78648,-3.65757 6.07097,-4.55818 l 2.73629,-0.57517 -0.66024,-17.23439 c -0.36313,-9.47891 -0.6025,-22.63439 -0.53194,-29.23439 0.0706,-6.6 0.13955,-13.125 0.15332,-14.5 0.0138,-1.375 -0.07,-16 -0.18625,-32.5 -0.18259,-25.92411 -0.01,-30.00291 1.27062,-30.02141 0.98847,-0.0143 1.39448,-0.87623 1.21935,-2.58867 -0.14441,-1.412 0.3706,-4.36185 1.14447,-6.55522 0.77387,-2.19337 1.1746,-5.20386 0.89051,-6.68997 -0.41741,-2.18354 -0.92486,-2.59065 -2.64447,-2.1216 -2.04721,0.5584 -2.05679,0.52337 -0.25252,-0.92331 1.07275,-0.86014 1.62136,-2.16581 1.28181,-3.05066 -0.32649,-0.85081 -0.23647,-2.51238 0.20003,-3.69237 0.53421,-1.44408 0.0509,-3.98436 -1.47847,-7.77066 -1.87668,-4.64618 -2.10753,-6.318 -1.32639,-9.60568 1.00878,-4.24575 2.13609,-40.6073 1.99343,-64.29825 -0.0946,-15.71783 -0.18012,-15.9857 -7.71665,-24.1822 -1.77,-1.925 -4.64489,-6.55741 -6.38864,-10.29423 -3.05015,-6.53641 -3.1033,-6.86846 -1.40052,-8.75 0.97347,-1.07568 2.28387,-1.95577 2.91201,-1.95577 1.72965,0 8.07749,7.09524 9.42334,10.53287 1.69077,4.31863 6.71707,8.80697 9.15006,8.17073 1.08491,-0.28371 2.22457,-0.10809 2.53258,0.39028 0.30801,0.49837 1.5924,0.90612 2.8542,0.90612 2.16162,0 2.26658,0.30338 1.81626,5.25 -0.26287,2.8875 -0.80984,5.87083 -1.2155,6.62962 -0.40566,0.75879 -0.51106,6.51222 -0.23422,12.78541 0.47808,10.83364 0.38951,11.52695 -1.7657,13.82107 -2.09313,2.22803 -2.23232,3.09746 -1.79534,11.21459 0.26053,4.83962 0.0978,10.13018 -0.36171,11.7568 -0.46945,1.66192 -0.43325,4.29029 0.0826,6 3.90907,12.95517 4.07453,28.02014 0.43158,39.29568 -0.93347,2.88924 -1.40854,5.54185 -1.05571,5.89468 0.35284,0.35283 2.86286,0.85495 5.57784,1.11583 4.61541,0.44348 5.17159,0.23904 8.55532,-3.14468 1.99045,-1.99045 4.01614,-3.619 4.50153,-3.619 0.48539,0 2.88525,-1.9125 5.33303,-4.25 3.76186,-3.59238 4.62591,-5.16553 5.58413,-10.16678 0.6235,-3.25423 1.13364,-7.16517 1.13364,-8.69098 0,-3.30974 0.19786,-3.44878 6.13057,-4.30819 l 4.63058,-0.67078 0.68357,3.64375 c 0.49731,2.65091 0.25738,4.11468 -0.88058,5.3721 -4.45339,4.92095 0.41848,10.5868 8.05552,9.36835 3.55736,-0.56755 12.03891,-4.55264 16.85285,-7.91837 1.08487,-0.7585 2.70535,-1.3791 3.60106,-1.3791 0.8957,0 3.83307,-1.1988 6.52749,-2.664 3.95985,-2.15333 6.10088,-2.63724 11.16912,-2.52438 3.4486,0.0768 7.10444,0.58609 8.12409,1.13179 1.01965,0.5457 4.09376,0.72691 6.83136,0.40268 4.33453,-0.51336 5.04193,-0.34293 5.47667,1.3195 0.27457,1.04995 0.15472,2.84026 -0.26633,3.97846 -0.69579,1.88091 -1.79831,2.1163 -12.10076,2.58351 -10.18003,0.46165 -11.95928,0.83294 -17.45891,3.64324 -3.36804,1.72106 -6.83375,3.1292 -7.70157,3.1292 -0.86782,0 -5.16006,1.575 -9.5383,3.5 -4.37824,1.925 -8.46796,3.5 -9.08827,3.5 -0.62031,0 -2.89198,0.9 -5.04816,2 -6.37783,3.25373 -7.23873,2.84479 -6.84186,-3.25 0.3387,-5.20152 0.31516,-5.25 -2.54915,-5.25 -1.59043,0 -3.20753,0.67481 -3.59458,1.5 -0.38696,0.825 -1.2235,2.50639 -1.85898,3.73643 -1.47603,2.85699 -1.45242,3.26357 0.18958,3.26357 1.33922,0 4.65499,3.0689 4.65499,4.30842 0,0.96827 -7.64245,4.68651 -9.71016,4.72423 -3.04221,0.0555 -11.776,3.42383 -14.85887,5.73059 -5.44517,4.07435 -6.43097,5.4978 -6.43097,9.286 0,2.03462 -0.63831,5.50846 -1.41846,7.71965 -1.01508,2.87705 -1.16405,5.11671 -0.52385,7.87572 1.34731,5.80642 1.14666,7.06869 -1.22214,7.68814 -1.77146,0.46325 -1.94377,0.83192 -0.94904,2.0305 1.92386,2.31811 2.38817,13.87864 1.21038,30.13675 -1.66243,22.94815 -2.13455,42.5041 -1.17196,48.54441 0.51234,3.21491 0.48525,7.85888 -0.066,11.30711 -1.10708,6.92584 -0.0681,8.90709 4.43119,8.44955 2.39447,-0.24351 3.17555,-0.97026 4.08517,-3.80107 0.87042,-2.7088 1.73514,-3.57045 3.8252,-3.81165 3.21165,-0.37063 8.52856,-6.04439 9.33048,-9.95669 0.30795,-1.50241 1.00024,-4.39488 1.53842,-6.42771 0.55258,-2.0872 0.6913,-7.78205 0.31868,-13.08293 -0.52798,-7.51117 -0.31689,-10.41939 1.05639,-14.55396 1.88043,-5.66143 4.81659,-7.05634 6.14019,-2.91706 1.19206,3.72794 0.59073,18.29245 -1.09151,26.43671 -1.50821,7.30169 -1.2832,13.31329 0.4983,13.31329 0.45791,0 4.32234,-0.6677 8.58762,-1.48378 5.66386,-1.08368 8.11128,-1.18814 9.07613,-0.38738 1.41197,1.17183 1.64907,0.80743 2.7371,-4.20678 0.38893,-1.79235 2.07289,-3.40168 5.52601,-5.28111 2.73164,-1.48674 5.17595,-3.47667 5.43178,-4.42206 0.25584,-0.94539 0.48121,-6.44389 0.50083,-12.21889 0.047,-13.8491 0.81151,-16.40507 5.03028,-16.81823 5.21943,-0.51117 6.03493,0.88737 5.40147,9.26321 -0.74538,9.85558 -0.001,12.35682 4.19783,14.11134 1.87514,0.78348 3.8182,2.15508 4.31789,3.04799 1.92597,3.44151 9.18619,-2.66156 9.19783,-7.73187 0.006,-2.60464 2.73061,-4.17013 8.65773,-4.97446 3.32018,-0.45056 7.00665,-1.77681 9.23902,-3.32384 2.04297,-1.41578 4.67216,-2.57414 5.84265,-2.57414 1.23514,0 3.04768,-1.29136 4.3195,-3.07747 1.81373,-2.54714 2.64402,-2.96328 4.8181,-2.41479 1.44471,0.36448 5.77674,0.57324 9.62674,0.46391 10.22796,-0.29044 10.56362,-0.26881 15.75,1.01475 3.56968,0.88345 4.75,1.64368 4.75,3.0594 0,2.86292 -3.12238,3.95795 -11.70008,4.10329 -10.24166,0.17353 -14.57109,1.56999 -22.29752,7.1921 -3.52141,2.56235 -7.23844,4.65881 -8.26006,4.65881 -1.02163,0 -7.31593,2.7 -13.98734,6 -7.03932,3.48199 -13.44686,6 -15.2681,6 -2.05452,0 -3.94933,0.86333 -5.4869,2.5 -1.29175,1.375 -3.19488,2.5 -4.22918,2.5 -2.04283,0 -7.94409,2.68619 -14.27082,6.49592 -2.2,1.32476 -4.675,2.6876 -5.5,3.02852 -0.825,0.34093 -2.175,1.04644 -3,1.56782 -3.92219,2.47869 -8.29287,3.90774 -11.95167,3.90774 -3.27197,0 -5.43593,1.01887 -11.68131,5.5 -4.21597,3.025 -8.33919,5.5 -9.16271,5.5 -1.89286,0 -11.01988,6.04176 -13.82307,9.15038 -1.16532,1.29229 -2.4321,3.66961 -2.81506,5.28294 -1.0956,4.61545 -1.54946,93.10347 -0.52607,102.56668 0.50558,4.675 1.04088,9.83053 1.18956,11.45673 0.21892,2.39442 1.26542,3.53548 5.50282,6 2.87786,1.6738 5.24036,3.39191 5.25,3.81802 0.01,0.42611 -0.99499,1.19329 -2.23249,1.70483 -5.41526,2.23848 -7.04733,4.57928 -8.47217,12.15125 -0.76267,4.05304 -1.87025,9.61917 -2.46129,12.36917 -0.59104,2.75 -0.9156,10.175 -0.72126,16.5 0.37479,12.19747 0.37465,12.33669 -0.0519,49.5 -0.32352,28.18503 0.62244,46.67485 2.51816,49.2203 1.25697,1.68779 1.57186,1.65059 6.09735,-0.7203 8.50552,-4.45601 8.73597,-5.34998 9.53804,-37 0.63037,-24.87498 1.45713,-33.98737 3.24596,-35.77619 0.33976,-0.33976 1.80682,0.57133 3.26014,2.02465 2.84885,2.84885 3.03859,4.37577 1.95731,15.75154 -1.25324,13.18489 -2.29369,35.6467 -1.87601,40.5 0.58331,6.77779 1.62325,7.82688 7.14193,7.20485 3.18375,-0.35886 5.10153,-1.23483 6.53933,-2.98694 2.40815,-2.93458 5.73874,-4.67948 14.53444,-7.61462 3.575,-1.19298 7.28166,-2.76209 8.23702,-3.48692 2.37454,-1.80156 2.96726,-7.78593 1.25251,-12.64604 -1.01096,-2.86537 -1.13978,-4.76004 -0.44745,-6.581 0.53472,-1.40644 0.70059,-2.99668 0.36859,-3.53387 -0.332,-0.53719 -0.0274,-3.8756 0.67682,-7.41868 1.11921,-5.63073 1.07674,-6.86918 -0.33725,-9.83435 -1.44141,-3.02265 -1.46146,-3.9116 -0.18398,-8.15634 0.78861,-2.62017 1.43379,-6.04243 1.43379,-7.60502 0,-2.46321 0.38271,-2.84107 2.87756,-2.84107 1.58265,0 3.35215,0.57186 3.93221,1.27079 0.63893,0.76987 1.19353,9.54044 1.40696,22.25 0.35482,21.12935 0.91838,24.54961 4.25615,25.83043 0.89846,0.34477 2.92215,-0.63718 4.9098,-2.38235 1.85974,-1.63288 4.32241,-2.96887 5.47258,-2.96887 3.45813,0 10.95172,-4.15837 11.55717,-6.41336 0.30814,-1.14765 0.56641,-3.28767 0.57392,-4.7556 0.008,-1.46793 0.79077,-4.02302 1.74058,-5.67797 1.48339,-2.58466 1.54995,-3.49846 0.47196,-6.47958 -1.26035,-3.48544 -0.80641,-10.08607 0.87929,-12.78559 0.67464,-1.08039 1.80876,-0.44865 5.11871,2.85128 l 4.25205,4.23918 0.21197,10.16252 c 0.14758,7.07523 0.61102,10.4327 1.52553,11.05186 2.58878,1.75272 8.71121,0.12833 11.74103,-3.11509 1.59765,-1.7103 4.48191,-3.76858 6.40947,-4.57396 2.88045,-1.20353 3.87495,-2.4541 5.58385,-7.02153 1.14357,-3.05645 2.08172,-6.1028 2.08479,-6.76967 0.008,-1.78451 1.86922,-8.00658 2.85196,-9.5352 0.5899,-0.91756 1.94201,-1.11792 4.41427,-0.65412 l 3.56389,0.66859 -0.55582,5.38541 c -1.00449,9.73261 2.03332,10.59771 14.17028,4.03537 13.53772,-7.31971 19.41881,-8.69504 39.54984,-9.24899 18.15493,-0.49957 21.56981,0.04 19.09848,3.01779 -0.84532,1.01855 -2.2202,1.34432 -4.0929,0.96978 -2.24396,-0.4488 -3.14933,-0.0614 -4.43229,1.89668 -1.47594,2.25257 -2.42752,2.50932 -11.25157,3.03577 -7.56905,0.45157 -10.24077,1.0198 -12.44,2.64576 -1.5404,1.13887 -3.51457,2.07067 -4.38703,2.07067 -0.87247,0 -3.69961,1.125 -6.28254,2.5 -2.58293,1.375 -5.29469,2.5 -6.02612,2.5 -0.73144,0 -3.21002,1.08862 -5.50796,2.41915 -2.29794,1.33054 -7.55307,3.4091 -11.67807,4.61902 -4.125,1.20993 -10.30974,3.74179 -13.74387,5.62636 -6.68862,3.67057 -24.23124,10.60058 -46.59422,18.40652 -7.61095,2.65666 -14.36095,5.24263 -15,5.74661 -1.71756,1.35454 -12.73001,5.31126 -15.95683,5.73321 -1.5372,0.20102 -6.4872,1.91429 -11,3.80727 -4.51279,1.89298 -9.95459,3.69357 -12.09287,4.00131 -2.13829,0.30774 -5.51329,1.65774 -7.5,3 -1.98672,1.34226 -4.73721,2.75866 -6.11221,3.14757 -1.375,0.38891 -4.525,1.97784 -7,3.53096 -2.475,1.55316 -7.02629,3.76436 -10.11398,4.91386 -3.08769,1.1496 -6.30016,2.8681 -7.13882,3.8191 -1.18183,1.3401 -1.74205,6.2918 -2.49038,22.0123 -0.78708,16.5347 -1.25816,20.5081 -2.54895,21.5 -0.87089,0.6692 -1.72393,2.5668 -1.89565,4.2168 -0.22443,2.1564 -0.78307,2.9222 -1.98681,2.7234 -0.92103,-0.1521 -1.96009,0.1854 -2.30902,0.75 -1.22899,1.9886 -3.65456,1.1152 -3.32925,-1.1988 0.2082,-1.4809 -0.27258,-2.3418 -1.43714,-2.5733 -2.20805,-0.4391 -2.43407,3.3222 -0.25,4.1603 0.87085,0.3342 1.5,1.8305 1.5,3.5675 0,1.6456 0.72977,3.5722 1.6217,4.2814 0.89194,0.7092 2.87248,2.527 4.40121,4.0395 1.52873,1.5125 3.4718,2.75 4.31793,2.75 1.0559,0 1.63578,1.1762 1.84879,3.75 0.19409,2.345 0.77868,3.6563 1.56037,3.5 1.63484,-0.327 1.53646,0.7871 -0.2818,3.1911 -2.4396,3.2254 -1.71784,11.5589 1.00111,11.5589 1.60847,0 2.28261,6.6403 2.43654,24 0.1739,19.6111 -0.77593,31.3527 -2.42553,29.9836 -0.90321,-0.7496 -1.50085,-0.7594 -1.95031,-0.032 -0.35642,0.5767 -1.89305,1.0486 -3.41471,1.0486 -3.44622,0 -6.84501,3.499 -7.28522,7.5 -0.28164,2.5597 -0.77036,3.0179 -3.33008,3.1221 -1.65,0.067 -4.20457,-0.072 -5.67682,-0.3093 z m 14.51028,-16.4769 c 0.77488,-1.2305 0.56786,-2.7284 -0.79469,-5.75 -1.01338,-2.2472 -2.20302,-4.0859 -2.64364,-4.0859 -0.75573,0 -2.87749,6.2781 -2.88955,8.55 -0.009,1.6198 2.29088,3.5403 3.86642,3.2292 0.7775,-0.1536 1.88516,-1.028 2.46146,-1.9433 z m -8.51704,-9.367 c -0.17403,-1.3921 -0.76642,-2.5311 -1.31642,-2.5311 -0.55,0 -1.14239,1.139 -1.31642,2.5311 -0.22552,1.8039 0.15269,2.5311 1.31642,2.5311 1.16373,0 1.54194,-0.7272 1.31642,-2.5311 z m 1.86068,-10.0699 c 0.70746,-1.8436 -1.71096,-3.7652 -3.05152,-2.4246 -1.0915,1.0915 -0.0897,4.0256 1.37442,4.0256 0.58452,0 1.33922,-0.7205 1.6771,-1.601 z m 5.91511,-19.6105 c -0.0842,-7.5652 -0.27156,-8.3142 -2.14738,-8.5826 -1.13035,-0.1617 -2.88871,0.6271 -3.90747,1.7528 -1.60408,1.7725 -1.69926,2.5489 -0.71026,5.794 1.46146,4.7954 4.95807,10.4981 6.03051,9.8353 0.45474,-0.2811 0.78531,-4.2409 0.7346,-8.7995 z m 2.08079,-15.4122 c 0.98409,-1.5019 1.62771,-4.1742 1.50533,-6.25 -0.23089,-3.9165 -2.00035,-9.1263 -3.09965,-9.1263 -1.39833,0 -3.07868,2.4743 -3.07868,4.5333 0,2.8341 -1.00837,3.7046 -2.68216,2.3155 -0.75139,-0.6236 -1.6928,-0.8059 -2.09201,-0.4051 -0.3992,0.4008 0.96167,2.0836 3.02417,3.7395 2.4577,1.9732 3.75,3.8389 3.75,5.4138 0,3.0723 0.54481,3.0273 2.673,-0.2207 z m -59.673,-121.93536 c 0,-0.85746 -0.45,-1.2809 -1,-0.94098 -0.55,0.33992 -1,1.04148 -1,1.55902 0,0.51754 0.45,0.94098 1,0.94098 0.55,0 1,-0.70156 1,-1.55902 z m 0.5,-18.27431 c 0,-3.09065 -1.93564,-2.74858 -2.32694,0.41122 -0.2284,1.84433 0.073,2.50675 1,2.19776 0.72982,-0.24328 1.32694,-1.41732 1.32694,-2.60898 z m 78.5,-242.60765 c 0,-0.79254 -0.41891,-1.69988 -0.9309,-2.01631 -1.18889,-0.73478 -2.38461,1.13777 -1.5691,2.45729 0.91956,1.48787 2.5,1.20909 2.5,-0.44098 z m -59.18358,-4.80902 c 0.36347,-3.15883 -0.39857,-3.43812 -2.98768,-1.09501 -2.57557,2.33086 -2.35027,4.55818 0.42126,4.16456 1.61101,-0.2288 2.33986,-1.10054 2.56642,-3.06955 z m -7.31642,0.25 c 0.33992,-0.55 -0.0835,-1 -0.94098,-1 -0.85746,0 -1.55902,0.45 -1.55902,1 0,0.55 0.42344,1 0.94098,1 0.51754,0 1.2191,-0.45 1.55902,-1 z m 151.5,-32 c 0,-0.55 -0.45,-1 -1,-1 -0.55,0 -1,0.45 -1,1 0,0.55 0.45,1 1,1 0.55,0 1,-0.45 1,-1 z m -215,284.62212 c 0,-1.30783 0.6506,-3.93498 1.44578,-5.8381 0.79518,-1.90313 1.40637,-6.23965 1.3582,-9.6367 -0.11195,-7.8957 1.67053,-10.22987 7.59943,-9.9515 2.25313,0.10578 5.27792,-0.15469 6.72178,-0.57882 2.40715,-0.70712 2.66911,-0.49483 3.15402,2.55592 0.38867,2.44524 -0.0899,4.25475 -1.80559,6.82708 -1.28394,1.925 -2.64083,5.1875 -3.01532,7.25 -0.52824,2.90931 -1.14592,3.75 -2.75523,3.75 -1.1409,0 -4.20905,1.8 -6.81812,4 -2.60907,2.2 -5.00053,4 -5.31436,4 -0.31382,0 -0.57059,-1.07004 -0.57059,-2.37788 z m -59.37664,-13.80887 c -1.03215,-0.5799 -6.40859,-4.45215 -11.94765,-8.60499 -13.86525,-10.39529 -16.34061,-11.20826 -34.12742,-11.20826 -7.93664,0 -14.68824,-0.41743 -15.00356,-0.92763 -0.98904,-1.6003 3.7797,-5.9788 7.95527,-7.30427 2.90024,-0.92064 4.08786,-1.88813 4.31955,-3.51892 0.24128,-1.69822 0.97615,-2.24543 3,-2.23387 3.40736,0.0195 4.68045,0.96731 4.68045,3.48469 0,1.67816 0.64369,1.98891 4,1.93106 2.2,-0.0379 6.25,-0.41067 9,-0.82832 4.79716,-0.72857 5.22031,-0.59392 10.43061,3.31894 2.98683,2.24308 6.04104,4.07832 6.78713,4.07832 0.74609,0 4.24683,1.6875 7.77943,3.75 6.59507,3.85052 7.57904,5.55384 5.30856,9.18948 -0.86404,1.38353 -0.90345,2.555 -0.14254,4.23643 1.5266,3.37341 0.37407,5.99357 -2.03983,4.63734 z m 110.72708,-15.56325 c -0.96178,-1.47727 -1.46537,-1.55519 -3.23132,-0.5 -1.15059,0.6875 -2.32309,1.25 -2.60555,1.25 -0.80236,0 -0.57188,-13.36682 0.25174,-14.60011 0.40408,-0.60505 2.64185,-1.34902 4.97283,-1.65325 4.80422,-0.62703 9.26186,1.92655 9.26186,5.3057 0,3.1664 -3.11966,9.94133 -5.05451,10.97683 -2.33947,1.25205 -2.26165,1.26891 -3.59505,-0.77917 z m -41.81782,-17.19721 c -0.87924,-1.42264 0.24199,-3.05279 2.09972,-3.05279 0.87615,0 1.37805,0.70256 1.19098,1.66713 -0.38952,2.00847 -2.38616,2.84922 -3.2907,1.38566 z m 77.96738,-44.76869 c -2.75,-1.37752 -7.66696,-2.88202 -10.92658,-3.34335 -5.6684,-0.80222 -6.26826,-1.17843 -13.76969,-8.63587 l -7.84311,-7.7971 3.26969,-0.8272 c 1.79833,-0.45496 3.94469,-1.49753 4.76969,-2.31681 1.33218,-1.32295 1.18609,-1.76227 -1.30576,-3.92669 -3.03299,-2.63444 -9.9665,-3.52459 -9.24638,-1.18708 0.2118,0.6875 0.64023,2.42367 0.95207,3.85817 0.51955,2.38998 0.33832,2.56728 -2.16648,2.11943 -1.5034,-0.26881 -3.40845,-1.05682 -4.23345,-1.75115 -0.825,-0.69433 -4.2,-1.8359 -7.5,-2.53682 -8.91254,-1.89305 -14.54895,-4.74706 -18.81742,-9.52825 -3.59584,-4.02776 -3.73115,-4.41049 -2.33124,-6.59367 1.82534,-2.84663 2.24279,-6.31212 1.26437,-10.49635 l -0.74327,-3.17864 -3.43622,2.02741 c -2.63341,1.55375 -3.43622,2.69145 -3.43622,4.86963 0,1.56321 0.45,3.12032 1,3.46024 0.55,0.33992 1,1.26648 1,2.05902 0,2.62609 -4.22627,1.50696 -11.55209,-3.05902 -3.97097,-2.475 -7.64101,-4.5 -8.15563,-4.5 -0.51462,0 -4.49145,-2.475 -8.8374,-5.5 -4.34596,-3.025 -8.85848,-5.5 -10.02783,-5.5 -1.16935,0 -4.1063,-1.34181 -6.52657,-2.9818 -2.42026,-1.63999 -5.08797,-2.98999 -5.92824,-3 -0.84027,-0.01 -2.29836,-0.9182 -3.24021,-2.0182 -1.46939,-1.71612 -4.22517,-2.55276 -6.98,-2.1191 -0.41139,0.0648 -3.42712,-0.80943 -6.70164,-1.94264 -4.12229,-1.42661 -6.50685,-1.77446 -7.75203,-1.13086 -3.35023,1.73166 -14.14595,2.32323 -20.30051,1.11239 -5.22875,-1.02869 -5.99785,-1.47196 -5.99785,-3.45682 0,-3.96395 8.00122,-5.67865 27.19324,-5.82764 17.19959,-0.13353 23.23615,0.99148 24.36251,4.54032 0.50217,1.58219 4.87023,4.65474 8.64538,6.08126 0.99336,0.37537 2.65575,-0.13018 3.99554,-1.21508 1.8225,-1.47577 2.39816,-3.16031 2.79887,-8.19029 0.58652,-7.36252 2.3614,-8.58551 6.48109,-4.46582 2.1309,2.13091 2.52337,3.4464 2.52337,8.45804 0,7.42393 1.39985,9.20113 9.92241,12.59711 11.46643,4.56902 19.33438,2.7372 19.48531,-4.53656 0.0389,-1.87237 -0.26592,-5.99181 -0.67728,-9.15431 l -0.74791,-5.75 2.98568,0 c 4.81895,0 5.86821,2.80416 5.68765,15.20021 -0.10252,7.03856 -0.58362,11.1279 -1.40586,11.95 -0.6875,0.68739 -1.25,2.2082 -1.25,3.3796 0,1.76574 1.76253,2.84267 10.31071,6.3 5.67089,2.2936 11.22057,4.17019 12.33263,4.17019 1.73846,0 6.1494,-4.42386 8.73754,-8.76314 0.41437,-0.69473 0.0403,-3.71613 -0.83128,-6.71423 -1.04176,-3.58355 -1.35185,-6.9194 -0.90509,-9.73686 0.84991,-5.35984 3.0602,-10.78577 4.39366,-10.78577 1.44599,0 2.92776,4.41428 2.29457,6.83561 -0.29489,1.12765 0.15554,3.4368 1.00095,5.13146 1.14234,2.28989 1.38606,4.80854 0.94896,9.80707 -0.32348,3.69922 -0.53393,8.35676 -0.46767,10.35008 0.0813,2.44698 -0.51869,4.20266 -1.84725,5.40499 -2.53266,2.29202 -2.49605,4.11768 0.11055,5.51268 1.14305,0.61175 3.95555,2.93707 6.25,5.1674 7.43839,7.23051 12.07086,10.49409 17.32929,12.20851 6.20075,2.02164 10.34243,5.59866 10.34243,8.93238 0,1.34512 1.11958,4.40411 2.48795,6.79775 1.36838,2.39364 2.49338,4.91457 2.5,5.60207 0.0185,1.91878 -3.95724,1.30452 -9.48795,-1.4659 z m 46.99966,-16.28516 c -0.34931,-1.10059 -1.50463,-2.46642 -2.56738,-3.03519 -2.87969,-1.54116 -2.77813,-12.61871 0.14982,-16.34099 1.36854,-1.73981 2.39046,-5.12745 2.98188,-9.88486 2.48452,-19.98531 3.76019,-28.64438 4.36384,-29.62111 1.09954,-1.7791 4.57218,1.06619 4.57218,3.7462 0,2.04581 -0.22039,2.199 -1.56189,1.08565 -1.38547,-1.14984 -1.52666,-0.7401 -1.25,3.62755 0.2509,3.96102 0.74594,5.11428 2.53166,5.89792 1.27804,0.56085 2.50427,2.25783 2.89038,4 0.75437,3.40383 0.64331,12.43994 -0.21044,17.12203 -0.7231,3.96559 1.78629,6.90987 4.60399,5.40188 2.41864,-1.29442 2.9963,-1.25826 2.9963,0.18753 0,0.65205 0.97844,2.22705 2.17431,3.5 1.19588,1.27295 1.64588,2.31445 1,2.31445 -0.64587,0 -1.17431,0.58899 -1.17431,1.30887 0,2.70546 -2.70864,4.77476 -9.43762,7.21 -3.81569,1.38091 -7.67612,3.17908 -8.57874,3.99594 -2.16477,1.95908 -2.72477,1.87616 -3.48398,-0.51587 z m 27.5304,-17.67256 -1.98807,-3.36952 4.15636,-3.72843 c 2.28599,-2.05064 4.63904,-3.63009 5.229,-3.5099 0.58996,0.1202 2.31274,0.51065 3.8284,0.86768 1.64725,0.38803 3.3568,0.1503 4.25,-0.59098 2.3932,-1.98618 1.84663,-7.78773 -1.05901,-11.24089 -1.40429,-1.66891 -2.34851,-3.56795 -2.09825,-4.2201 0.25025,-0.65214 0.77793,-4.20124 1.17263,-7.88689 0.50424,-4.70846 1.24748,-7.07229 2.49942,-7.94919 1.56014,-1.09276 1.60749,-1.48637 0.38062,-3.16421 -2.4542,-3.35633 -1.76945,-7.29214 1.56905,-9.01855 2.85074,-1.47417 3.03619,-1.43527 4.61026,0.96706 1.08308,1.65299 1.47822,3.77899 1.16356,6.26028 -0.26206,2.06649 0.26579,6.90726 1.173,10.75726 1.8122,7.69056 1.88393,19.82998 0.12966,21.94374 -1.48932,1.79452 1.52706,4.95052 3.83225,4.00962 0.89158,-0.36391 2.90217,-1.04589 4.46798,-1.5155 4.40123,-1.32001 5.63575,-2.77453 5.01007,-5.90291 -1.19231,-5.96155 3.2485,-8.65624 10.02158,-6.08112 2.11455,0.80395 3.00564,0.48968 5.67085,-2 3.78466,-3.5354 4.63513,-3.6734 4.52998,-0.73504 -0.0485,1.3547 0.6033,2.35709 1.67362,2.57391 2.50093,0.50662 3.30662,-2.51683 1.2703,-4.76693 -1.82301,-2.01441 -1.33038,-4.02577 0.98601,-4.02577 0.76521,0 1.86332,0.7875 2.44024,1.75 0.99516,1.66025 1.121,1.65718 2.45369,-0.0598 0.88905,-1.14544 1.6452,-1.42077 2.05976,-0.75 0.36026,0.58291 2.87207,1.05984 5.58181,1.05984 4.64358,0 5.07961,-0.23092 7.58522,-4.01715 2.8509,-4.308 6.21019,-5.80598 9.61409,-4.28712 1.40846,0.62848 3.29945,0.53793 5.6513,-0.2706 5.24247,-1.80227 5.09459,-3.42513 -0.31211,-3.42513 -5.95524,0 -6.10319,-2.12142 -0.33333,-4.77948 8.69548,-4.00583 38.78179,-5.18601 40.16723,-1.57561 1.03833,2.70582 -0.59001,4.09697 -5.47233,4.67521 -2.71861,0.32198 -6.96342,1.47918 -9.43293,2.57156 -2.96448,1.31133 -5.64612,1.79853 -7.89274,1.43396 -4.278,-0.69423 -9.63835,1.03597 -13.07393,4.21996 -2.76314,2.56079 -9.78969,3.48602 -11.0453,1.4544 -1.081,-1.7491 -2.22065,-1.08864 -3.51547,2.03734 -1.28671,3.10637 -10.38162,9.96262 -13.21559,9.96262 -0.83823,0 -2.08425,0.675 -2.76894,1.5 -0.68469,0.825 -2.5582,1.5 -4.16335,1.5 -3.68409,0 -15.82043,3.81467 -17.91539,5.63113 -0.86831,0.75288 -2.38241,1.36887 -3.36467,1.36887 -0.98226,0 -3.87183,1.07432 -6.42126,2.38737 -10.27939,5.29428 -19.87129,9.61263 -21.35152,9.61263 -0.86184,0 -1.84935,-1.125 -2.19445,-2.5 -0.87507,-3.48655 -3.32726,-3.11749 -5.18609,0.78052 -1.06431,2.23188 -2.65452,3.62173 -4.97475,4.34796 -3.26111,1.02071 -3.4974,0.91994 -5.39846,-2.3021 z m 56.60575,-43.90291 c -0.36258,-4.7171 -0.40241,-8.9921 -0.0885,-9.5 0.3139,-0.50791 2.26303,-0.92347 4.33138,-0.92347 2.76503,0 4.33613,0.66186 5.93437,2.5 1.19555,1.375 2.8517,2.5 3.68034,2.5 1.93024,0 1.9013,1.91752 -0.12235,8.10446 l -1.62896,4.98025 -2.40709,-3.54235 c -3.16707,-4.66077 -4.923,-4.52026 -5.719,0.45764 -0.3773,2.35952 -1.18945,4 -1.98028,4 -0.96542,0 -1.52517,-2.40049 -1.9999,-8.57653 z m -97.63581,-338.20528 c 0,-3.95116 9.12174,-12.49645 11.16179,-10.4564 1.38252,1.38252 -2.64093,7.36625 -6.58694,9.79618 -4.50319,2.77304 -4.57485,2.78338 -4.57485,0.66022 z"
           style="fill:#0c5c0b" />
      </g>
      <text
         sodipodi:linespacing="125%"
         id="text4194"
         y="924.86993"
         x="469.44702"
         style="font-style:normal;font-weight:normal;font-size:47.33910751px;line-height:125%;font-family:sans-serif;letter-spacing:0px;word-spacing:0px;fill:#000000;fill-opacity:1;stroke:none;stroke-width:1px;stroke-linecap:butt;stroke-linejoin:miter;stroke-opacity:1"
         xml:space="preserve"><tspan
           style="font-style:normal;font-variant:normal;font-weight:bold;font-stretch:normal;font-size:213.02598572px;font-family:'League Spartan';-inkscape-font-specification:'League Spartan Bold'"
           y="924.86993"
           x="469.44702"
           id="tspan4196"
           sodipodi:role="line">PERTH</tspan><tspan
           style="font-style:normal;font-variant:normal;font-weight:bold;font-stretch:normal;font-size:213.02598572px;font-family:'League Spartan';-inkscape-font-specification:'League Spartan Bold'"
           id="tspan4198"
           y="1191.1525"
           x="469.44702"
           sodipodi:role="line">PARKOUR</tspan></text>
      <text
         sodipodi:linespacing="125%"
         id="text4194-1"
         y="917.06201"
         x="461.07767"
         style="font-style:normal;font-weight:normal;font-size:47.33910751px;line-height:125%;font-family:sans-serif;letter-spacing:0px;word-spacing:0px;fill:#ffffff;fill-opacity:1;stroke:none;stroke-width:1px;stroke-linecap:butt;stroke-linejoin:miter;stroke-opacity:1"
         xml:space="preserve"><tspan
           style="font-style:normal;font-variant:normal;font-weight:bold;font-stretch:normal;font-size:213.02598572px;font-family:'League Spartan';-inkscape-font-specification:'League Spartan Bold';fill:#ffffff;fill-opacity:1"
           y="917.06201"
           x="461.07767"
           id="tspan4196-4"
           sodipodi:role="line">PERTH</tspan><tspan
           style="font-style:normal;font-variant:normal;font-weight:bold;font-stretch:normal;font-size:213.02598572px;font-family:'League Spartan';-inkscape-font-specification:'League Spartan Bold';fill:#ffffff;fill-opacity:1"
           id="tspan4198-8"
           y="1183.3445"
           x="461.07767"
           sodipodi:role="line">PARKOUR</tspan></text>
    </g>
  </g>
</svg>
